<mxfile host="65bd71144e">
    <diagram id="Uzb02Yl6CRr2bP3N2nVf" name="Page-1">
        <mxGraphModel dx="631" dy="704" grid="1" gridSize="10" guides="1" tooltips="1" connect="1" arrows="1" fold="1" page="1" pageScale="1" pageWidth="850" pageHeight="1100" math="0" shadow="0">
            <root>
                <mxCell id="0"/>
                <mxCell id="1" parent="0"/>
                <mxCell id="7uX397mnJ79mEGuJaPBq-1" value="" style="rounded=0;whiteSpace=wrap;html=1;" parent="1" vertex="1">
                    <mxGeometry x="240" y="200" width="80" height="40" as="geometry"/>
                </mxCell>
                <mxCell id="7uX397mnJ79mEGuJaPBq-2" value="Training Images" style="text;html=1;strokeColor=none;fillColor=none;align=center;verticalAlign=middle;whiteSpace=wrap;rounded=0;" parent="1" vertex="1">
                    <mxGeometry x="240" y="200" width="80" height="40" as="geometry"/>
                </mxCell>
                <mxCell id="7uX397mnJ79mEGuJaPBq-3" value="" style="rounded=0;whiteSpace=wrap;html=1;" parent="1" vertex="1">
                    <mxGeometry x="360" y="120" width="120" height="40" as="geometry"/>
                </mxCell>
                <mxCell id="7uX397mnJ79mEGuJaPBq-6" value="" style="rounded=0;whiteSpace=wrap;html=1;" parent="1" vertex="1">
                    <mxGeometry x="360" y="200" width="120" height="40" as="geometry"/>
                </mxCell>
                <mxCell id="7uX397mnJ79mEGuJaPBq-7" value="" style="rounded=0;whiteSpace=wrap;html=1;" parent="1" vertex="1">
                    <mxGeometry x="360" y="280" width="120" height="40" as="geometry"/>
                </mxCell>
                <mxCell id="7uX397mnJ79mEGuJaPBq-8" value="DCGAN" style="text;html=1;strokeColor=none;fillColor=none;align=center;verticalAlign=middle;whiteSpace=wrap;rounded=0;" parent="1" vertex="1">
                    <mxGeometry x="360" y="120" width="120" height="40" as="geometry"/>
                </mxCell>
                <mxCell id="7uX397mnJ79mEGuJaPBq-9" value="WGAN" style="text;html=1;strokeColor=none;fillColor=none;align=center;verticalAlign=middle;whiteSpace=wrap;rounded=0;" parent="1" vertex="1">
                    <mxGeometry x="360" y="200" width="120" height="40" as="geometry"/>
                </mxCell>
                <mxCell id="7uX397mnJ79mEGuJaPBq-10" value="U-Net GAN" style="text;html=1;strokeColor=none;fillColor=none;align=center;verticalAlign=middle;whiteSpace=wrap;rounded=0;" parent="1" vertex="1">
                    <mxGeometry x="360" y="280" width="120" height="40" as="geometry"/>
                </mxCell>
                <mxCell id="7uX397mnJ79mEGuJaPBq-11" value="" style="rounded=0;whiteSpace=wrap;html=1;" parent="1" vertex="1">
                    <mxGeometry x="560" y="200" width="120" height="40" as="geometry"/>
                </mxCell>
                <mxCell id="7uX397mnJ79mEGuJaPBq-12" value="Aggregation" style="text;html=1;strokeColor=none;fillColor=none;align=center;verticalAlign=middle;whiteSpace=wrap;rounded=0;" parent="1" vertex="1">
                    <mxGeometry x="560" y="200" width="120" height="40" as="geometry"/>
                </mxCell>
                <mxCell id="7uX397mnJ79mEGuJaPBq-13" value="" style="rounded=0;whiteSpace=wrap;html=1;" parent="1" vertex="1">
                    <mxGeometry x="560" y="350" width="120" height="40" as="geometry"/>
                </mxCell>
                <mxCell id="7uX397mnJ79mEGuJaPBq-14" value="Style Transfer using VGG-19" style="text;html=1;strokeColor=none;fillColor=none;align=center;verticalAlign=middle;whiteSpace=wrap;rounded=0;" parent="1" vertex="1">
                    <mxGeometry x="560" y="350" width="120" height="40" as="geometry"/>
                </mxCell>
                <mxCell id="7uX397mnJ79mEGuJaPBq-15" value="" style="endArrow=classic;html=1;rounded=0;exitX=1;exitY=0.5;exitDx=0;exitDy=0;" parent="1" source="7uX397mnJ79mEGuJaPBq-2" edge="1">
                    <mxGeometry width="50" height="50" relative="1" as="geometry">
                        <mxPoint x="370" y="270" as="sourcePoint"/>
                        <mxPoint x="360" y="220" as="targetPoint"/>
                    </mxGeometry>
                </mxCell>
                <mxCell id="7uX397mnJ79mEGuJaPBq-16" value="" style="endArrow=classic;html=1;rounded=0;exitX=0.5;exitY=1;exitDx=0;exitDy=0;entryX=0;entryY=0.5;entryDx=0;entryDy=0;" parent="1" source="7uX397mnJ79mEGuJaPBq-2" target="7uX397mnJ79mEGuJaPBq-10" edge="1">
                    <mxGeometry width="50" height="50" relative="1" as="geometry">
                        <mxPoint x="370" y="270" as="sourcePoint"/>
                        <mxPoint x="420" y="220" as="targetPoint"/>
                        <Array as="points">
                            <mxPoint x="280" y="300"/>
                        </Array>
                    </mxGeometry>
                </mxCell>
                <mxCell id="7uX397mnJ79mEGuJaPBq-17" value="" style="endArrow=classic;html=1;rounded=0;exitX=0.5;exitY=0;exitDx=0;exitDy=0;entryX=0;entryY=0.5;entryDx=0;entryDy=0;" parent="1" source="7uX397mnJ79mEGuJaPBq-2" target="7uX397mnJ79mEGuJaPBq-8" edge="1">
                    <mxGeometry width="50" height="50" relative="1" as="geometry">
                        <mxPoint x="370" y="270" as="sourcePoint"/>
                        <mxPoint x="420" y="220" as="targetPoint"/>
                        <Array as="points">
                            <mxPoint x="280" y="140"/>
                        </Array>
                    </mxGeometry>
                </mxCell>
                <mxCell id="7uX397mnJ79mEGuJaPBq-18" value="" style="endArrow=classic;html=1;rounded=0;exitX=1;exitY=0.5;exitDx=0;exitDy=0;entryX=0;entryY=0.5;entryDx=0;entryDy=0;" parent="1" source="7uX397mnJ79mEGuJaPBq-9" target="7uX397mnJ79mEGuJaPBq-12" edge="1">
                    <mxGeometry width="50" height="50" relative="1" as="geometry">
                        <mxPoint x="370" y="270" as="sourcePoint"/>
                        <mxPoint x="420" y="220" as="targetPoint"/>
                    </mxGeometry>
                </mxCell>
                <mxCell id="7uX397mnJ79mEGuJaPBq-19" value="" style="endArrow=classic;html=1;rounded=0;exitX=1;exitY=0.25;exitDx=0;exitDy=0;entryX=0.5;entryY=0;entryDx=0;entryDy=0;" parent="1" source="7uX397mnJ79mEGuJaPBq-8" target="7uX397mnJ79mEGuJaPBq-12" edge="1">
                    <mxGeometry width="50" height="50" relative="1" as="geometry">
                        <mxPoint x="370" y="270" as="sourcePoint"/>
                        <mxPoint x="420" y="220" as="targetPoint"/>
                        <Array as="points">
                            <mxPoint x="620" y="130"/>
                        </Array>
                    </mxGeometry>
                </mxCell>
                <mxCell id="7uX397mnJ79mEGuJaPBq-21" value="" style="endArrow=classic;html=1;rounded=0;exitX=0.5;exitY=1;exitDx=0;exitDy=0;entryX=0.5;entryY=0;entryDx=0;entryDy=0;" parent="1" source="7uX397mnJ79mEGuJaPBq-12" target="7uX397mnJ79mEGuJaPBq-14" edge="1">
                    <mxGeometry width="50" height="50" relative="1" as="geometry">
                        <mxPoint x="370" y="270" as="sourcePoint"/>
                        <mxPoint x="420" y="220" as="targetPoint"/>
                    </mxGeometry>
                </mxCell>
                <mxCell id="7uX397mnJ79mEGuJaPBq-23" value="Generated Image 2" style="text;html=1;strokeColor=none;fillColor=none;align=center;verticalAlign=middle;whiteSpace=wrap;rounded=0;" parent="1" vertex="1">
                    <mxGeometry x="480" y="190" width="80" height="30" as="geometry"/>
                </mxCell>
                <mxCell id="7uX397mnJ79mEGuJaPBq-24" value="Generated Image 1" style="text;html=1;strokeColor=none;fillColor=none;align=center;verticalAlign=middle;whiteSpace=wrap;rounded=0;" parent="1" vertex="1">
                    <mxGeometry x="480" y="103" width="110" height="30" as="geometry"/>
                </mxCell>
                <mxCell id="7uX397mnJ79mEGuJaPBq-25" value="Generated Image 3" style="text;html=1;strokeColor=none;fillColor=none;align=center;verticalAlign=middle;whiteSpace=wrap;rounded=0;" parent="1" vertex="1">
                    <mxGeometry x="480" y="277" width="110" height="30" as="geometry"/>
                </mxCell>
                <mxCell id="7uX397mnJ79mEGuJaPBq-27" value="" style="rounded=0;whiteSpace=wrap;html=1;" parent="1" vertex="1">
                    <mxGeometry x="400" y="350" width="80" height="40" as="geometry"/>
                </mxCell>
                <mxCell id="7uX397mnJ79mEGuJaPBq-28" value="Artificial&lt;br&gt;Image" style="text;html=1;strokeColor=none;fillColor=none;align=center;verticalAlign=middle;whiteSpace=wrap;rounded=0;" parent="1" vertex="1">
                    <mxGeometry x="400" y="350" width="80" height="40" as="geometry"/>
                </mxCell>
                <mxCell id="7uX397mnJ79mEGuJaPBq-29" value="" style="endArrow=classic;html=1;rounded=0;exitX=0;exitY=0.5;exitDx=0;exitDy=0;entryX=1;entryY=0.5;entryDx=0;entryDy=0;" parent="1" source="7uX397mnJ79mEGuJaPBq-14" target="7uX397mnJ79mEGuJaPBq-28" edge="1">
                    <mxGeometry width="50" height="50" relative="1" as="geometry">
                        <mxPoint x="410" y="290" as="sourcePoint"/>
                        <mxPoint x="460" y="240" as="targetPoint"/>
                    </mxGeometry>
                </mxCell>
                <mxCell id="7uX397mnJ79mEGuJaPBq-30" value="Aggregated Image" style="text;html=1;strokeColor=none;fillColor=none;align=center;verticalAlign=middle;whiteSpace=wrap;rounded=0;" parent="1" vertex="1">
                    <mxGeometry x="621" y="246" width="70" height="30" as="geometry"/>
                </mxCell>
                <mxCell id="7uX397mnJ79mEGuJaPBq-31" value="" style="shape=image;verticalLabelPosition=bottom;labelBackgroundColor=default;verticalAlign=top;aspect=fixed;imageAspect=0;image=data:image/png,iVBORw0KGgoAAAANSUhEUgAAAWkAAACMCAYAAAC+hVjLAAAAAXNSR0IArs4c6QAAAARnQU1BAACxjwv8YQUAAAAJcEhZcwAAHYcAAB2HAY/l8WUAAHemSURBVHhe7d3nrm3ZUfjt3WATbbJpmxxMBolPiA+mb4Fbem+kuSIEiCybnHMGg3F4+1n416r/0Fhhnx3O7j6zpNJIlatGzbnmPm6/9alPfeorH//4x+++8pWv3H3kIx+5+/znP393wAEHHHDA84HeC7/4xS+e1u++++7dZz7zmbuv+ZqvuXvrk5/85PtN+mu/9mvvvvSlL52IDjjggAMOeB7oJXk26V/6pV/6vyb99ttvf+VjH/vY3Ze//OVTk7Z5wAEHHHDA88EXvvCFU5PuJflXfuVXTk1aT37rE5/4xP/TpN96660T0QEHHHDAAc8DmvRHP/rRU5PWgzXpd955pxfnrzm9PYcfRuD0JTzggAMOeJ3QV4xw9qbj28YBBxxwwAuGN6JJ+yh/CQ844IADXiocb9Lvwa5xvwQ84H6wi+Fj4QGPC7sYPwd+EOFo0gcccMABLxiOJn3AAQcc8ILh+Cb9Hh5wwAEHvFQ43qQPOOCAA14wfGia9O4NObzvv4neyXgOXOEWmjcNdnksNvfN8zWY8mYOwgPOw7k8FLsZ2xVmjG/BazB17fgnvkR449+kX2piDnhcWC/jDg94/fAYefiw5fKNatJr8nbJPLf3VDhhXR/wavCqcT3y8fywi7G9S7jCtb3d+QcJ3qg/HE64lliw43tsuMWuA26DXb7uG88d/31lHHAddnG9Nc638s69Hc8HBd7Izx27BO/2ngtuseeA+8OrxvCI/fPDq8R85bHe7X3Q4Y1r0rck8XUk9sNQTC8Jdnm+hhPW9QFPBzPW9437jv7Dlrvjm/QC5/aeCies6wNeDV41rkc+nh92MbZ3CVe4trc7/yDBG9Ok10Tdmrg12U+BE9b1AfeDS/Es3jsM5hys6wMeD26Ntf37YLDO5/ocRDfxdcOzNun57xV3+JSw6rhV73r+FAlc5VzSsa7PwfRvhx9UWGOyxmP17b6+nuNf9YJ1/apAxyV8LHgquZdg1TN1785W2MX4Prm4b46u0Wf/Dp8KnrVJF9xzeAl29BOvwUo3eScGl84m7Ogm3gqX6NezS7RBNOfwdcHOlvtgsK7BLTTX4JqMc+tLeA12PBMfC3ayL+FDYCdn7p07C86t70sD1vU1uMSf/B0+FXxoPnfsgjYxWNcTVvq5nvv3gZ2MHQZzPffBOdodPiXs9E18apg6Vt0Tr52fw3N8E3Z752DK2OFTwkPe8na23orBujfXE9ezYF2D3frcXvtzfQmDOQfr+XPCi2rSBeJV8BLs6ObePNutnwOmTjD1787m+qXBtPkpcOpYYdJ1PufnYEc/98C1vXP40mBn41Phqq914+5s3QPr3roGc2/dfxV4Vb7HhjfiTXrCpb32r63vA5P3Ega3nL3JcC4ml/bX9Tlc6YJLex80yOZbbM/Hh+Iqq3Uwz+Y+uGVvRwPmfvNbcMK6fh3wor5JPwSvwUo3eVfcnZ+DlW7FW+ES7SrrFtnRnMOnhJ2+x8IJu/WkW9fXYKVf1+Dc+hJegx3PxMeGZK56VnwI7GSte+E8C86t70vzKrDyn9Ox4lPBG/dN+hbY0e/2Hvsvuve1802GNVbX1sDeOVxht/dhglv8m/G5L66w2wvWs0u0t8KUsc4vYTDnYF0/J7z19ttvf+VjH/vY3Ze//OXT/634cxiTjnXU9Fb9K82EuTcb5srzv//7v6fz+X+VPuntrzxz/MIXvnD3dV/3dXff9E3fdPfRj3707iMf+chpbR5N8tH+x3/8x2m09z//8z93X/ziF+++9KUvndZ4i3N70xbgDKILVhowz8GkwT9h5d/JuxXUygqrvmDun6OZIK7ko2UjNIf2ob1yaS2OnX/DN3zD6UzOxb3/q/xkRAeSbY1uygVT9jd+4ze+vzbaQxfOXDibY/LOjdEF7U9Y987xrrDSGZvzZYVr8nZARxiIY3EKzO3Bzo3uhDN3hU1i6W6Rl4320Msp2uR2H4Gcu3ff/M3f/H4e05d9ycsWkA10kA/yZY7pDDpbYd1vvfJPYBcbjOjffffdu3feeef//HjuJj3lm5/Tt+5fW+8C0ZyjwDoE8cwmDsWhuX3NWfNwUSuKr//6r3+/oSgMwUVv/d///d/vyzT+13/9191//ud/nooQrLa2BnO+wnpGH9jxJztYeS/puQYVd7DqAuvejmYHZE9adk6fzMsLRB+6YDVpORH7cok3/hXTOffSF3a5O5t0xnKxg0m3G8mf0P6Ec3sr7wqTZo6Q3xOuyboG08ZVNkgndH+KqRwB+2TInbvlniWnnJNRM62hWjsjD9pHH04gM/9DvBCtNbBex86CzlbY7e/4J7D7XJP+2vca9P8nIASsDj02TCNXg613jlxbg2s0/Eu2pHdur32J1oAVj2asMXsiG7/zO7/z7lu+5VtO+PGPf/w0fvu3f/vdt33bt52aAhkAP96Vn0zyJQEW54qS/mmzc9j5Cu2tZzvaCfP8Gu0K077glr0dzSVwweIxhkBMprz1XLzEGZ1it18swXxItm/eJS8m5ITkGIPowmSkL1uA/WDOwbpeYXd+jWcHK8+0cR0n7PYuQXJn7FZwzh4xk2c08djvDnq4FtdkWbtX7p475R45T94c0yUnELRPB5i8gA607U9Y1xPOnV3i2QF72VKMfvmXf/nuB3/wB0/zR32TvpU3unUMdnJuoTkHEloSjICvoSYuQOjMQwVjvzNoT2MWM0Xz+c9//u6f/umf7v7t3/7tROdsFgI7vRmg0yQUoDdtb9eQTRUsSB9cfVwTjyY4VxTrfutz9DvIjnUM7ru+BtlWzoCYir/4rZB8NOIfHd7yBsSrHKKlx165pk8u8IblJlvat44fyvGMrb25DnZ7wbp3C801QF98jJDtoDG4b55AMtc5KDageJUP8W7evj1zd8UIgdGLjhcjSId4u0flR2769eReuWvOZ16yL7/ZVh10D9VCMPVPuLYOzu3voFo14nuyzx3XeOd583UMzsm6lW4C39BxHvJTQXRZ+4ZlXuHAEih5p2C9N7eP/lu/9VtPjVox/MM//MPdv/zLv5x0adwSjRfiq0kroIrBnsb+7//+7+837xIUnzloDNb9c+fBugbkXwI8YlZ8Z5x3e+DcPmhvZ8sK+S4e4oK3B+dORzLloybd5a0ZADzlPR3m3s6+4zu+40QvL/Lh85TLXt40Cet//dd/PeVNAyCvOsmebJnxnT43X8dgXQc7GbcAWrZNrEllc2Owrq/BpG8ud2IAu39i7S3YHTF3j2qKYmivewHEXE7RiLNfsX69kkk+JNcoH+VM/uQ/lEP3zBlbqg06u6tk2GdDUJzXEZzLwbp/jm4F+vloxPNam/Sk2a2DOd/Bej7Xa2D4xllBkISQv/YVAx7zifYguuTgUywutZFeb9Iur3nNJESvQDRxRVSc2WKNV/FABUrG1D9htz5Hc42X/EuAni3FdZ1P2K3P0ax2rKAhlhuxcnHMu9xGspwB8oqVZqtJW4slXnP8eOS5vJQDtf893/M9d9///d9/osHjwstZDdkllx97HsjQPlsBHWQF+br6fG0M1jW4heYSsAWKW7HLvmBdX4PpX/Y0ajbVmJgCufPpUKN9r++cYi9ucgV6EP7FX/zFaY1ObuSVLjmTXzh18wefnLhT+NGSp2bk8a//+q9PeWOLJg7xqgU2sFc+y+PqzzqCOZ+w7p+jm3CpSb+ob9JzDFpPR3c0cNLMeRfck3t+J9YMBEZC+T4RfyM6Ix32yFJgycKPpgIi27niQoNPUShGBZUOdPQnG5iTB9FaT5jr+5yBa+cT5nnxbT5ht5576/k1vS6RehQbo3h6GH7iE584ocvt8volY/SwhH4G1wDEXFzFuPiCLoB98SUb74/8yI+cvv+Zk2Ekf9YN2sYwGyEgN1353dj+OoI5Dx6ydw6ypSY9Yc3Tut4BGvqr5+oWyod4FSNxFFsPw+/7vu875RGNczknB418eXFxV8iRT0iGMyNddPNjovza16zRuYNqxj207r7hR0/nXLdXTHdj82BdB7v9c7SA3fmFbn6Tfi1N+toYzHUOXqIJom2UZAXg0kEXrMsLe3OzF9oLAT2SKEb4FQCZENjHRw4e+4rUXBEqOk/qiqFmRFbriiRb7IH8CFqv+2DuneMDO94Ju/Nrsb+0bn5Nb/EVO7kyuswudRfbHpQDDRz2QIRiN2Pa3CUutmJPvkv86U9/+vTGRo7mTJYzNOWI3dWQdc2nGvH2jQbyNQT5fG4Ecw7WdXAr3Q6yJ9vibT9Y1+cgGXImrnPUiOVCzMTK/Lu/+7vvfuAHfuDUqD0IxRm/2AE0aP1icV/IL8f2u3fyOHNajiF53pyN8kwHxCt3vbXjzX6Ilyy2A3uXxmBdT7gPLVvozqZHa9J4JhAYXoJ5nozGgpU9LgD72oP4ncGpz1lNsmJx6RTGpz71qVORkKVZlpAQfZdOcufZpK3RKihvBopH8hVPWNPoQuMjn1yyFKWRLvxGOBt7cYDmZPDPGpCX786aF4tGsNvbwY7nGrCpcSJ+NpaH/CkGXZIaJp/RurziZpQzTbTm2ZsykIeaJhlkkdOnCj9/0fgF43MFpBcNPkiHhvHDP/zDJ914+wbNPkD+d33Xd53yYsQjx+VNfuXaw4NMdtDJX1A86C534lFM6GI/WGPeGj/Yna97K9AzIXvmHLJlroFY8ElcnIsdfXxHYwR8EL8eXpqLXyceqt/7vd/7fhMWF/kUP7LE+J//+Z/v/vEf//Fkp9gCe/63BvJINhS76gItO3zacKYpk6EBx1t9zdxAtaQ2slc98U0u6TDiIx+NebVQnZ2DNRfncjP3zSEb+JXuJ3uTnspXIP+SgwEZgiFAgPGCZwzSk8zkojHnh2C7WN6QXC7JkRTngp7M0H5zQD87yFEIAE9zBSPpCg6dGEJF2n6XmSw2k61QIRudke+M/gqngkJDduerbeyxDxpB8Qlaz/2VBlw7nzD1rcBu/MlYaa3Z36Xp7bV4iYG5PTmMzrrLJIbJLy/W9jWFfrmEck7nzI+mr5G4+Hhr0iFZbBXv+NhGjlwk15w8+3y3ZpMzNOoiKKczRuYgfybMvfU8/kswz/kSAmfZw8dsAnwQa7bzwbma52e/ZsQEj9G+HDXXjNHYE4fki3X7cqS5aqzO5Zeuv/mbvzntadLdVblAL0flwVqeNF2NGS+6eIAcs4Vf1YnPIXxjg97Ax+qKzHLKXnbNGM45uPVswo4nfXJj78mbdEUQ3Lo2CkqBsRYwGM3UIajGzowKTjFJgILwpiQRGoHECoZEGUNgnMmRNAVnRJ89dKYjZK8YhvTYNyYDDfkKSmGRhza59KKpgUB2oDHSm63lafoPAXnJNAbN13HCjn6F9IDmUzfgB2AvzJbyKh78kxe/blwiF98lLbbOreXR6I3HyHdxFEN5EQOjy0WPS+qsRo02OrGsidDnTV2Tpg+fpuACG72lkUEmnXjkRoMhh1/0oMNbvvhYfgL0oDg4D9c4r+sJO9pL9KDzcmRsDlZbOuefuMhHcw1PvnzKcJ/kEW13DaLnr3lNUNzE3Zm423c3xFlD1mDF1ZlY/v3f//378WcXPiCHxVo9yG358od59Gj40VyO2UtOTT19cu9Xtjn7+OJ+kosXTzU767iYBq3XfXBtrzn59KXjWb9Jk7uD3f402HkGs4uNYUmzb65YoDMFIIG9nUl8hYKWbAlY9c/LTCdaSEf09qGEkg27lPRHD/PFHNCrcBSTIgHoyXVGt9Ee+XyxJpeO7CXXHH3zEEzdoPm5ccJuD0z5YM5XIMM520PAB764nHLUT2G/dFxo+XHOdzT8N7pA4uxiWpPHdxfThXPxrCEQYxfNZZbTLhw+OiB5mk2/soC8uPByM5t8vOzhA/uM5OPp5zUauvheLUL0zuwny7xY72J5Lg/rvvU52hXomTj32JVtQA3xUWNuLk4anpce6Ay9GImnHLp36MlUx2jaNy/36NGI3d/93d+dYtk9ZYcmLZZkoMUvb3yVZ/Z4sKP1qUP8yWILHudy6FwT1uzMNX6y5Zm8HjjmbCOfXn7RY7RXjIoNuBT39ezSujldxc7eszRp8ia0nvvmc59+wTBX6D1dJe+HfuiHThfbXAOWbGc9KY3OJNRZFxKNQnFZyOS0sXPJkWSFIrFddolmh6Thya6aKNvwKyIF2Fos+YEHPXmKx6Xvia9IyOsyo0WX7vjZQy5/0mEE7M0fQBeId0Lrub/SgHWPzOSC5nNvBxU3W9goXuyGcuFyKEDfLTVq+RRv4BxP8TCvQQMNGPbPHsVBLOkE4gzbB2yB9JPVZ47eouWjNzq54h955uQY5YmNfCFLbuSSHfjmg0GNsBeSjw+SySdjOmBxbwxuWa97KzifeUvv1G8uV3zsXskDm/HzQWPW8Hy/d9/wiIHGh9Y9EFe+k+kzBl534pOf/OQp7urXHj1AY/3bv/3bU+zEqrtOtnlNFD9eecUjzvSpDcAO+vCxlXw0dKkx/HLsn+H90R/90Slv5Gn0agA9Prkl15oP6kc+u/uX7ha4dAZa73joI58ee0/epMma0Hodg9aCwRaNVrK86bjENeKKQUIF1OVG48xYg1YQgo62xl4SahjRKCIJVVwQP3oJJK/iYlcNp8uHlw3mRrTO0CrwGjr/atSKuodBiQFssN+TvMIglx1s4I/ipZd8NMYAvaTC5kH7wZwHu70VyIXgHH1xFo/sZ7e5+NiXS5e6GJcTdMADDYqPffLEpqboUvawQyM37BFXsbZvLT7lonzJL/3kArLkhny+kYd3+qkuqgGyPSA0GG+C7KAz3YCufOrikye3RjInBnMetLeerbw76DxfjM2LiRxoZL0l99LDT/ay3X2Qr16GNFYNU47Ekq9yJ790+jfJgWYrB+IrXv3rC3eBHHGzFluy3Hm6yIP22IkOvRjPXLo3GjDofrLbXKOTO+d/9md/dsqZs/oGPdZybiRXXKzZLFbVGCx3E1qv+2Du7eiaZ0PyZ5N+vFfnr0IFEKzrS8BQAVLUXWKjIrJfQ0IncGRzTHJhicMneTU3qIgmzv3oFZNilbzeHMztK1K2sM3Fo0vxKpwa6ymgX00mW40KhI4uuMIxoq1pKzyFZrSGGhGf8Sk6+tjLp+wtJpA8OOEhubiF9hwN/9jM75pUcWMjvhqauZjwS4zR4BU7OUaHJvQwg3jFHQ1YfbeeuZgXrzneZJUvkC4QfTWHds1VjSbb0IkBX3pI8V/++CanM3cT0vtYcEke3epKI1T3fX7qxYb9bC1nxTq7i3G+GMmTdzkFalzMxKU3YZ8cNGr5Q++OiJdz+/SIp7VY46WfDnRGMkH1Mm3MJrTm5UyuANvohNUa3mLlXL7kjnxrOmd9TGi97j8W3PtN+pyBQKAmrnsCVwLwzUC6BAKhAWmOLqwECrCnNTqNS5KNeARQMNGRlbySUNPtMk+d9M3mSJbCrEmzobcG8ujQpBU0X9gFS7A99tdUexA4z2cjuvylmz/e5Nhgjyzn5LCf3i42IMdcfBSRAiaDbHaSwV96VrC37ree+83Fij10kplt5nx1jpZO+3wW934Su/Ri1kUC/IHFNP+s+dXllGOXig6+yplPEmJl9PbKhmSLA162ALaudhk1TDnERyYeb1f0ySc+SB4kgw14ndPvjezP//zPT2+FYs8WNkefL0Y1YF9+6Ksx0EGeWBprAsXanF5jPgVrDsG6Zw3JIBuSQz7d9tW2/MiTzwI/9mM/dqp/tvJTXOhntxzIKR45Y3P/CoM/7qE9tFMG33sIiPFf/uVf3v3VX/3Vab87B/xCcs/JYatzstEbi4HYkAPdT7rTRZ482YP1EvL40vdo9wovn+SJbDo8INgml0CM+APsuaNiV1yN3Qs6JpSPxh1MGjaIdfKf9E36EhRoxgDB5WQGKmBJ60JImuAwVEMzt48P4muORkB725Rsazx4Q4GG9hUsXoXq7cFbBP1k4JXALniXXPJdPkkCEivxbK2xGO1LfD50Mbq8xi6gGLAle06Jee/M/kRn5AA05NV0rMUGX/F9LCB7gtjYq6DExANDHKEL6RK4DC4O4Bt7+YuPjdaQjOJgX2zEm1/yKF7RzBgY7SUTfza5NMk3J9f+5CMLz5QB0BXH9LJfHuXaZdegNBZ7aEIyyEUvH5pNstgiHppDD1mxE8/sMecveraR8xBgQ3UFyC025mpanOWtlwp6Zy2tCNhrXnyKZTaT5S7xU1MHaOPRVPuf14uZffdTUxZXdzQ73CF09Igf++lwv/DQ1a9e+vpkow75l3x1ZY9d7g277EF5QMs28XdORv9r1NnQQ3LziU3VD5jzh8KT/BM8sDOSY9E4l9j0sqFGKXg9LdEIQE3WpZC8eATUuUttjRcKOpqKlO4KydrlgfY0AkmgX8LZmF0wncBZstCQYQztdznxrQ+ECs85fzR1c/vFJ7+6SJDsZKCxh6cGVmzwTHDWGLbejaB5evPVvr15XoNW+C66WNag7TkvJmQYNSKXrYcpGjLRkQnklG/oyMfbw7B82KsJW4sPyE77zsVzPnTlmE5nZJDJruKPz2id32rKXJxrMOqTXrrYXpzw24N4AT609POHb+jtoa8G7HdWzKaca2PQmtwVigk7ampyJhds4Js3T3EWA6CRyycevGKGTqMUm5qhOIstlDtvs3j5KF5ihwfKF9/Yw1d7Xm7QAvLosYe2enCnrOlgs7qrnthBp37AViM55IsJOn5AZ3SRBdGJOxnVHRo2yh87Zp3A8kNOsSr26xjszvGSQ571k/3hMKVkTWi9Opdhgi/RGrSgO5NQyajwrWt21oKCT1GQIaAnh97bD4GgBulUiOQYrRWJxCpYMmug9Jn3xpT9RnYZxY6ufM+3LqAmzIaQvC4kuuzINvzsyS9oDw1+49RDPwQK2jkeZ2DaFbbejaB5csrBtMVcznpzrujZ4vKYOzNa4+ntqMvl8rpY1uSlE9rr8hvZwL+anVgBsUdvr4aUDLaKZUgW1KTJZCs6uSWbDoCPfDLtwXyTF2u5KF9ssLbfXlC8yEdDfz53zhax4Vu2qgvyqq1kXhuD1mTMeEA+0OnOaEbyoP67ezXp6pRPNWm2i4MHZg23mNJBrjl6SCYfxNi/qvCJCF+N1pk7Jzb2NUJyxMd+fEZ66cqHYgnlh+5qqZ5ijZ4edrnjvUSwrRooJvbJQys2RmfAXWZ3ORYr8+6a0T5YR3DuzEgOO5LxLP8EL8gBMJ0A5oIowAImgGgkpAKRSGtYwbCTzVBBk2PPOX4JgV0OYxeIPLLJq+nhrVDJdF5CoLVESTz55CSvy+tM0UC06NDA5vR1mfPBCNlrPCXlq/a3BviKC71kAnRdEg8ylwdf5/Ebw9a7EZjjT0767NsTQwUtX35m+qbpwrMln835V37FhA/k9JbSJRa79KcXH/5iwYZqIjvoMYfVSXYG5mqkOLHbSD697CJHIzDSA8ghs9pBny/Zi7acokUH488OtrLdyG8PLzbwjz3kqTP5IxNffqIhCyRvjute0JpO/htDuvlhHo09zYk91Zo7wB7oTL6NbHKvatJ41J8YN+enuT2+edFB7wEg1vyD+eYBZZ9uOVEjkG5xKX58YbsY0gHZgweYk4vOHh462CHOkF3oyJ533Bq9ef2mOmBXPcE+Wmfl3Lx47nJivu7PMd3kWD9bkyZzAoXtmSt6l1TijYIvQBAd52exZKPgsxnWpNEIJHBuT+L9IcAZmYIr4OnoYmVHhRsd3VDR9abhDA97gISzQfIVFRnkkYMGrzVb7bHLWLHgdWZdUaFRVMCc33yrmNKPFrpgbGOry4B+xrkxbL0bgXmxNs7YQ3a6sP7tev+NBj6KDTvFDk/FzDdxYSd/5dvlEi98fJ16QHnlqzGbjM7w0BPQJT4A3cwR2i4p243F3IhO0zHC9LUO0MsZGfblQgPpLRyyg35YvPDRL0d9Mqgm1AddapUs8UsnHr62RjdHsNsDrckwD+n0cPTGyN5iha76zU/3hv1AznqT5n9/c9F4rfmTHDqg/PAJnebcm7I6DdLPf/T46BYXI5u7c/nCfr/exBON+DgTu+qmGiGfXPzo8KpDNtvnYw8Betyf8kAOGQAvu70EdQfLMwRihQesIzh3ZiQfP1nWz9KkM3wChwuWICoKT0SBM2dH51CgapSMZZ/goqvIS4pg1xTolgAB9YeInn7JCNiDX6LJco4uOfRLiHNN2uVSTGzMFoi2PXYpgrC3RWhNz7Sfzi5Fa8guMs3JZ0dNmn3OkkUuGehcAjaaA/yNYevdCMyrB+OUZc9l9WnKvwZQSC6uM/Fim1wANsoDkGeNXZ5nLOSAfHR4ybcmz0gmG8RjonN1Ua6M4pO9dEOAnh6yy7m8iRkb0o8XRgvoiQetMbvod6GrL0gnGYAM9JC/agjSGy0aI3nkVF/ZQBd57ADG5mDuT5jr/CJP3cmd79DmMD14+NibsD2247XuRcWet14PJ39EBWSszQuNxqzxmdfg6KFXzYtF0D2zJz9kooXmM5aadHTsNCdb3GDgDLILlm9xZpf+APsM479FbZ+t6piP5t0r+a7XgGybOu3dd2QTOeJm/ayfOwLyOVKwBFfCe4uuWCCDXRqXoKZU8OflggWnZHRZ8AumJ3j8FaVEJ8caCAa7XJZkkUG/OTs1GEkijwz85KKxj96+txFFzS881lAROi+pYkKnPb7kO2RPBY2upmC0BoqVTD6gA4rJhSADtG8MW+9GYF49GMlqDX3e8F1PEXmLFodixR9Fzr98JE+T7rs1e52lZ+ZMXsyBkUwgPuKEB7KpmJuj1eSANTuM7I2XLnrpsFcd2YeTB10jXjaXI3T524OzB4azfMYHQU1aTdChNl16POjl1R6fyKAX0EMneeDaGLTOHkgOO+RPk1ajvcnTD+lVsxB9tlm7A/KHRo2x17fr/O0BA6y9QUMx6gHEd/Gnlyz2oBUn9qgRNCCbi2O5gH4JdIaOPHbaww/jh0F3RVz54CHTv9sWe7ksFnLK5mzHg0bjlrdkswtmN6BjHXd7jXjJKpYXm7TNmCc4vxVW2tbkc44+b1UuuOTTJ7mCIThAQMw5L5nOJSQbydCgkmkOzAsweQJKlgsJyVAMnsTecsmBCo7ceMk1Z3s/8ySYfDYpLoXRRZNwfJBfLqNiJCe9ZMXLJ+f86iKhgRJGt/OSD9lnTWYx5Rt0VrNEm10Q/eQhtzm+OQLzeGYexEDeNBuXRKMWQ3EBClgc+MAnsTDSh0fc2cM++o3W+U9vIzDKzYwBv/Il3+kxxkse2mSY80GNWLOPTdC8RkGXNTnZRDeUa+dibE0eX2EXmC8g/9GJDT3qnB62eDPTvPBqDmpUPNlArhcLfGTSRxZwHs71CnNPbPidD2LXH+jlTl4gm+UPPTp5zm7zHrD40ZDHLk3aPWOr0R5Z/oki39wr+2KDp/uWPEgfG8XHfrEmC1q7r/0SQzNjW7yTXVzKIwRsN5cD9vJXHnrDt49HPstND1M4afLXHpn20lv8d+tzI7nVtfWTvkmTcw6ccajkQ/POBJsNGYuWkeyb+9EqYPyQkwXQqNgFUSKs0dZYNRtoD30XjJyCjwegqYDY4Twb2KdYYJdOMukgC59Cyk6+QH6QnyzgHB2kp4binC/oK3KjfXLEAaJFU+GYs49f6TSu0N48a56ddLGPL9C+eLhg7Mw3tEb22mMrOrHur+Z8zjaYfJAe+2RoBtDaGdk1Qnv8tDYH+QqM4lR8INn2pi+w/HbOv2JrzwjsFXu6NVfIRpfZaN85OnJrcpqiNX/ViDzxES35HmBstibHiMZof8VgzoO5ly/k0E9XTRCws5ozspctaNHFX00WIzr8YvI/t2Yvv6bvM2d4kte99wdnv66g2KgleufDoT0PE6Ncsb9Ysrd8pC8EdIcBOjLymUyyvVh5eKlRumdMmqsRvOpM7ox0zboA6bvPKH7lyfrJmnRGTph7nGIMpwVa0jjXRRUwRrHDnoBWINnYhZRIcvAYARr76ObFSbYg1zQUBz7yBVzzoLu3HPrJYiOsQLJVQbps+Mnpny15+vIJSn624cHbGWCbi1iztk9HRWSdroqLTey0D+yxwXnxTYc13vbQZYc5IGuOwDwac2NFWrxdEvPkGrMbdMlC63JINnuhOZz+5EuXAGQLMKIRt+QA9NOPaZcxWWLIlnwwqkd0+Rvmn/0pR+5mk1YLPYDI5m/Nx5ufPWfyHQ8gUy1WK9Zy5uVC/WbTRLCOE+YeX4tzv3r4I1bsUPvRsZktfZaxFxRHvOXQPfEdlyz79ox87c4Y+VZDJttYM3ReHqAaw09/8UNnv/iwy8gmUA2E7GCjOERjD4q/fXaSAatntrCLLmsjG+yJHUTPXzkq3+TB6qv432csdtn9bN+kMzpQEJR2KQShoocVMhAIQQAVSAmQJAkVXDywoNonq7cVPOidR49O4vMbrYJ1KbwdGCsYdAoFrfiQxy40Gjo7ya1Ju1z0oXc5yZ+FU3EAMtCXbOA8mnjogORAe6ACq3CcVXBi1kPAvrXY4yW34rU3R2COZ9oiFuKgkNlNBru75M5dxgraz1OfQ7wZWbNJXPDkR8imfLImO73iiI+99oLqA3ZhIMBf7PiSb/bMySJXjqsbcXMeoMt/iDY76BZX+Yc1aHRo1EyX3dp+jTd68sVSTMUJD1rgXB3SwT4xmX6s8xXmXrqNvkWzi5/VXfdEHvnGnh4a+cXf4mndS419ssWSr2KEnw5vpfKuKbsHZFq793wF8gvZFpQzsXAWlH8jndkDzSF7YDUUWHfGRrneIT/Yz5f5cMkHZ2SIl/ixwzr9E9b8GHd7jfj5l//P0qTJm2DNoS68ZCnAaZi5gEKFAJ1JDOgiSHJF7QwKqkCTT48gaibmFYZzgJ7PRvJdiP5rZvjI0GQkRqJqMIC8WdyALPy+w9HJFjrJkEh6FAc69vPLG/ef/MmfnP47EN5G+lxidAZnPuikjzzARnrYZt5FFlt7/KqYnCXLPmiNZ47AvKKBbOePy2eE9sgVMw84uqC1OItXF4I89kNAdnk2Z1N28W/u4xU/PsJsq1GglwsPpGTCeXmmfFD+2cbGmV/+ps8eRFvDJY8ufspRb8XswUOWmqkRsa88QLR0OO+tEn362Mkv9YSPLfwJ+A/X+YS5V6zI9s8lPRDoZwufyGYjGvtiwgd62eG8GBqLLayea8yasDvj05bPB/yC6lScyQRklU9IRjY7I7uRbUbn+I3FI3uM07YgmfZCwFd5gNWlPYiH7moAznm5h+oOD36y8w+kuxHwE6xnRvY7p9v6yZs0WRNaGxWLpEmsxDGCXgFgKGeNOX8y8qvOW5trEmTgg2RWBHQIXm/G5HQRXIwCgTa5miOk2zn5/vrtEuEDdMRrBMaapLdofyWmEw+dkC0ugz10zn3H89+1/eM//uPTRXcZazSNUNHRJwbm/Dfmbw8efogZOvvs4reLSDYeQBZwjhasI2henMS6C2hUL3wh1yViVznjH34oNjVAazxo0OKF5tkFyILFwhzgJSfeYiFnZEJrsnay84XvyZpNWo46418YbTFmk5z1MBXfbEZPntoWMzagzx6ApgZdfRVvOshhqwe3/ImvdTENwZxPmHt4xYhe/669b8H2+JXNbOoBLBZsSb64VDPF0xw/5Gu8NWuxJRsWOzkSDzHDVy7ZApvTET0E8kAnGuf23fEeksUXTTrZDNCHfBPT+ZAV59bql309HMglk36IVu7RR1P+6QTod2P27M7565yN1q/tmzQnJEegFAW9dNo3Zyh6WICc4zEKhBGvwjo58B5vl8wcLzqJM5Lj0tQ0yUKTLeQpKKMLU2Mxr9DYhbbk000fuWiAt/GeropU4bJPEeDF5/xP//RP7z772c/efe5znzv9l9ScK4qaklHyK7yKj32KpMbCFqM9/lRMkM/4ySXTmg8VAp4A/RxBcshEK969IfHNW5JYdqGzg56KnE32+U6vSyUf2UF2c7QBvfnjDLAZZiM9kE57ySAfTLnO4y/f5V4MxbP6QesMrnaQzS8P8375uLA1EfKSU73ZI0Mt2K+ZiaFmJq7VDx10qRE8fe6AgD1ha8CfFToDzouDTxD+C4WatX02eVDIp1995Te7imc6yGlsr1jKhTEEaCDdxVBtG+2LXWgPyisQC2sjHehrrtCvVr9E/Y/V3CE6+MN2IxvKY2gtnl6m3D3/PtpcrOXUJ0v3k+zQHn1sVC9sqJlnb0g+oGs3FrPdufg4L1fP1qTXNSckUxAhvXTaM5cQPJDREI8zxgqUEW/FLRnWLgY5gBxBa8SvyShI9OSmk3w/AV2wLhY+egI09KF3jlYxwHRInIYIXUQ8rbPd2/Yf/uEfnopLASgYZ2KA3jjXCoKtIL01xGjQo2EHELuKnnzNuligQ09WubGeIzCHeOjip9j1+af8iXlvT+2LE5328ZQXNtAPZ36zI8g3Izvh9NMZWficWSdHrJNdPPDhh9EnWyxrrObRA/zi2EPT3MXUnKHGUH7w8FMTJofvvsWb09uZOJpDetkAaoh0aQpk0pFu/tIRgkb+rNAZmPdKI9ak/Y+QABv7NCFX7GNzcRLPYMa1eBdj0Hlz/JD/RjY5j8Y+SBbIP3L5XJ7RGsVcQ9WYfSb0a9RcbsS3v3/IZ3WUXDIgGR604mxOLn9DNHhBvtonX97kBL+7RS8bG4v7uXHas470OGeP9YOaNKaEB3gBB3PMnLzWGVKR1iAVqFGRViA5jjd99gRPsKAiL3CKyxm6gk2XgJKhgRjRSCI9ztDgRW+/IAHFIBnO7OGPlu1oJcpT1ucLl8nFcpHJhfTFqyAUlAaNnn8Vk3OIJzAXF1CciieZ+HqSoy1O0Bl98UfnDD+7+QDszRGY00Gfi6pYoEueDWJRExZPWOOWF+fFKdnsFNP2ssuazfbKM14jKCcT8LJN3AH9M+bkFBtgj33kJpteKLZs5hcesuWHbHUCvTWzvQZtjY7eaqo3UXPy1YoY8asHbH5DczRo6fAd2j491vR72yteE0EjOLfHf36phd6WfcrzwO1vDHLVnWIPHnYYxQGIEXlqR9yLK9uLdbrpK7bO6XYmB/iMcmB/Ipp8xQfIJY8d4uNN12dC90x82IlWnP1hVKPO1nw3J7+7zIfeoMUZvxioXYCODPliT3tiZS3/YuDFzB7bNP1svgZsCNiWrWQ7s35wkz4HKQPJai1InFAY3lgFAHQeCKrgc9ycXdOpLlRF5eJ1+dKPVxL7SYKOfjrRoquQBN+YPentnFyNGA+7rRWOPW/GLpFkZzd9dFmbKwZJlVB0+PCTwy5y6REbe+yxBypQMOPpHB359umD9p1nP+CPQowWokMP0tUI5pw8l5vvHnb4NChxtFbc5o3tK96KnB81HT6SIadsdAYrzhB0hm6eoWVXfKF158B8xgdPtOYQZE/5g+yVKw1T7nogy6W6cs6uLrT4iAEQc/KcN7rU8q/RGOkQC7zQWlzzOaSfjOk/uDYC82wQBw1MM3P55Yj/aJybow0B/SAf2BiduZiIA7ubw5q4eJq3jwewhe/VPP/FEcoFm8zpFWufIvzydNeM8kCuOOPVnP068Dln3m/6+GBNF+zesJdsMthTHsRILtU8FC+x0rfYKv9skEMyPJTJpYe/gL5z4zoPxYsd5frRPnfggUFrglOYcjo4y2lBEBBnEyWSowJXgKE1IEdzxg8FKNQQBAtNTldsZEkq2faBM3IF2si+CsPYGyJ6iWGvtw9rT80/+IM/uPvN3/zN0+j7lkJVPOSRkS9oXfIuOtvIJa94K8yKtWbCvgpRDIpt9pFhXvEVb3z4yaIrH8WgvNAR2JsjMCcr+7x91XjZSaailUtxcjE8cOh03tqcbYBdkExxgRW2WOVLOsu7c3xsYnd8YXL5nM0zJvnSeWAuJtWZCyuHRnnUGDyENVVz+fMW7Syb2MNXzVlt0KepaibyDvFAclxusvDjlcPqDrCDjOxmGz771hDMcbcXmBcT/tPFbvdFLsWoOKiRfOSDmhf/aNQiXray38uHTw7+WxdsFBfxK4ZojeRWx9lS/VlX67Acde/I9OvT23MvQzV8dvHDv1j5uZ/7uVOTVotsIyN5dLEZfXob2cVffldXaPGiV89GcWS3ff6VV/T+EKsn0Skm4FxOjOs8ZCsd5Fg/SpNGHzRvJCenKOe4S+vJJAHpsU83GgETfAVjTRZ+gbCHR3Alokav0Kx7sxZUl8aei1PjkIQuPLn0QmCfbrLR2ieDDjJKNF10KjpN+bd+67fufu3Xfu39t2lJqyGzu8tvj1/kkEtGT2X22OebZKBnD8xvstjsPGBPPthPHwTkKa7iqrCyobhWqMmd8s3LpblYiKV4yJ/LYS8/ArR0s58tXSh+AvaWA7YU+y6yMX6I1oi+/LM9PdA8BGhg62LTGC8oFmwRb7aKlVy6cEZ2oUGLBj+fxUE8eklQO+jwaMZGTQVqzJoewNO3YA8+fN0JutjAZ8BeDbB1PjWCfNmdrXtyKAf+BiN37gm/xJ2/PsX5o7YXD58U0PIV8k1c2Yte3WvQvgvzVWyKE+AvX/hQLePTeD0ExIVO/kH3Bj1bNffulfsjJ2JTLYih5vizP/uzdz/zMz9z+kOoWOJNDzp2u3PuQvlzVgMWO/TqzEh+ej0czNnqHI94kMG3/CBXvsWB/2CN+xzXeVgfIM/6yf9wSA7hjKacfAXiDxRdNIgGreAIHtqMzRZ0AoNPoCRIgRnJtZfMgp0dZJnHTyYexSmpEihZnbOxxu5MUshTPOlXXL4pK2hPeAWlwOjiBzvQ4YPO2YCf7mLNX4VnTY8965oC+oDdZBrzrbH4hNZs6cIrcEVVcwTOyQNyMEdgjra9mrEHoYZi3QOS7cXG3MgO+l1CsXIJ2UJmcSYPnX1xEyeXPdvZWz7tBdUGOUY2hnwH9JiTS0Z5EQey8qt4WBcP5+jZhae8qTf+qY3qBNqfcSgHbGtOvvN+BXrAqT9y041ObfVgKNf25DCbg9boQOtJZ55+dF6SfI/+6Z/+6dODwj4/6dBw1XRvrPLBxnIOyIDiw0Y1rJmhzV5IrtEe36A1PjzogdyYQz52J+hXMzXI6gmqB583NOlPf/rTpweOuwqcoU2+fEAxoBs6t1etQvPQXc438vgi57348aOa6uWPvWzlL8BzblznoborhtYPbtJogznvAggCEBx75CtoRSIoaASgwOV0UPDALPoKvQZLD1lsQFdDUnjk4yPHvADgSUYFmN/mkoEn2ewiU+I0HUUpKZ6kiqHiST6QVH5DdgXkAfbgcU6f2Jj3xkB3dhVPvpuj4xddbEs+Wvt8F09vIAqNTHaiQ5OvZIJsagTmM6/9NFakNSaxM7IL5Cub+KBoXXg/iTVqdvC7GJNjjY8Mc0WPj93VhP3qyGjdnhFdtDV8+quFfobbQ1csIZ+M8sUfNqkr9eqs5py/0fLBmTUeKGbW4mukRzzYjYdcNdcvQHRs6qJDtvJd7OnA6y2N/eegfF7KI+SPBt2/7uhOssEbY/9uX42LK7keJsUFsIdMSB4azV3OnM1coMl/8uSGHyFfJ8oVOe4WGd1jMpIpjn61/MRP/MTJF9+g5YZ/xZIMoD6qEbzVDGQTHjkSB3LljE/0AnN+k1+OxQJv914v8FCFbMQDysFuXOchueLJLutH/SY9gSJCkyPAaASBk37i0YVG4DjLOQGc+gsYIMO5gNoTKEVO3mw0flIqMChRZEsyuewih05z9hR8Mq3pcDHss4NMvHgUlQLQcCSGzel1Zs0WBWCPHGuoAIsDufRNzA40CoQs9vCTLBAfqMgg/4AzMXNWAYkDWWiM9KNjU/6BdQTm6CHQXPBqruyaSB7b6akpskE+NJjeiLoompX8Ga0B/wE+Dd3+9NOcLeazZujka29gIRp2yBlkl70uJH3QXK6yiX9GfkWXnzVecYDF0D65bLRvzxl72cVv53T0aYRc9otRvzL4hhagZxc/1Rw554AucC6P2WLsDdTbpzjRyQaN1q9CNcMPv5TcVTZXn8BZPrOPTM09PvaWZz6Jufsh/jVQKDe9raPNPrLNySLHqLbIBWzyDdqDxpydcuKcTC8mbJFHvpGdHGuy7bUPyqVzdOyzln++y309S8zUtIeaxiw33W/xIB+Ug924zkP66SXD+mKTThGY88Deut+aw4DRAkGBhJJrT3HQZd25QrAHJFZg+saX8UaoWGoUziVIYPH1XUvQKgwjfjbMxJBDj/38sdcaj8QrIrLJVcx+DtqjV1LYKXFsM+ItoV3okm/tzaR/a6zAvFWRg56+Gr49NOyxFrvkdvHJE0e05mis2aHQ0LHdyC62oDNnD9od0NHI9uz2qUqMijs52YiO7YrWJTE3yok8FAP7NSp7IHv4wYe+A8ojGyB/0dNdPPhGHizXNWQNwBoPerlnO7vp7g1RTKsFv/L4AthDJyzGaCEa+umC5uSiY6u5kU429nDAR1cN3zkfYf6xFfoUIV9yp+ZmkyY7MC+P7a/n7KOrmlJ35uQ719j645+YAQ8qcULPx94W+aZmg2oMLx+cAzVobg9NORILZ/bZJM7sa7QHzdWFES8d7r23Z+g7NL/5IF7k1TDxizO78TpTT3TTA/CQGbLJiFftyAX5cqU25I89ZPAHjb9LkW1/1vLMQ3htDdOZjCf7Jk0gOaE1maGL4KIJLrBHdwWjeLrEmrd9NEaFLfHmgqfYJENgJUPQJENyKgbJ4DzZ+CpSgaeLTJgOI7sFv+RLLJQcxWjEQ4bCIRuiSQ8fId+6tNYatLcZ/1fxUMHTRxcfKjK0fAOKh2xyIVnsLB6Qj/iMbDavIGcuAmsyQPvrCMhAJx/Fm0+AfvvoxVtz9Qen/tjDF36xxWVDL/78xscGZ0YyyaaPv+RpCvmOLiSLj+KFxsOTPhdH/jWDdBcXUL7VlfiyG9Itl/bR05dO62qD7GKrttQZPWykS3zKER52VkNsJZOvgFwyalw1CLn0huhtF58HnSZtvsuP+bk8AvPqA91sOsWFX/SIIzvESV2LEfuds5+99jRwQDZaMfDrxzk99vmJFxYfPjSG0bOtWjZnS7RksdmnjR/90R89xYb94imf/KCjBwUgg11yxP5Zi/jqDdlhzUd3Wz7M5SYae+rLr2ixUut8JhtPueMLBM1vWcNyxF/rZ2nSgT1yjS6nREsup+jt0ihucwUCnZU0Z9YcgfgVCz4BlgwX1bziwwejIdObvLcU/NGQiyZ9+EtwxVljkDgFwZ4KXnPhr300ZJIPp2yILnl89dCij+2KjN6KDz1ZCqUmRxc0zz9ABjq8oJhD8TqXk8B6N9IrJvIG+YSPLPZpTGgVquL1NqOYNU968aJlHz5N2lss6O3MmRhBtEZxd1HFik9dFPFhk3MXpMbcRYRsia/6YTfdYqcOjHJY07aHpwtqDLuo7GQff/km33ic5as5+nnZzdmMJrTGj6YRiqkm5EEmNn3TR7/mBpiXx3Pn/Iy/+hFjwCc1LdZiyT9xUtfAnrzWsMTJ/an+yBEDnwDcFzT8A/lKJgyyzx7b5IY+6E7JhwcVO6zp9DLj7rovao5usvGLn7yLFf3kOq8OjGj4Kg7umdiqGTZD62oJL3qysjUdcsRONsu3OFRH4kpHPMbw2hryh272Wz9Zk56QstCaMxLLIXN6JcXanMMQbYXNJnvGLgF5+IHA2FdoNSlnEB/ZkiXZ3mR7E+jSCTZd5JNLlstVQ0Yn0YC8Ch5fiUKHnh5nFZszF05h20PjKUyHN2pvBorDrwCXgW/ZLB5k8amCVCD8INde5/igOTq82QfQhgDfzLX1HEHxJo9Ol0buyBADsaOHzwpdERuBPbrJQIeHT2LvkjmXL/Ro7NFBHh301tyg+Nb0yo9zPmcLkKvyKEbFUS48ZOgx1gDsiymddLAL0kGusfqqHugs39CZuBcv/OxDh5fvxvywjw5OGnN+iAOb1ElvbHh3OTKnt/kcgbk84AfiwW8oLuwXR81JowL0y7l49wuFrfY0SXWLF/CHbDRk8QGwKb/4FAbm9YFqS26M1nSIQTXj/tCteTsXbzLYJNb0e5ixmV51ZV8uyis/1Wh75aERH7nO2a0Rqw8xtEc2ff0CFgM22O/lwPnMQ3htDekUNzKtn7RJk3MOBKFCcYm6SALSuoKtMNmGpiBW4AUWFBxyJHEm3CiQZJOFlmyBT4d5wbFXEs3ZQ1dF5cwaoBcze5LEHjZoBIqMTr6Soyn5I4vvf0DReTtwEVxGMshnr8JUIF1+6LKR5cycDWyjE9LBh+LFz9mkyYKA3bD5bgT4yOA73UYyiglkP+zC1xSiQY9PTsgQBz8b+w7qnK/Zap5f8uICwOlvuqc/YsR38ed7+SbXnriJtzd5l8y6RgD6JTMvsrrpTV09lHvzaNhEN7/wanYeuHido0WDXozsgfLEX/aRQbZzfmk85LFLPHf5ye/mcwTm5QPQKS722ERHTRqiI48NzuxpduTInU8O6hag5Y9YFw971vSILR7+rWhfLrw09R93gubQvVUzbBWb+NgtNvbVurU4i7l66g7aM6I1zrrRwMtdozPAdw+EPq14WLADP5/8yvE9HI11eeV//XPmIby2hmThrw89y5s04Y1kQ8GtgdIpyMYKR2LRCa51zQEKMFAIXZjoFIYEcfTk1Ht7RuswGyB+icSP12VhAx4JI2tespqm85KcnmKWbrbykV9koa0xuXTOfvInf/Lux3/8x096NWj76BWtJiIOipPP2QbEQwHTU0GKBz/ssYGcCrqiqVjRogHZ7Xw3ipN5sWQHm8gyL65sh+IExRPSJX7ZxAfnLnbNgU18dTGNfKOPbr5rEmInF2wgJ9vYAfPJnH305HejuMmhPzrRYc4HSCb+/MUjfs6s2QHZSgewn//m+Us35AN+cthk7Zwc8x4Y7KkRoCW/utQcxa8HGT3pDszP5RGYZxsottUlHfIAre2zkQ3yRK+97Ks++V3c7Xef0NKZv3QBIyxmkGw0sDn++Ix8E8dypkboo4MMeugWJy8K+MmSUzZ3b6pJgMd5KD/6Ed+8qWvA6tGIp/o29xbtTIzoU5seEHxnM7uKf/Nb1pA//E3OkzVpMgDBje0Bb5ic9yYjgM45L3CgBgQLIDRnG+SMBBrJhtZoyCEXD7mdS5wxGZKqQIGka5zOJVzBOicTsEUCySRHg3EO6INk5msXVeLmd1py6fJPiH7qp37qJFPD71uaAhQXNEDB8VFM+MYePnkI0EOeYrFfHNEb2WqvuLK7RoO+WARoYZAvZJnj66Lat0cOGWzvcrjobLAWIzqt0aPjr4JX2Pid8VtNuIx8K5bOyEsmX9gD0bADRG90hq61uEExpAPyIzrYRcYD7PGTPXRkA5/QkCe+5NuDfMHH/n4J0UkG+UY+iAcZzjUEF14dOBcHdgE6ap4e4sUcNAJzdjSfI2guN+ZsYSd50D67gH007VmzK7/M1Sd7y4Mzo4blYeKhKu9ikl0BmXQaoZjWYCfaEx9yxUG+6EmGWNs3n7nzUCEfbTlnd7aiF//W7IPk01d9+F8v4gVkqlW8/PZP/5y523xWyz1MwZqn8Noa0sGeZDzLm/QEsoGfNAKhWQtUOjNOIQDrGUzgDE2NKTAXJBeLo0CizLtA5pzlp8SiF2hrCQIuhKQUcBdRQpyjg2RViIoZ0JW+mhI6jVkDxqdYPAggeXzSwL1d98bCfnTsZAv7yGWDOCheZzVK59lBHr/oNmc7MEfLni6FeXEPyF1HsroE/CoewBsEeejIE2c0fDEqYD44owey05mRHeS5IN7MvE2KizkefgPz4pwfzsijW1zElxzy0FYzRnvipbloiuIbb7GKHh3Z5PFT00THVv61TxZMFjB20atxzZpMtrFLPKod9Oq5Jug+oGNLPnmgiac/yqFnC2gE5tlw7pyf9NMjHnTSZYy/fTTizAb+80kN8AMNO8XRmv/lxKcGf1eRdzarDTrlW/xCvjficy623VM87BUrMsyDbM1etPxon97qupdBtvKBb4A+c/EN+SGffW7hG93up/ur1ukgSwMnj73u3/SLPRAtMIbX1rB65IP1g5s0xgAfBBKaIgmHAmPfzzuBU+j0KQTgaSQoAo4WchoIqKChR4Mn3WRLrCDZI8fanMPm+dTnB3PyJCW5RvT4yGerES8ZEpI8haAQ2YeeDQpCk8HHdk9ezbeLTSd55mjI8vQli82A712Q6GFNke/0VRTFkE1dBkh2tiomfNCaTgVnjh9fQPYcAXnsdWGKGZ0KWV7It4bOXRy208cGc35BfolZPsoHGeTj1dDEMTq2sZMs8YTFvFiZr+iMzOxiEzvZ3hywDz0wohVXvJoTtFfcXMjo1LCfvWhqJs7EtIvOPvLw9WupmqYDohEjvqqF9IqFOJCLn3722gvpw2uEYB1BdHTxRazNvRX2kDHm77x71s6d4aNXo+I/WeKpxtn567/+66eaL3dg2jttzh4+GaFzsujHb01HzbDGT4bYVZvy7Z6gSyd5+SSWztW9u4aOXvUnX87Q+QatRtiGzh9r/f3Irxjg5QHS2d3MNnapA3kq9uwoZyDfmzdORI8Gj/WjvklnCKAoJJw8oyQrDJfEnD7AUU5KjD3Oc5zT5l1kOgQfDXn2nNnDSw++qR+UMDySUrChfedwymSfAqQf0O2tWBKMkmgPTX75tqhgaoRo2JBt7CZfcXmb8pRWCHxPF7qQTenHo0mJiTlZNRt7mgE5RvHExxbQpWFLhWRORjEC/J8jYAeb0fGzXwEuqdEFgOIqlmSKC0yHsy6KS2dOZnzsTLbLwm+8ZMint0gonvzji3gVJ3LJoyufi12jc5g/ZNuPp/xXa6E98S6G1nRnOxBTfpGlBtQCGjl2weUZdplBTY9MdB764uchZcxGuuXLZwR5tRewZWJ7cwTm/G6P3VCzZQddbOmO8JVe8XEuPkY8fHRv2EmmM7nSnH/7t3/75IcckYO2mIlvWN7s002GeKG3Lm/lhIwedmwTB2Ny0YvL1EUOeXzim30PSiieaNSbXBkh2vLh36XLnTtXLNhphGKBng6+4JNbdqmF++RpoliSh9/60Zr0NAhUTAwnq4ArbG8ZnJMUitFKgEJHX9JcSE9O/ILMNvTWaIz2nHFM4MkQYEGC9vG4eJKh0GrM8ZbEOaKXCPxsE3xIFhslAr9C7a3CdyrfmfnFJ4CGL9Yae8UoNhJv5Asohul0nv34xULjpxstWezlszP7ePIdn5jbKx/k8UOxlxv7aIPmjRUlXvr4rKD9IuJ7Dzu5FTv+oIVk01HcndHfhYifXDEv9nggGeLmf6rsYcbu6sWc7+QVL2ier9MOI5/RkG0uPuII+YiuOit+Mzbst2anBxS/kuXMWg24wHLg7xCaq/yoT7LJVIvovG3jrfmww5l4ADL46y74lFAeg+wM25sjMKenOMiVHPRriO9sN0fDVgjY5Ezee4Dg5z8+fovp7/3e753+34aqLfvJVvPlt1wXd3N77eOD5STb5XnmW7zEPnp2o6ULrziX3871Biie6Nxbb8/qsBced8wDR72JQfVCBvnpTq8zeSHXi4SHcZBNwBi2bpwoP2TG++AmjXYHq3HkGQVCQDgngIqwiwUZyAYBFAhBkqD2jGhAI9kugQAJcEWSDXjoVZCKhG68ztmQv+QrPoVRUZDFBsXBTsgu/IpckjUZ8is0BYAvm/kl4cAFVOiAHHrohmxhGygm7LdHHh/JZq898kFvaAoFkEOu2LJzxsI6v5wD+7eMeF0iDah48r8LL7YuBF/oTHeXid/O+SDG1vjFhFz+iJ+YFQtx8DbjP/hjFJNqhk+QHiNd+d26MwjskWE9Gx4fYbY7M3bGHjazEw3/xcHamT1zsVAP9sR4fu7iF33mXlT61SUe/BE/P7V9MkOj5sSOP2SpIXvZDLI7bG+OwJycYiL2dLmL/OJLjTfb1RsevskvrEnDcga8nfpP9nqgsg8P3/hMpiafDHroswflPHl4oHW6yGAju9kTliNnML1sMqK3z3dz9DV5/PKk/mrQ6k28+aCP0MsmtooVevP2+WEuXmTLI146yF+BHWHrxolsZT9/rJ/kc4exok6xPSghffMBNSNOmQM2CBi+ghov5ATAJzjQTxJvLAKFHtBPjkBKtqDSS5fkKgY0mjA+csknT7LohtnHBsWLl40SrOgkjByJJUOi0Jnjt++CuXz+zWV/GRYjyE92sYe99oB99rCbPewgDy06OkEXAziraOyhM6bHPtvEqCZULgCadexiQzbyF2quYsAXRc7Wab9RTsWW3i6reNPvcqgFMcwf8rv47Oo7bv9Tf3LYA/kF2WUtR85hdQz4QBa0F20xhewkp1iYxw/IgNWUespf+3y1th8tHWTbFyMxQ8dfDzix4JPaQG9PbWjg7FE3/DeXdw9jsdzZFbY3R2DOt0Y6/BLyTZ0PNWijdbXGBzwaVDR8FN9yhdYD9Dd+4zfet4+f6NDgKwY1Zli8zI3ig96+GPW3KzrdYXbLnXjM+2kPVBN05zs+8+rXvPy5j+qPXfxwVv2Ye0hU2+bqXRzwQLZWR+5Ub+j2rNlSrsgL53rOw+oQr/WDmnQGzLE5fsFKjn1BlAgOC5S9glLwjfiAkbMSgbbmYJ8jLnoNx1PfnCOKXREqwP6ntf00lzRAHjlGgSWDTc7ZkWwNpTdYc5eGPQpTclwkb0t+1vbmgcbcg8MF7KKxxX9a0b+NZqM4SLaCYQfeEhT0gClpaOQIikX2sh1NdGJqzwWwZw74xRe2V7QwaD73Kn576YYVKzvYqGjpCa2LE138heSxQwy69NmhCRr5Kd4atG+DvnPisQ/45ALx36UuFiGgky5jKC5sAjWiaoidzvGXi3Cu+cZ/tlrTke2QDOfkiAE7jUDz6dcUmf0PedCrz96u1RXf+e3yqyVrdspFUNzC9uYIzMkVN7rUon+h0Oc55/kExKIGiEdDY3sNNl/xqCd1/ju/8zvv31U5mbVRPHaoideojeIlPuKhSVdb3fvuJxuNoX2xN+Yv+eYhO8gjn2z28YNsfhrllw16iPpkE39CMtnhwcRv+ZMnoxem7Flh2hHu9slmS3fuUZo0mHOgAMkgGDiXcE4KkNGZoKJ1JuguDtouhQsk6AIpoGRCdBWvy4wXn4CS7yJozALt6ScxEtAbTAVpj268kmPUYF0SSYDeYOiyjz5f6LTnTCNWrEaXqaeqpPGDv5qzJu1tSWGyqcKn+5SE9+SzLT1sVBRGfttXOIooRCeOzshBK37m9OYrm9kEa1Rk4i9PwHyuOydD4ZMLe5uwb00WyA97fLdGh14u0JPZ5WQfuvSw3WXXwPyHmvo/VEDjDI1awEcH2fy01yi2zotZCMSBDHXVRZ8PZDrEyL44ocNTneAllz3OYfZPf7OPj9b0s43fcspHl5sN8qgWNEP86lotsYstPfCzIUA7sb05AnN8+NmhSatDyDbnM4cAnXiyl13GYltc5bIGpe7Lh/unyYoBGfZCMsoVFB9IfrVtTU+1T27xpBda80kcxcgof+aADnQg/wEZ5BrLq3M+Gelzzhb85bX6k2/58PIgJ/Ufo3yhqR+lE5C94m6fHrbgtZ5N+q33GthXBAdRxgVzHqADGRMCjgNyOM1wjUTyFIakO3MBBLeLIgAViiTQQeZsaBJLnkYIyZB8SdYIyDf2FAbkSh4b0LKppEisZuxSZIckkG3Ol4oSSC7+bDOH5vjJkeCKkV2ak//hircXDwq0fCAXj+/pitzDgU4oLkDBlA/2ioE9dimM/ljRhWAL+9EreDHgv8uk8dEhDgGZl8aKht9k0S++3vr4wjcPQw9H/qJlGx2KlS38EXf89sS2S8s3Ooqnc777p0/+EOWXCqge8PCLPrrEwpl5QA79akOcrfGyy1o8jM6boyFDvsSQL/TIpdozp0tcIFnx4sNjZMtsEHxGTxeb0LFFTKpJ9Oi6F2pS3CD/Paz8Ya7LD7IjTJ/5HIF5vqP7xV/8xbvPfOYzdz//8z9/2nfujC3G8sc/ducPOv4ZIRo1pXYh/+2jh87R41U/5mIoh+3PM3NQPaQHFO/uh1j0MiVO6AE5atOvhGoku9AUv3Q4y57qxKj+6HHHxGTysMM9t88fvooTe9Q2nvIN6Ghsnl/5GJKpRsrLu+++e/fOO+/8nw+v2qSB82iMBHKEEgGoAATNG67/TzKJIUOh9tbgcgo+x9ngnDxzgSDLHlmaG1pyFLcm6A3BX2u7UM4lUPD6D6+AGo6mJhj0s8OFEFx87J9BzhfJtCaLX9b22YlXgsimwwNDwfTzkr78xlvcWvMJv0tKvrX9QBzoApquP6h1OfirwThXKMBa3LzR89+TvxjQy3cFAfi3G9kG0qFhacyal18HdHhrsl/eIHq+iiUkpwZlnW9iXBy6iOLo4cNuvuDhF/5kWxeP5tlcgYeADPv0lNs13pBt2S6PfOWfFwz3gzyyIIi2JtPaiJZt6VSLfMMrL2JHJlp7/LOPHx3/NYtf/dVfPf1hrjsFpm9GupvPEZjTUT3/wi/8wqlJ+39mqQ7Zj44dyTOnU9ySP/0TL/cGvbvLfvNySK4RrTOId+aRbOPEYOYRsAfaN/KHDXSby51R3vSafMAvrjA56OhCE1qny7/5VnuQP7NW+aD+5Q5as8Ed8/cTdcUufMnGR/acA+NEesQn32eTftDnjgkpKzhkoYU1NG9eDAEFVzI5BdEAMmC6zPFxpCIQJI2wTwmSI0l0u4AuhmLX1GrG5p7AAupt7XOf+9z7/3wIjyCXkIA8uo30zwZqD72RXUDi/EyBHiLeOgEeyGeJzafkV8TW6Rc3DVCTl2R83p49VPhSXJ0byRT3Lp5CQ68ZdQbmHN1uBNkC6aeDjWKt8MXbfsXJNz72sECr6CAZYmzPvAu3ArkapLh5sIuhB7CHAf30iUkXpUvYgwJNe+LCRnTZ2h5Eg14s5K882CPPaC0O5S9f8DibeVtjyF816G3YQ9XnAXUej7m6lCNzsukQS3XaT+tkT/nNz+URmJMJ0PXfnhAHOt0R5/k9feGjfKK1jz90bqzu+gWJ1pmx+KlFMjsDxQ+oAetqAY24iUNnyYRkkUtfLw7qsV+P9qstGC9I1vSFvO4RRMPfdBmjo8eLlzj27Zq8HhhGdUR/8gN06ziRreiz8VH/dccKKUkx4CAUROeQI7A1mHsn476aGHP7AlBTJKtvYILlXKFrEArbpVDomllNxIWANe0aM54adDavoGjoh+wTq5IvfvQDCfbQkEwXwluTswqGHMVPBlqQnyUWVihkW/PNheeTkb1iqrBcFvTFsXj1UEJrj5zA3B5Yx8C6XNBTs2OTS2hOj8tOTz/7+IrWxZl+yUEXAV9xXBEfdOHoSI7Y8bVGa2QLLJbVGiyu0Fp+0eLLvnxSQ+rJJx2X337y+c+uwHrKhsUJ0gXUWZ+Z5FweAFv5Ij/q1JvY/FUpntWwOd3JhqAxu9Z9YE6PkY0eevxTw2Rr1OySCzTVHHvZoeaKZYAulB9+xwfYY220l+0ArdqoPjqzDwNxQNPe1AnZh1ctqcOJdLPXeXLxkMfP8gnRoLVHFnRf1UN1x06oJtxnLwxo+CZ28iOP5a8eku9BOuG6hniy2frBTRrjHIMUQHMw1wUqPfYFNaygOouvIgKC6vIImidbyRZgxadJeNOsSffGYB8KpjdLDVohCjSkO5uDbBZ4WGORAHY00o0OWHv78/Bgn9jmMx8BO6NPdg8AdgD0FZTLrRBcXD55wOBxpjDpR1+sIJ7+8oyWrc5hsQ2az5F9eADZvbko0OJtFEvxhuKrUDU7Rc5fF51+caHbSHZ2FEOyoHxqmPjpqFGThbY9fsdHDkRjD12+0NNIr5jiJSM5kM3eyvKRHeqMvlVutsJihA4N2mzjO5S7ak4sgDxb2/d9txcGNalGu/jouhcTwTqfIzDns5Gt/dNJOtSSMRvMy4/6qUbzuziSA6LF7/6gx0dXuSpuoXUotskKpo54yIHFOh5zQCe+zvKf7eI2fUgummJiP13W5ZF96iBUH365e4OW3xo0FAO6zOWXzvTlUzqzb64hnuitH/1NmqCg+TQOVGx00DcTtgYQGBku+QLC+ZqYxBgVliakQfifpn72s589/bHFN1sNCh/ZBd48ueRNm8JpPzq6CjyYcqaPbMMPJNVl0FwAuvjIyQdy2Qi7oEYXmzxyFQBfXGQXy5sZOrz01USylWzyNHK0LiA5dDtHx5bA2W5kM558pCe/ihUbFKYHoeZsTwGjY39viuwglwwygTU72G5MZjYa84csMTGfuQzQQ03Xfj4E1ukLo8k/dqtL8qF1c/vphOw0JstcU59y4yHHBRc3dHwSK3FTu0b+hfLvYSemmnS1l9x82c3nCMz5x17QZyo65ARUK1B82d0DDMgPfrLyGZQbOeYDn8id9hbbydudL2cwuka66xF4VhRTY7VuzEZ2iWP3ynrmMR3ow2xFa83WmvR8WbBPtryoa/8Cyd9Q+M93d40tZKGFoHiEYK4hGrrxWj9Kk8Y8YSoC5iDFBZKzHC/Q+Eq4dUlLjrMCneMQjYBpYoKkcUFrBSdoAC26aU+2G7OJ7oJKNvp0x4NG4QDnCpJsqIk4z1Yo0flCNh+zJX7n0BkZ7FbwfHFRNWbf0D2I+Knw8gXIXbLpNqLpl0N2saELNIt1xmKOAE8y6eCPWFlnM13k8tebqIaERsGy3yXmiz3n5EOyu7Az7tlqrEbYkN0zZuTkB8BXbOMJ0KbHGTnsR4PPWWNoPTHbnbGbPSE7yVR/4o6mXwWBWMmhmKBRC+SJWXGwln9NVDNAk26QDXO9G0F0kM9sEdPsFDuyQTmVJ59EIHv4lv/VNSDDPZNjttbo2d5DiP29pfNdLUI+2SsH5ZCd2SQv5vNsonMyoHl2kkcuPc7oqqYC/NZGgL+aQMtvfpqz28NUzvrMCPlnzb/u9GzSyZk+TJ35EeJ3jtb6yb5Jp6A5SLEAKACF661CEJwxjpOCAdABDla0UMAFQDDTA83tKRYyIHlAQdJHjrkmY+xSddHWRsEmaA7ROJ907IQSRp85OrYY+eqnMx+tjRUoQOei4K+gJHkWhLdnT2roUtNBTraLhziyqeJgN3kuiMtin35gH+BBV65A8ZxAF51sNi9+YoyWXraQpwFowi43HvZW1OySB29yxS8/oHkxFxc2o6MLFGM66SYPrPbzj+6QLDJBsckfOoqBWJZbtsDJEx0wZru48t1IphxqWGqRPDGB4oaGPTUxsouZy+jFBR156NRCd4LOcK6b70Yw6cjMFv50V9Sp+8hetOzo04+9YmGUj2qHv365+p7uBULN+sXXg1kTg+qAL2qd32JkXp6L7bRVvsthNOIVkiHXyWMbP+QkWrz8Q2dtv7uAPgSd4bGHHrDD3fPr3D8yMEdHJp/cse4wXvbwC3+1ZA75Zp2P02fIhuitLzbpmFZBK6APmk+6aRDIaLoUi58SgiqQEm5eAOxxmsN4KhbyyFEo1vjQV4BkoEEvaejsRU8mHnPn6ECJAyU5XVBho0WXjtB5iYmXTXxRQJoTncWIDRIsofz09uFi98bcZw0Fj78Y0MvmfoVkWwjQsVPhkMEeNhZLMmC2BGgmWJNFLtrojXwRD/6Rb+5CeyDho9slZTv/2OPSa9ByRC7eYk4ePebiwj4ynSt+jZ4sgAZkLznlFIoLm4Cc040WFiPyyXaeDWKDln/m5dMZPmfZiJ+eGUf7fKOnmCffXK0XO/aiFy9/hPL3Cw82jdII1IGGgDb7J4JGspoH65pNbGEDmdndv1AoTuxkk1wVA2O5RgPNoXO1yy/xQFtjxNNdlj+5hepdc1OffDQnC5CDpgY///7Svpow1qAhPWyRI3Ykiw3l1RqqrXxwTr5/7ujThdqF6MQLr3N3Uk07w8MGfmcPZJ+RbHbQWYzKkX1jawiMaO2jt36yN+lrQKHirUmbM04SJFhACm6JA2zjIGBjF4Y8gXRpNEOjJmY+mzD5JaVgSCZ+QF4y7eMrSbDYZEPrCsIa2ONH/hjZIXmKVZIrwN40FaKC9TZiXgEqPBe3h022mNcA6J0xRatoFRAZINsAWjbmd2A995qjFS++2ONve+SyR8zZ4hwdVNBoxItNLga+fMBjP55kk8Pv9IufejDaC8kiu3U+kgvslSvy2WKPbvt0GcNiMmMFkg/zOd1kQDKNbOwcrZE/cqPuqoniokY9vPwxj93O5UzsfO9UH4BscqctoJGeFToDdNKXneby4f71aco+Wz0k/AuQHjhqKbutyaju8km+ADnVgXPNNx6jPJJXcxUHd6K4tXZHavRioCfQhSY6Z+4UOc7EIP/oYge69Ds353t2kkW2lyHxFneNlm68ckKetTs5mzCd+eE8LE6B+VyXq/bmSKdzdlm/tiZNB8c1H09rDRUIOhQIwI4V8eWAYEN2k+WthDyFZ+4CuBwg2XgFYpc8I3l02A+t7UuKdUVoj3zFbt86O9MjYRVxjVkhKIp+FnqT8NakSMzRZCtZ/KAjPfaMdOcfXc69zbJXoye/wgbFbWLQfB3J5RdevkxZChKdeLCpBuOCGT10OmenudyiYyu/XILk0kWOeiAbX7qdAetiwE9oTna2mZPZ3H4Xp9ySA8vtKgNYTwTJmfqzATjTAPhm5J855Ddd/OK/JqheNUVzsjUkuVML4qcBZGO6J6az+YS5J37TVqhW+m/bsIet7PAW3f+WQR69OMib+fRBrKzZZc1f/HxFo/bY3wuTPXmtATt3ptZbx4OG/Zp698aaDrbTiaYGCfI3+9Cy0VrO8YhDe2qS/cXb3fPCRC4aetgnNkBzFgMjPqMGnz/8YO+EbJq5mLWyjt0B+q0f/Q+H5ut6HaFgCRLnNVQJpJfTnEUjwIKIjj0huvXCkqPQeyMhU3AVGV0CN5seMAdzLfATsjta8hQy2Wxjo4dDhSl+8WRbl8JbrbeK3pxDa03buYJTpGQkv+bWuhgYyYZ4+Mk29igcRWcsVnjICUEjWPca0wXICumjl35+23ORXaa+0fGH3c6BNT/x9dNenPCSA8itieJtzp502WeX/c7KEegStZetgIz8MeLNVxBP+/MMsBVfvM3JV7uQbnRsZ6tza7ERI3Ho3JmLrxaMflL7vtuvKbavPq62zfmEuUcPIMPcnel/DeveWKvh3qLN5dHLg88A8sZGtuPnF7v4wcbqX426H9ls7d8VexjhEx/09u15UADxS5b7CskB4oIv+8h2n90dPPTKK15rsr2kVXflnAx8aKLDwzey1I118XGuRtkhV2KXfWS5X/jUOrn5MGHmqJH85uuI3zld1g9q0gnewaUzkAH0CXyXLkc1GygZgmLPecCRk9HvnQvebNKSjpcPLksJxi/oUNKsp0wg+GR3NhGUME3ZHNagK8IKDNRggISyQyEo9Aom5E8PACg29vKV3fys+PlQ8VVcFaqLpfHXLAJ86I2QX607nyOIxjhjQ481O6E5n/KdncWq83y37xusuOVP+S7XeKZt9sztZY8RTLvQkGGE9tilDthWnOwH8SYn3jDorOY6aenou6pLC9U1/53TrRlovDUXOSXHXp+6/LNRc828ukDD7nRBsM5XmHtsFhd28F+9atDuzWxIXnCMasf/0vH3f//3T7/2esHAL1fo5l3iazXNXjTk0NN/R4fPztmicXtIaKbo2UanczrUAh2AXLxsJQ9tb/bpYAdetqST/2SXL+fkZB/59NgXX/vkODN2f6G5mjRnp3iUT3XNJkAGG8Cam0Y0YHeefdXWg9+kVyUT1rNJQz5j7BWILr09QbJvTwBncNGiaW5EK1lQ4QC8glcDI1OSeyiQAWcygLV5aC0uUFLJcfHIMtJXAhVXP3/Ya48O++IKJTM/2Z4NZCsu6NKgrbnQCdMV4gdoih/9mjS/ybAPpj4Y7OZzTEf2w8C8OLXPTj54WBYjtsYrJv3PvLvkYMoFdNtjv5gZ8xGm01nn8dFBJxq04iMuXSY1sEL24V+xc0BmsbdnzQc16uJ6A/Y23H+9D7+G4i3UG3I/q3ubNtrrTKMmhz/klzN2z/xl1zpOmHts1FzIMXdX5Eis+GCUDyMaDci/ZoDsrAGjLb/oiwvQsPCJc/dNc6ZLzMqh+u5/tUcfGe4IPjEzVzd0oLfH93S6X2LEP/9jMXqy0d1G5z51L/BCc76TwQd2WZMz7xMZaNklZubFB618ypPPiekAzqq5GfvmjelZ9414ndNt/dq+SXOEYwwK6BUwAZJEQVMsEoaObRJvxA9zymg/+/GRb3ROVt+rJYacZNAn+LA3CuftV2SKhn3QnkJAX/K9ZWgEikcx46WTnHwr+EY2OTPW2CAevHxSIJAPbE1GyD+FKUZscOH76UaPM3JCPMYJrc+NeGaukmGkAxRr+2x3QcRL3OQkYL89b1DzLVqhe/Nnf5cFLaCXnnQ1onEm1j0E2y+3EI04FAv20G3uHH1ojxxjazD125c3vMBc/oq/2PeWxbbyD/tZDJOnMWlueDRvo5ynP1v4MffCYM6DuZcNZBSbYoxO3CHdfGCLh72HDtrqsFqVY2sNS+7RyIM8QvFAqx6KEfni7/6QoUbYwy4yxE8tgP67GGSKG148bEYjn+R4Y3YP8ZLh/kAyPSx7MAP2koNeHa45xMNu6+6atX17UO48TP3i4SfZZIohOrjLy9wjF6xnxvKcnCf5Jj3h3JpTnBMAuqCgCJQAukRonKNz3r654BrZ6pxjbI8nH+iDzhQV/oqlIJSgdBvRQ3OFgA8qGIBOweClX+IUhGJSLMC5pzx+9rIRsI9eNmSzUdGw0Ugv+4HRJcaTT/muUOm0dokUbz9J7TkT13jih/iB+aWR7Xyc9MkB9umuUfLHxeSTEXTBnYmHtyhQTNjc27/Y4kU37c3+qVssxSDdndNnjS776JIveTSi41uYXHTpTA8Z0Bk69uFxXt04k3vNWdx7c6+e+M4ONodsRye/mh3EA2YDpTN/Voym+YS5Rzeb2QHk1Lk99omJkU3y4c2fL2yiuxqQU02Qz+oenTNxxY/H5xpyyHYPilF10Z0zzzf2iR//+e4/NapJW7MBLVlkki3eZHqLJkMcyenlCY1/04y/O+e8PkMOu52xB6ojaM6fYkU+2/Gyxa8k6IHqDD35ZFUjQTmYueh8PTPGz1brBzdptCukMJgGhBIiABWuopZwegXP01FQBJoOAasIJAXixacxZa+5INeoBBWPJza5gigxAL89qDkqCAkGbGGnYuy/vaFpkGW/giHL09TPHheNPYD9/fGlopBcCeAPnWSwoXjTTZ89OgA7yBSjirwEwuTR7bKwQ7HynW30JA/GB9o7h9FU4HM/OXwzsgNYQ8B2PlZ07BBDDyE+sZk/4uJ/DOGNjSx7Ykuv9dTbnI7eOF0WvL6b1hQh/+kWA/rx0O3vFviyXY2xNfn2nTsrduIJqkG2QXMXlK5kWNNrjz3ywgb5Vbd4AJl819TYjk5c2Ioe5HdxcAbNO9uN6znklzHb6OdD98Sc3/wQW59fvE3TZ9+5Juo++M/uGv3kF3+294LBBy8s7iA/3INiVlzpqHmKAbvYpHaN4lQPUCd4qgv29KaOz3f17og9fOZiSnYPQLkTaz7IhTjIffeW3Jo3ufR15yct3373d3/3JEvc8NE7c2QMms9xt9dIFxnJe7Rv0mDOV1jPpg4OSkx7jBQoF0SwobkiCAUPjTNFhheftZFMl4U/yUo2XeiMJbqEoEMDzCF+QAdd+OyRpzi9NWiOChuNQlUomkHFqSgVgjn5kqsg2EgWPk3YXolnVzY6t48XOu9iKR4F6QGl8PF0nhxgPDffjWDOd+CcbWHARrESZzaKbQ86++zkr/iKm5+PLhKbxc9Z+eNDec0nPpIBfTPlf79g0MgnvWirgeJITrnN/uIV2C928RiTwQd7ZKNhD+jhEB27IX9mg7fH3t5Y+a5GyJxA9gTr9q6NwVyb58eMRw8qNqlTOdEIzfGIhRiaa85qW/zUPjp5UPNehjQyzZss8YhWfNOFRs56oeg+ka9G/NLyNwt7bLQnfuKIXoNkv332sN2aHDagEVfxtU+/emIneWyRA7liD1vt42cj/hq2Nfn9SuWzh1c538Ea83Pr3Uhffls/2ecO49wHc50BQBALGBQQgathOTdW6FDQyYgWjXVyBTd+6y67c/QuhYRJBkAXrdElj1/QunjQOt0KtGJDw0ZFqWDZSZ4CCNHgZQ9aetiajwqJb7AcNDoP8JDDD8XoTTJ/7DsP2QvYEra+NII5X6Ez+sJiJTb8FeualIcrXzQAdJqx0QNO4eOz59fEmmd+oc0fcl0a/vtvNIsBED95w1us6cTH3uysuZrP2mE3dAbLNyCPT/nmnD7nmhl+eo10OmcfZJOGUpNmv0blsqshvpBfrtMfzPWtY9CaXQGb6RNX+VG/fOIHexvRVJNGqIHKkzNv272xapZyLL+zSXsrxqd+0+Xc5y28coOOTDEiwx3SbNmpdshAY00+PnP76kU8+ZeN7BFbI9vJde6OiL8cmvOBTfG7j+xEwy4gRuR4MLhnapUPu7jam/Fvfp+RX+qAXOtH+8NhSsC5OWjNEHNIn3UoQIqkwkAjYNZGNgpuF9WIRoAlumTjJZs8cz5JjiS71MYaGxooYejQ00UPHvtsA+mWKE9WMuhhl4JROC4rOWSjg3iSU+EoPLajy7f8LD7meBQrenLZQKYGpxi75CUWAuv2QGdzHVzaOwdiBiadPbbwid3G7GCzuIuPyyAmcmF0Of00dtnFkb/iJf7kwBqJmOPhtz/gOHOp8cm/GNJbvMXQXrG1x55yns3sY49ze/nAP/rk24U1L4fm8sAme/ID8aAnUz2pT/nFr8m47EY+FMfyHpiv690IdnugNR3mkO/5aF4MxBqaiwd7+ChXvbj0C5HdmrR8ovW5UA75q5mRKRc+LeADePisQfNfLPzCKnd0QPEik630Q7weaGLtAcemZHcH8Rp74+VjstmTTLLkja9yld7upL1iUYOml+38I6s4XgI09x3ZTD/Z1o/WpC9BBgTTEPPQOr2KxAWx7jLUfHsiS4xLa25PIrzBuuguuAIjgywJoFPxCLiL6LJLlMQVbPOKl2wJQUM+3UDi5hs0/XSxVUFAia4ZKIgudhdAnMljF9/tGemBgC0QkM0nsWAX3fnCD3rwZ4d1WEydN855cMtecWqd3TDdraPlN5QvcWc/3+WG7eIjHv33K1w8uSabn2InJmLhgWRPHMlvz5zM4o632Fnbh8U2u/GJETBqOL6xsm3G35lcs1+DwO9BI3988LnGfjULNRpr/rGBPnwue997nQHnEBQ/GOzWuxHMOWjNl2ybfOm1j4aNwGhPbsRN7RnlRs1rhHzAIxbesI3y5X6ImRcWiFfO1KvmqXb5Tp6HsjtDrnWxqBHao8O3YM2dDLLQ9+tMbdHnjjiTE7lSE2jYwB+y5EUNqkk2oNEz0OUjmWicqzd+9nAg/xywd2J7cwTnzoz8oF9tWj+oSWNKOJjzFdazCoMu4JxOaC5YLoXgV1yCKZkFF9aEnTtzwSWdDMHEzydPa0HvXxDgodtIfvolQoGh83+nZZRwMhSAS0mvInOhKyT2Sr4iRYeevVDQ6YRdfuceKmw2rzhrGnxUED0k2I6fbS44u5xnOz785ID8s+ccGHfzYJ4FO7oVnItd84nsgHLh8oqZ+Bl7MzFnt1iwt4bOT3+dR2Pfnv9xhYZIRm885ULc5EOs6BbXGqn8kCFe5BjRNwK84uvNnIzyRIcaoIfN5uSRDTQDZ/LBDrx8po9Mexoa2S47+5ODjny0xXBCcZzQeh2DS2t6rPlMN+BLdac+2Wzd/REHtD1wrPnCZ/WpWXrAekFyB+zJGTpnYkimOKlbnzrQoMWjgcolHWJCr1ioiXJEns9a4ucsnfjYyjaghsS/eLr38t8965cWHbNJswN9PtInZ+ztf1zEfvbxpVzN2K5xD9qf426vkc/k88v6wU16jsB8tw/mWmEAiWEUnbDiabTXzw0BqlEJokRXVOglXYNku0BXUJ6QGrdLBCRFotDTIVno6JJg8siVSHvo0Eu2+CTbmmyFIPneAnuyk4uWPaCiyDf7+CqiLopzSD57+Y63f8GgwPlOVhcumfTaK45k5iMoN+Vh5gPs9leaCc7oNNKZ3tDaJWKHtdyVKwXvEvQgEm92amj85KMmzV989OBFj098xJC/Lm6Nnr9QHiAa+sjPLnrUk1xDsRRj9TX/XW2X2thbIz1s6WHMJvaTg8eaHDLta8iQP5B8Z+WKPdVesZxYnNd1Y/MJ615r8TGnq/qmG7AFiI25nJlnm5jkEz53UCyc+/zhftVs1awcikn3nD4xtG8UJzHUHMWYXWQ7l2PnwN3AK18apn166NOk842N5u4T+8h2z+VOjNlVszbmD1o0fGY3XfzyciBX/ijt7jkjB8gTTCdoBLv5fUZ6pvyLTdq4A8QJvQYrXWuGwGTNAk23EZhLjuQJmCC65AIn0M5rcvYkoKcekABnkuti1bgkhD5rSURnD00JdtaFZI91zUBxKhQjesmnh03sJQ+teQWeDDKhORvYA8WE/WxX5Eb+uuj5W9wCMumy54wNxY5M+yHYjROD5uSB1pP23Bn9cOZZLMoFcMGnzy6iyy933jQ1Yv7ik180Lri95JOF3pkHqUuqOfs+6kLSWxM1R58ub0dQjOVIfO2rAbI0D/ayIxnoyKGjcz4A85BP+DR2OszRlZfiYh0PIHvCufVuPzwHfE8vENfsCdhBBlvLUz4b7Yl/PtuXE+BMnNSquypeRjrEVU7lCr/7pEHLl3tAr330ZJDlTsm7fHQfNFW0Yu++uT8QLTl8s6YTb7biZ6v96ke+nakHtUguX3pz9v/OHg17jMXPesZujbv1fTAeQD7ZdNh7lm/SK6xGreOEedZcQCVOwqCgS2CXSaChAFtrchCdxMVDhsDzVcFCl1szl/T0SR4ExYccBeYyoyOLfrLZQr59fJ0ZgxoPyBcjXnazl+3m9lyQ+0C2g+a3jsG63kGFBM7JmTDPzFuTAxVo+RVDMSie5i6xOZA3/GKFR1N2eY0eus7RqgXxdXl7s+8BYQRdVvTs6NKjZUtNQh7UgCZNDx320BjD7NWUatDgWrzmHKxrcI5mR3sJivk1PufR1qCMfCqGfOSzXHjQqltxAN0JNGKMVy7EUJy7U+UKL5nujvinyzmZ6PHJJcDbmD3dp+JPbzTksKfeoKa6c97k+xyFH/2UD8QjDNYYtr51BM35q67os/da/nA4obPdGLYOuhBGyZAAQRdogffUNrpYku5npj00miO62TQVQk9kT+cuaHON2JMfnSIQH/veBOyTQybsgtoTQ/EUdPt47Sk++/Sxhzz0/CCDzQrGnM18nP5fgjVmk2/uXxqDdb2DWbjnxnNyOiOjyzVzapTHclmMK2L0+JyTIWddXjRkiaOLai7eaOSMbLzpIx+tORkaMJQrtjiXV3rwazBkgS49Oqi2yFJzGgA7wRqHNTa79Q7O0ZyjPwflboWdHD6IKRS38gXVNp/lhr98F4fO1XMPObEiQ/33wBRj8vCghejk2LkRyhVkX3dHLvCbG52RxSa6++xC3rS13qAZoylX/ZLjC1nFyGg9Ecw52K1vGUHz6judz/YmPY0BO+PmGK5gby0u61k0JdOFkxyj5NjrJ67kVDxooq9Zzwsv+eSWaEFUFJq4OTmSSwf7KmIFVnO37/sqGejwASPd9it02EOEnJJ1CZxPmnXeeh3Bbg+s62uwypn8u7mRb6FYFDtxFncxKK9dPHywWGoKRjKiEz/NW26M9uVSTmsQ80EZn7mHsibcr6QuNRr3ggz1gZ99ztJV/qxr+jUP/mV7WBzmfI5BNHN/R3MNoplx38EqK7p4+DKRj+I381VdQ3OIRn4De9Y9CMWsuJUnsuksp84Cuq3JMWrIxb77Pc/Z4lyOvLy5t/06Yxu72SPPZOdv8TCGE9a9uV5HcGmP3nNN+q233377K4qvoCO6Fc7Rrvs7uvbmyKAdLRDEHDoZ/tV5YC3g0FyThCCZguBCuqQKwYiG3/6FiLdksajBSrJCSiZeP63J8eTV9M3RS7Skk9l3cHv+EJZ+etCWDMWkWBTZfPJHfy4WAZvghHUN2ltHcI5/6l7tufUsmHvqbNUZoBO/LrU4QXGruYqfuUsH2tdEiy0gywPVH5v6Vu2sRuLC+nbs0trr3/uic94vMZccH/nOeyOXNw1BY9BIyLAfPVv4YJ/9YI3/Ok54yN4E52IBa0DsMsZrPqH1er6O7oM5f9NT05MTYA86lyvxc+ZhiB+oe3cBnX8W5z/E5ZxcOXDPyJQD2K8d/OQ6c0+h3JHHx+qI39nlntGFtvsI8gM/IDdsjWYH0UyYfHMEuznb+MNee+++++7dO++883+xfYomDW45W8dgty94DA6no4DtLkh0CoHT9tCSlTxrmByBURSSr4jMoaLC4yIaJVpSye0tQBPQDIDiYIdGTg4eT22j+NIDJYQsjV4RVkDOwLTvEqCZsK5Be+sYnFsXK9B87oF1/xwdaI+PxX3N4+SfOGnUKj5NFsQjB/LV5ZUnD2J57O8I8pJedSH2mrH4yxfZRusacPVEprNy7yGhObv01tNWNMZyOv1cRzDnYF2DW2h2gC7bYHW4grMV2B10Pun4zdfiTjafoXxMnc2LBXpgtIfHuRec/nO21vIAyXCn6ZJPfMlwJk9yKnfuZbbY737ZY6+95sB5eSKz2M6xOE7ofIUd/4S5bs4+9rDD3rM0aXDp3Nk8N2fc3J/zjC+I0bLbyJlJHw2+muikn4iuhFmb92YWPZqe0PatKywNwJ7z1umMhhxzhdTDBL0CAWgCskFFeA6iawTNk7fSTFpwbj3taT73Anu30LbuMoT0OSvOwL41WnvWwLo3NLETczG1ryFnu7jJoRGNXKpxvGSVa42+B7DL3+cQujUgDVh+nEP8dMhftUB/NOQm2xnYxXfu7c53cInnEqDNfsi3GesJ6941PWIkvvm8k0lGcsqpEY84OhNzeRFLOfAwLFd0oAP50ll1kV/4jfNOVR/ZRpc1XvWBPvlsuuXO5U/QOh2t1zGY6+bspJ9t9l5Mk55jMPdDwDbGn4x+b7TP5pJuLQGKpsA7s9YQ8Uz+CejtkyFY5l16a0lPDrnmdDm35w1N4XRxNYXeBDQC8oAzsvCQC6ZfQT43noPJE+Qb3umn+VwH697kDy7Zszu7tFes6THan3nsApqLExDv9rqAxblLKF/OzKcuIBc9dOl1GciTS01ADshxXsOxdp5848y5PXzZZR0/O5IHnYFiu44Tbtnb0ZyDaNlYrJuvsO6hm7qaN/If8o/P6K357AGHTjyKN/nFU8/pM5H8lA8gJ/JJDpmALLRir4lbhyDbjeSQ1xkwt0c3muwkn1xrOt3hYMoEyZgwdaBbdc51sNIANogT++w9qElfO78Ek3eVs5N7if454Sl1r0mc6/Reorl0NuFWuuDW2K9n12LVpTsH1/hvgXM2rRcMdNZ43zgFt/Lt9t27V4Vb7ePfihPWNdjt3QoP4b3m05R9i/+3xgjsamTCKuuS7PvQas7nmvRli54Qdg5ccqrzc/hSYWfrxAm79SWaa/zBuf1b4RL/rTYEzi/hY8Aq6xb553heBc7xrfsP0fFQeGpbkvcqeA12tJf25vwa3gcu0d9X1iW4d5OeDq14X9jxrLJulR3dS8NrsNKu62Dd253v4Jqcc3CrfHBOxw6vwY7nVXAna+4F83zipbNreI43WNfXYMpY8T6w8kw57a97LxGDdW+u171bYfLvMJjzFdazlfe+8KBv0ivch/ca7X3teIjd1+ApZYNdAu1NvedoVmgP73q+o78Gq++r3F1sdnu3wmPx3ionukuxBPeN3SX69eya7Pvq3kF+Gs/F5taY3QKPKWuFZJ+L49R931hfg0vy6H1VfZc+dzxrk6Z8pdkF9CE2vApc0/cc9tySzEs082wX51vkn4OdrHXvsWL0EDn3sWk9W+NzbX0NrtHfR959de8gf+8Tk4fAY8pagexL+Zm65/5jxDHY6V99vo++Z2vS94Gdnp2jre/j8H3hms/PFZNbfLxG0/m0+TFid07eY8fmIfJW3p2sczTrH4zWmN03hrsYPVTmQ2D6fc6eNTavC67Z4fxSLCf/3H+KeN+i9xa41KRf2zfpczzr/jm6FaJ7aXgLrLQ73h3NhB0PuHXvGpzj2eltb4fXYMfzKrjKCi6tm+/Wj4HBur4GU8aKt8Da9HZyPmi4+rGud3gL7PjCCbu9YLd/jvYWeNZ/3bFzbK7X+W79FPiUsNO3YrCuwa00we58wqWzCddkrOf3kftUOOEp1pdwwlyv80u0TwGX3kqv2ZK9r4JPCTsdO51zL55reAusdNd4b5V7Du7dpCX9HF6Dc3Q5eensGiT7VfB1Qv7tfGxvpZnr9oJ82p2BW33e0STznIxzOh8Tdjqyp7NzuMI8W/3ZrVecMGVNQLfbD1Y5O5g6V7wG064Vd/zz/CEw5ezwIXBN3ukTgW+5Z85fFc7JKhfXzl8VnvVN+oADXio81kU+4IDHhqNJH/DGQG86O1xht3fAAa8DjiZ9A6wX+jHxgJcFa16OPD0/FPNz+KbB0aQPOOA92DWAN7EhHPDy4GjSB7wxUCPe4Qq7vQMOeB1wNOkDDjjggBcMR5N+D9a3qhVfF5zT/9B/0vNBhp3v5+LU/rnzCddo1/MdzQG3wy6e4QH/LxxN+oADDjjgBcPRpA844IAPFOzevid+2OBo0gcccMABLxiOJn3AGwO7t67wgANeKhxN+gbYXerwobCTGR5wP9jFcOIl2NFPPOD5YBf/iW8aHE36gAMO+EDBrnFP/LDB0aQPOOCAA14wHE36gbB7kt8HD3g+2MU/POCDA/1b+XP4YYOjSR9wwAEHvGA4mvQBBxxwwAuGo0kfcMABB7xgOJr0AQcccMALhqNJH3DAAQe8WLi7+/8BxC/KINEb99EAAAAASUVORK5CYII=;direction=south;" parent="1" vertex="1">
                    <mxGeometry x="180" y="130" width="58.17" height="150" as="geometry"/>
                </mxCell>
                <mxCell id="7uX397mnJ79mEGuJaPBq-32" value="" style="shape=image;verticalLabelPosition=bottom;labelBackgroundColor=default;verticalAlign=top;aspect=fixed;imageAspect=0;image=data:image/png,iVBORw0KGgoAAAANSUhEUgAAAFkAAABjCAYAAADw6qxkAAAAAXNSR0IArs4c6QAAAARnQU1BAACxjwv8YQUAAAAJcEhZcwAAHYcAAB2HAY/l8WUAACsFSURBVHhetd3nuiW3cS7gnpzzkMMchiLlIF2A7uH4nnyJR37sH34sZnI4OZGTk+strG9vTHPtIWWfUxTYaIRC1YdCoYBem9p36tSpV/v27VtmWr//FqW9Z1LeX758ubx48WJ59epVvx88eHA5cOBAJ2UheW2T12fmk2fyaZ8U/kn79+//Ff9QxtmL9EXpMz9nGVDyeT59+nSnPR2fP3++7Dt79uzO6HPn30sZdB4seYNQaA3yoUOHXgPZU4ry8vqsKe0RXmkXkBGA1K1BRnn/n4CcfHSbn8mjJ0+edEL07PoTJ068LknR3On3UAaaEzIIhcwmIZUr+70gr+uTRwFxDXLG37ZSQtsmcCZ9kT7pl/ys3zqPjhw5sjx8+LDbHj58eAB98uTJndHTcCbKxDpSj0FAIFAURWkvheYyKbzWQmdCPGfApQApIStipvAIPXv2bId3xkSe6lB4rWnNa36XjxySd/zh4Pn48eMum/HZRaJor0HX5fN78hjPwigPMAEtaa5LSp/QXDeXh9Z18/tcluc6n/ffQ/+TPjO9BvLvoXmgvQZO+RrcpHmJr9Ne5dJMc/nMO2mu//+VZvJu3G20f904FMucmabtnEdpm4TUrxWXAJwUPmk755NSFp6hlCfNfdZ9fyu9idZtwxdt03VN6tqS0+n30NxWPu8zwGjNM23nFMF+K6X9TL/Vf68xUr5XCu9tae6/JnUMB83gox1LnjumkWeYJqF1Hs0gpz7vaM6H1srPSqzr1mndNk8pq2Rb33UZyhPNZXN+7jfTjJE22/Tc0ydva7ymDKjtnEKJJrK7S3M+ws1pGzBJM6Us7T2TUvd7U/iF5rK9EoquKTP2mpT/r9zFTAEupF3K5oTmfGjmK5+U920016/zeZ9p3Sa0rW1o3W6vtm+q23fs2LE+Vu+V1rOzZrSOV5F+gzZW9qp4VDfl4sbElM9fPO/yEm+0e7FriS+fmyR9di1/sB28xdMvqv+L6oPfoUNDDsfaJ5UO1UFAeeTDs/lusXSyvCZX8U6f9VObUPTc1Xe0wSPj9Mo9fvx4c9hV5PW0bQmEMHkTyPv2lxIvd5Wpihq0gN5/oOo2vIG8qX8NgDcfyvpAwffqc+AAkIYczwrgFzWplCJHjrY7fCuROXmkPgAHoFDazG23PZG8vjMPZe0u5oZ/D+3VLwrs30fwXeH3d/uh8MsCf3lVee03fVALVW0PHBz9GO6rAg2gLOz582fLs0o1wk5b1o563M4N8p6J6LrNGCH9k0LazOU7sm8SSvv5mfyaui53F2mYxnt1CqU+A4dmRQ4dLuvaKNdJ4aQnHgB8qW4z8/i1HDX/wHnxfIA7g4VYaFOJoTXilrR/8fJFrZTBZ4ffRl4UK0Opm9Nap5lmC932JKf+aSdfxvW6AG+itJ0Ff2PfMX3VhhWUz9tY9brfcClyeFebWrqHDo5LJG6l2+xM1PgHkJ7Fqeu9P2+AS7nilUuojJPJQclHjrlNJjIpNLd9U9pGPWVvaoDm+uTXZduI0rszOjYW/lDKBkKPodxQyCQcLP96sDaygwU0wPeVz2WZ+/ne7j+suHlWO+XIqoC5d2PgxbL4794QN9eQAW+tx5BjXFLpl6Qs4M/t1/0954lBXe/SPi+hbfn5uS5DmCeF5Bu0Daix4rSjeJTyrs3Ro0d3JkM5ULRLm/CoDbuvErXDQzttkP4sOcAqD0hIHp8k/JSljaRsW4pxIO/rp/G0wQvJ71x1piGa82hmMieESZRAs/CU1E4+QHuPQpK7V9biHhZpUzL1+y+//LLDIxap/PTp081THpjqtPEuqVOG1927dzsZxzWkFCuXogdZYrXG0SZ+XxmqcHfnmjT91s+Mmz6t87b75DxnUpaUd0RQDGMBaG4jaRPFUNoS6NGjR/0MYACu1dUTpw7vABcFWbD32rRb8fBVbiXgo9yYAL59+/by888/96TheefOnW6PyGGMOZEHD0l9VtGsw1rH0DaQD5Rg/9pvG5o7bCODzeR97hMhpT5IlNvf3yFWWXArtNv/2bPh+9QdOnR4OXXy1HL+/PnlzJmzFevWLl0CHj16bDl79uxy9tzZnoBDRxwyDi5Hjh6pdmeW8xeqfdWfqDqgs/Iz1fZ0TZTJAkwoIJIXgAALyORIPWDUBdCUB8Do65mUd+3CF8n/CuS9aAY3+QiYgWaBzb6nyEFo5TSnLFaBnj191psU6wPgubPnCrAz/X7u/LkuO1uAX3zr4nLp7UtdBsijR442jxMnTyxnTp9ZTp442crX+uhN88jhI8tHH320XLx4sS2ahQM1LkBbY3gPMElkBkyAm3WVMmnReU5IG/n0k/8VyKncizJY8igDIGWERU+e1PKu9xKhQ6sXBTBrFhUQ9uixow3iWxff6nThwoXl+LHjw4I2LIVwQDl0eIDkGM1tiDYOF2CHuZkqd0B58MuD5VH5XBN5vMBF3ENcxYMHD9o3GwfIwJ8tE8nPFoxSlpSybUkfzxmbHZBTGFoDieTncinM53YRhjtwhwAIACljSSIDFvnuO+8s70jvvrtcuHihlvqZiqXdHQx3c7hcA9CPVfuTZbUnymKHJTpGmwjKj0nQJz73eU0CV2G8RBgmJqvo3LlzDXI2ytnS5aNTLDs6KUOpT1KX8jeCHJrB2ou0SepluskjAxK2Uy1dvvJUJcv2aCkEKEpK7za4F8uaz5RVHmmBXO6wttt3b5fCR5aTp09tNsPhc/Gthg1OLG13YxyhHj4njo+2a6CUae8J6HViAHTBI+4tpDyAIm3mhNYgowZ5LgilbFtdGCIgI+2Ue2+AW5mjY0OqRAHKHT9xfGxk5SZOnzm9AxyAHpfFWdK/1PJ++vxpb4Ks/a23uJKLNTFnC4RjZXWHazwb51Mj1wRa+ocaEBtrA1hjsUqUyQAQ+YDuqX62ZMk7q9cnMXr6e+KNAuw6zSAHk321GzeKKUxKWUlWHS1fA1UnglbSGXlS2rIVTVD2WC3xo7X7Hz9U1lsWbOl6f1YgPHn6uJVhMe0SNsvzcZUbR17544dPlvfff3/54osv2uIRdwBI/a9evdoABASydr9NLHzm1Il2VSczidXPBD56+KhPk70hV79OTor0pk+lh4+fLt9+++3y3Xff9aoCOsCNwViMQ87IHms3Dn4m0xP1xFanf9Vwprx7GnhgPoRoYSqzKeoB+EcDAJcbeOedS8ulS5eW40cL7LIMd72OwsAxCYTTPjHyAGks64PV5kRNAF9scrgKipEFoLNvjWXihaf3GMhLfMswWtb6V4PZ7xX3viiLr3zfRwOj2uQobvzDtQIzgcjY+pNvDSDyrg1ZIhdK2YGyqPbJCpLm957lnt+SZBOO9R3B0KUYmtEjy7EC4lT5z4u1gdnMLPED+yoor7aPHz9pAdvKa7lnybJMT++iB9YGrHPlJi6cu7CzlPlzeQqwKJPDKgGuPyXlWTDLU98g19i5uyZvRzi1Wh4/etztnyZOr2pGIPQzjtUXvsHDuz7e5cmSugAbkFOesgOlQFtyKlDynmOgkceA2+hryXrHRKjE2o7XsrQ0xax9r1Au5Fktu5/v/7zcvnO7FQcyn4wAQmg8+GUTJCrgjhwyLpYPVse6WLRDBoEDZPoq8ySbskQS9+/fX54+edqAPK1345tU4Zz6XhWVhJV0EQaKZkw2vz78+7BYvMMfv3kCghUZrFTl8kjdDsgY7EUY5opygFwzX89cR7I0AAHYKUxZ+j0pQO6XUnfu3C3lH7dF2uwIEz/GFXAxDiEUF4opO33qdLcJyCaS0MACNGV6eVdCAFAO5HYnZQz4PXr8qMtELcAWVna+UkBDmbCCZrlXE5Q6OgdMfJUbewYTkYNe2s8gN99aHg1yEsoTNchmo4BGmKtllZYWX+Y43ADXIDtLs/o9f2aJiVMf1/vLtnDHYyAiAigDIH5PnpYVliK+oJisGUzEglljNiH9KUJxdb2x1SR459K0ZdH4BDAp7uI5d+FeelNuLEDeun2783gj45ABD7zSPvUoIM/ga4MOVMVrIKci+VayrXYoytcBgf8Clg2KyxATA7cv4KuP9PL5cCv6+GxEiJMV78a/EqwnqoR6WpPxtI7ZLXf961mdFgEGUIoBy0UPIAGh37C88XNV5YBmoWS+e/fe8rD6m9zxlcSGVUu++rJk5Xy0snYPJSNLf1IuBi+yRrY2skrGNQb+wQkBW/sZ5OCHtoKcSqSTzgZR7h1TboIQYll5dYSYLSYD2sUBpZ+NDz/t9MNX/sGjceWpDrE2fSSK3bt3b8efImMBV52btlu3bvXtmjbK2uWUH7cJi3TE5twV/nhFRhRZ8cSfHNpK5CM3PciSzVqaicHQJzp7Zox2F5t2O4NJYRSlDJRyTCjRPrYUMQBhlKP2hWVFR+oUR+HH5Rcpd7xOYYePjAmL8BRjOffu3+t+VdSb0ZPaNLPcPSXtABtrxVt97oy1UU9m9xMuiN5+++02hN5cy7fTUf/ISB9yeMZI6MGF0U/7tEGe+hlLnqHRP9jhEQyV4dWW3L23ECYaB8SUAYwQBDdIBoigO8LWP2b/UVllgKmWXe9dm1FfQj8YAHEbwHz0YPdiJ20825dW/+vXr7f7YL15AjztPvvss+XTTz/tpxu59957r8GmSyZDW7JLeNKNNSqPwZAR0V+eTJlspF0A1b9BrbbeQ78CWcM5lTdrf5tTng3QMdZmB+iDBwv88ml83O4BoFxK8fLlmMIs2bVmf5UGcwkVa4qyD8tdPK2Nz9H6YSnx+NGTBmOshDFJ2mYS5QGe8kwaoug//tM/L3/685+XP/zh8zo5frBcfPutWn3HiueDjngePBBPP+5vhnw2f0wHUdODmnC8jEPWAOcdyBlPXVIofjyT15jVzO2c+AJsEmK1sr2RVTKYzc6luPvcYyV4U7XBXHxsmYkaeiOsgbKDIyATlpABr8EqC26BSzkbk00zQEZg9caQIp+ygEvWuIX/8y//svzlL39ZLn92eXmbTz5zttvcLov/6cqVnkBykNPhA5/IQtdMoHJkjEyy8VH0iFxkMj6MlEXuPvFF8FAqkTtbHcSvBX3fAbtcdzUpvqVQq1sDYC7qsLk5Gh86WEfdKgN2UzV0CqMAgS1dguHvPtjdRY9V9c+e7roUbaKEMcbED5A9LXEHmA8//HD54x//uPzDP/zD8s9/+vPywQcfdOSD588F6s0bN5Yfvv9h+e777zryEMcTytEf2OFrdUZ/45LBaiO3doyI7OSjR2RQps67MTP5B2rJ71hywNUgSfgmOpB3B+HO91JtJu++W0fn2liAanDAvKi4s4/cA/YqL99csy1UsiwJIITLCS6bC+H0a71MhLG5n3qSjfKSdpajpF/KvZtwfvfy5cvLJ598Mqy3Igr1AL1S1vv1N98uf/vyy+W7b7/r0yD5kBV5uizdBFpdQ5ABsLJYsfHJbDwUV6ZdQDYeYuXkRzsgB+AZaE8+2CCVLeaHW/BL71zq0Oj8+Qvd5lH507G5WU7DGi05Zb38aiC3cPr6lORew85PsB2QN//0hBvs1XBZvTo2wGofgLO0s4S1ZWUs2pMxOCLbF27cvLn853/+5/If//Hvy3/8+7+3yyC3gxNQfFM8WydO/GygTIQOwCMb/dW1kWxA1j/hIiIbWfVRp0+MZMdH9Es1yOxhLtW/lmdQqs3vcQl8sEK3t959bzlc4djTYuJ9f1kzm7j/8NFyq2LQm74QlwD3Htypvk+XQ0dK2MM1+H5x8IEKqy4un3/+2fL5F58V2OcLlKPLScuw+FRg19Z/oADaV8vW8+iJOhXWcfxotanpW355+GD8qKXqfXUBak6RsaDa85efC7BrV35cvvnbfy0/fPP18t3XXy37a8UcOVghWrm9M2XBZwu0C2dPLxfLAE5V2T77R/U/XCfOg2VgTyuUfPr42XJgX7m2V6XH/nKfz8pCa7N3lXCmVubRw4XXgVflmsYplQxwNBlk61/aS2h+JrUlKq/pTUf3CpY8xUwIph0h2LELaFbmyDpOga/6uCzssaOrw4sFvffe+7203RfjFysQT7MayXjaWlF9pVp5VmN/wD/W7dkrovobgzu4WRb81VdfLV8VuD/99FNfVtlgbdw2KJdZmRx6WoVOs2Tv61BR0kbvlq2A7ZVWqY2yf35Wdlp5+0mwWqedC6K4hzyTHDc9KYQhv/fHL77oZaOtzeTH8nc3rt/oWFcb/vZcWcb5C+fa0oRGj2pZ+chJUKDZEIWFgCGc0I2CwL5c8e2HH308PvfX8jfW2IBLphrTLFnSfvkJXJsxwIyrvzJ05ccry3+VFX/91dfL1WtXl3t11OYixMsuqtrKSgaAiYAs//s1EZZ6ABy/48sqH65rADqiI66SmxybtkgK5rvuF/WlvReArQGW+DQasViKOUEJ7s3eLz//0v7t+rXry527d3q39jVCuORW7VQtx/FhdByr24qLWCNAgXGSBRfvGqzfKY7/+elzvokQY7MwGySLZmXCRUqzRiEl8Ph9ZcI0Xza++fab5drVaxVdlBXX+DZqe4KJGz8tSLSzOQTVinTlaVwbvd94ABfYJpiF2wcePX7Y/jggj30LfsMDB0u0cwuXwjXYZqfcYA+EuAqbhM/vt2/fWr768qs+cRkIKDbETz/9ZPn444+Xt2uTO1mHFsJaipRoa7l3f7l163bfyOFH4XPnzhe4H1fY9eHyj//4T8sXn3/RYPhdhU1TtGESxdC9GspXmxDL3h21H7iwfPfaNYPLv/3fv/bqck8BuChMRtbeq6kMoO+ai2/uShiE1QNkK2UcwgA3Jnn87MDhaXzK6oOW30u/Gpb86hVT3ERIldDOh9QAnHxSra+2MleallD88N2y3Jx+EKEGWONLtPz47jeWDuFZ0pjxwZsl9ZIvyxm/HvKp/liPwU219ZeF6SfPt3MUrlV99b5QoIpwRBIjqjjRVilC+Le//nVn5yeDcZAJQyaNTOTP5Hm3QvCybLXh6ug/dBAvjw8Gj5+M4/vrVmw/HDq/BnLNaB+rtwEsmUkzZKcF5OFauphyFS7GHZeBAlRu4nxZJH/skzwwOkIpiV1jCukolcHxs0psREI6lvzWW283WKydq4ocFGNJJtsp8/yFC71hvlPxOhfBqvG9cvVq+eG/LVfLH+tnjPanZSDk5qp6c3a1ukn5uRiAEZeSieV7Iy9+m0xZb/UrnVzh8seRkyUH5LR/7e4iDZNH/iRBB5bgE78vvWa3/VtZIIviDy3T4UPHpmZmIcg6hs/b/W0wnxlQ1JsIZZ5cioPDjdpQrZRhLcOaR9txdOayLl16p1zSW/0OSH2//uabjomf1wrgu/FFxrWsjWGDNoENBHdopltd/xogcQM55VFFmXr7QKG0A7KD2isgd18txkYaLOV3vlYPJoOS93zxfATUOc9bxo6ddvP4RcvrYlnWW+WD+VDWYiL6Vz5FrKRDvFq+ATqBu1UACO9Wg7EAC2QgeAduW2EBpI3PXW9tNmC/6dD38ZPqc+vmcrt8/ZWfrizPHj3pkxzLZ7nuKgBLB3hQkRyiCm4BD7qcLt6+uot2+On+mUMZ08ED48QpkZnbIRt3YTVwjYwOyPRC6nsV9dsW0gCZoZ5Dk21mKm8TZK3atAUWqI7Nfn/h3ZdrVt1KFDhASgIc0lc9ISioPBujybAxUSj1UQ7IJtKdBAuW1HFHvdvbiFhf8Zba95a1kQPhBXiyuk3kesjMrQDJnhC+QG/9xPsbecfEFx97CfdZyfio/fcWqkhqWPGcZvJWpfVPCV1Lq0OvAuAIEArso+W/jhC4hDleAhIMwN5tFPydnwQ8LGvqo/eTcaWI6/lz/Op7y6efXF4uX/5s+fDDjyoyuVynwS+W9995d3n7wsXldK2YcX8y7g+sCEAKFRscIDgdFnAd5pnUAoJ/DSj5eYAYGSD6AdEKFGqyXncqNtB81LW/iLvp0z+GKV7x3WTnt1vX4+UiCwvUrqPahYJnuwsFKucUsulZCl1e7wAUjwqDWLCB/HRKvEtQFtiAlA9lmYBhncI84ZR3lsS3uQNxuPmkQj6/FvI1g5XaNA+VpbiCRO6afUHevZR/UhZtYx2/5iEZ2fhtY127dm159exFuwvj0IGZsDoRDf4A5NeFmHSgj/ElOpgcvPW1Asntg7CVFauX7684VW5s7ffvHzeLoQa5QNv6ZSRAD+sdYRwSar3zthuuM/1FWamZbN9ag1uev1Tg73Tl9gsoIoW7d+52jIn6R4il5J/+9Oc+Vn/88ScdlTg698fMErjmtcnSN1l47H492WykPZG/lAs42Cc4oNuwrld8XBp31EFOIDoVAtjGzOW0S6hJUHdi8/u8i5uf7wJLyl7goGIlmlw60/XY8RF+un20skYkAuTdSyIAt7tbgxxLnkEWxjWaRYR5/4P3+/BgGT18+GBzFzziQqCKoe+U5RqYn/QDwgf1tJxZjNDr/bLgDz/8oJeoSdLu2vXrBdC1PkQYE5A9SWXBfiAj/u0PqgWsD6dAdwy2ovxAHGAAuVUb4OGKivxw/IMa4+1Lb/fyB07vHS5/CiD+mdWKkM6ePdeHGZNlI6PL2Ede9OaWG8Xe7GuFWb36q4MBoLXfV+PGkn8F8gzuGmQNB5UfvXBu+ah85/nyXZa9D5gUb9fA99bSBopl+6hAskM7UbEISr5XAH/+hz/0t7fLlfys1md6lzk//PjjcuvmreJ5b7lx7Wq7GHmAsk6TMNzO/Wp/qyfBuCwqruFJAXS35Dl55FhP5h8+/0Nf5vdKqXalWMvYl0BlHKIHVs14uCobIVkLgY48RCQmzlhWKZ/OD3ObQHQoMdkOKfjV5rCD1w7INfuvxcl5ziBbxgbV6UL5Y0L3qajI8RgwbuDMNKGc0pzOLGfB/Jjhcfnz/nvvL58VyLl9GzzqeP711x3f/vDDD8vVqz8t39Y74H3F5o9N5v2f77fFN5C1WnybA0jidZuhSMIknyjX4Fh+uTZSR33A8JsMgaUn9maN5LLZdVhalt0Ab9xFNm6JdZcaHZUwGOQOg3skl/Zlkq+BjP+vLBmjGeR9m6jEH4ULZd65dKk2qk97w/IZCqP+4FnL2kCdKt93AfUEOl/tK4qvFn/8/PPlYzdstbz9fOtKWe/XX321/Pj9D+Umri/3qsxp0oXTnQL2xs0bA+yyzv5kVBblENAn0VLqRU1sL+NS5sKZc8ulOjF++tEn9SyX9P6Hy8e1qZ48dbp/bN5/Q1Jg890dy7+sw8nhg+1qzl04W5NUoeDzWh0VY18rt/Xtd98vP9WKuv/L/eVVAXHm3Pijnwt1HjhVRgaau7Vi79y9XwblNFpRRuHG2uHSVrwN5Dl1+QZkbxRjwX1xU0/hk2VDeWHS6IHX8M8G4mJYx5nydZRkMQ4pfNyXX/6t73nd4lni/C/Xoe/9ze8w+uRVyeoQnuEpsbRYjHIRkPDr08ufLl988XmdBN9e3n2vwsB6ikRYKYsXGQw/PDa9vvcomY4drRNo6fy0JtGXFCvq+++/7w2XvKIRegvdRFIuvRjD1Z+uLjc3K8Np1I8Yh96D5HeuOrclBGRdvIky7MQ+1xAcU/wsZctpxInVoRprT5kepIS0vCQA8rPX2uduNrJabu3zqq47Vp8n5euIMG62xr7A+kwqPtqLd+X5WrIAy8dTHwPcfwCRS3G3wL/ymSYnBwibH+D5YRsaPXuCf37Q7kiEZGxjOgX6qRo+JhSowHUFYFPmVvE1SXQOfm3NARkZQD4J6Txg1mFYZU5IIjtWRpjxo8JxUaK5wN/OLOE7ZtdG8aSjBBGEDcjXChuHSeJPx+ls3D/r5z39ATFi1HEMBzB5TAQghWgumMTxNjq+cwA77hi4FUqTc+hqPp3+xmkVL89xiBoTYiwgE98mSy77DbnF431XXS5jxOGH+kYvIHtKfZ8MwBncpC4vBTQkXH6x2bBXma/QBrbMh9MfAOerQjXqwZtPVVHYFxJhl01MIC/OfVA+HY/eMAtsEzauFGtz4iY2LgS/5ltksyKDukcOA9VOtOMPeMTEr16MH4yPFXOr70JssOQFILBYY9yOuwjxM7fAepRZISaO1eN/954VO8JSq/fmjZttxWRuMGvi8dQ3+HX5bMkzwJIGOY5SAF5i4o4j2+/WjNc7cLXRXpu8exm/qBxAvyiebUH12rF3kYPFY5cstZk921ibxCIAKFmiCJ+ATHEKS91us4ocBryfrT3AyrPsAcvaPLWRB1T6OsyITsT+7qcBT75OBZx3m7gIahjC4/LVFfXYjKsMDxrirW30RfKvHavzTMo7xaIchll20lhi40eE3uf+NgYbIgI2n+Zv8myaZ2uTclrSDkBtqfpprKwm0ltlS9BaHXbp9qPj0oiVsv4GpCyuv9x0fx9Sn5UFjjthG6vYOpasj7E6Sqnx5cnPivP5Km2ia6xXHk9JRGXSspfQw3M2BCTfcbKKGX2UxsDDAHlPUo+pHddRFBk8ABPIhsIHK+fbKGIzAnLfU5RC7duBWDxNgssgeSBzO8b3NylcAN+YTcuz2xUQj2q5slrhGX96/cb1OlicbnAAxnLzq8+U5UlOMnV4V/yVkRdfT/Umkq75aZfJsuGxZO/RGSZ5BnjptWO1gr0ooIcozwIAJmUAbcbOPa4HLS9C9oGhQB5+71Qvz/7zr14FPlhuVkH9M37UmM11jNnj15jhLRlLef86yQ1g8TOOZe7bof6ol3uBGiPI7RpZMuHti4u0k/RpeSr1RBb4QAZsR0Q1cSZAPRlajo1BkssTdfkM8po0eLVvDOTmmZ+V548t0V5mp0/27+Ls/Khv2IRFZVU1fAkyjq/anqhNSbzs5ktkkP86i10ZaAIZpzaT4a9UAadN/H3zrnq8JKsDHxboIl+fAfSR9skuh8TDJmxM5IhIAAtU4LoUEpK6z3CAsilfr83ShLDG5+V6fnY4qpOte5W7HXbeb1foZ2klGaR6Yh3WxNqN2wZkgO+ArCIkn1T2Xf9sXEUt3x2Qy9oATWAuw0V9wHCHQPED+/3x4IsGWh0FWRBQ8RRV4Ed5Fuvri34m4kRNkgt0gHEjAM7qkcJLlHG6wOxNywVPW+mJOo2eaRfggOLAIc7FW70+rJj/9TTBQsh75VJYqWM3MjGAJqew0/WBsO3nioxEP+qADKbgYQXACsFiB+QB5nagWTJqkA+Yoc1prkATzLMgFuGzPKGwAAZrPlIgKYhPw8Nsm2RBu5s5I+oHdZuI9u0Oqi0wWS53YIKN2UIXfwADDIhu0Hy8Pc2SC2DhmElSD0SXRybFpAFYX+9iYjo6fd4pCwWkzexqbZaiJu4AwE6Afhzz09VxOn3w8EG7QTQwGy4CyOP0uQXkFIwOu3mp7biKbSzD2hKmcA0jjowLYHUBgbUePzZOhXgQWKQBKCvBcnTF6WjevrOQ7x27Uv/SqNpmyfUnpPKL47Q1fH78af/8wHe5AtCkUNiEsmSRDN5AbZ9dT33waCBMdrkD1nujYl5Pl1rff/9tg22z9Iv+n6781L9G+vGHHzu+Fxc7JDVe9b8+SzC6MhZnh+CIYPErnzwDLJXIXd6C1TsFnJ6qsiMBlt0+tCzJtWX/6mbjr48crmigLBqf7NR9UNlschRmUQ1ytREm2VB6hy+gtXcgcWHOetxrENpk6iuxVtFH3zvUGH5v51bswvlz7X5MDuWtugCOnBIZiz7tIsoVmGSfxu7WAcPmJxb2YVYI2O6iooqOi+lfBA8ow4COwkgGBCv6jbLSt1tvKMDOqf418qZs895UTDCy5M26mJeFueECAoWACURWxx+q7yW/OVF575ku4eRNTAR00c/32WRcd9poKK5OW/wlfawwp8fcZbNAF05iY3EyP+pv89QB0hitW6ux+3kp4abJBqo/kr9y5cd+ArhPqRuAB+Ex9qzcsYTC33Prn5ihnfc6nu57VbNVTPrv8up/QOlNsMr6Byf1j535wS8Pa8etJQ3Ernc9Wu6DiyjhAOHbnaOv5dx/xQqssn4bp1/n+3sRlnTk4JFSYfxHQfg/u/+5igLOCM0OHl7Olx8+fsQH24piSq6b128uP3zzfe/+y/OaiHJXNlz+mkqsjA8GsIkBrJ8R3Kuj8o2Kq+/cHT81s3JZoztsHwlctzKkfPno6CGTVEmeoXCd6jq/qfdsIyqr+9XGlycK6HtR2hLA8m5QKrE6lIG4GcTKhVUsXJ7CsWi8ckA4cXTzOZ77KYBGv1oR7Xu1H79kAgzrHF9R/HlxAVWTf/joiJGtIjIYQ0L6WX1xASyczLFo99eSOu2iE7lmjPZKxoNb8q/9P+asn4hAaMeyp4S0JRxmgOMj+Uq+r3+dWUdVZUAmKDADbgCOMIhi0pMHY5JsTO6UteFy9EX4GDfA8OWScfC9cOliT6YPBeTqza/6qzMWI8hYkZ+bMFncS4DWDk8Ae2aiZqzmPD5S8Gnj+S2QMV6DGwaeES5EkViqnR/InoTTNgrzpwSQEF7a5GT18un4fQPl3Mqpz+REBqCyQkAA2iQaoze40+OvoPxHSTI581jaAhTI+qiX9x8TwTOnOhOA4AAX44e8b8POONqj3w0yimLrpG1mWR5QsVDKsWKgG0w5xZVRShvl+OivHo92NbUXUF745tav1OlIpU9V1daYljug4i+5Ce6lryePjq8fn3/+eU+ssbSJrBIgJWMay33El19+2XmGE5ennox4qAspn59IPiDro/3/CuS5HOknNeN6EpSCwMPH4AGZtRFaQtxSogVgvHX+Ym92+HTf2jAbrA3I/YOXu/faD++AXHL4POQy6VD5ZPz8VSqe6qySDg/LilFWjXcp0QjjADCZ6CIZE781zVgh7/TU15j/z0CmYNrpG8EQBRElDBwL1k4iuLbqlKvH62Sf3CqGrv4NcFkny3S3IWoxLpB8X3R65C7Er/3zqWp3tuJkfPzxunFYMDcQF2M8MjEE7x2Glh4A8pTQ2gjUh2acQtHf2GRsPctnNlozaHN+ZpS61IcIIIV69qofAQmlPYUMrM47pdXPvJL3dLARBgKYcgBnYb0yysKNJ+bWVp5bMZbfRJsoJ8lMnjZA6/i5klMcWSK3fKhB2ejsGV2S3iRziBwBufu/CWSE8Vy37RlBvc+CGSwgA9VzftcOhY9n8tQMD6ACrgEsS6VoDjXIUZZ1azsOQ4f7dIjig8nINbDayBKQ5Y2VhOb3GejIHIq8KHy0ycR1XyCvG85PnULKtrVdW8MsVPzhevl5T5/wTUIsH9FJTGxD4zrchYzfPe8qn35AZukmxFEcfy4lQHIp3uOSpIwXcKJv5J/Lk9YUHiFyhLf8vgqvdlqsG3s3QPKhdT5KSLNQ3uOTtVHm3TN+L7xmPijH1/CbkzKTQAGpele/odxwFYfrdDmsN2GYft5nN5W0HiOkPHXJ/x7SPrzJ9Lrtr2hmmkGkedD53XNOob3aEoDCc5/Uu9BJcgOI3E37ANB/51FP+Z6sAs+keHehlB+YhBdlkbFMgrJtKe2Tn+VJ+j2Udumz8xepEWRNabhOawFmoea6NWUcz57lapdn+khZbuM3FcPKx38/qCIJn+CLR9r6Jzz556yQtRzygDbenOZ2ea5T2qxpW9t12tOS02CmueNvpQgkjwZgww8CTIrgc/o1n5Hscc2p5qhYTW3kd/m7hAKyOoCKTLgoec+kGex5XLTL+9dpL1rXz322grxX45m2lc9lczkCwgy0pM1eCvrAKr0GTG1+wDl48HWxrY0dkMulmEDgAbijEn56A3Zi3RngbZMbWr/PtK18a9np0+P/7ber9o1NoJ8tuk9Hu8tOQgEsihE2zAOgurTfiwCGZl6eaF+5CNT/3tQnj1wrvon8+nLmOae4E5ORevJLs8zRKU+k/fw+5xFe8AjPnshN3es0yb9m8lukffok//fyeI1K2FBz2fDyVeJNCRjzpIW2yTLLG/qfyKyPSfKc+1esMTIRJULN/95G2s0KrBnP+TdR+KzTy+peAV0/pVdOd9Imv4iV35BY62ypaC3jTHvJvq19+M2Udlnxede2JJLb+deGRj4lOmwbDM11yc+DhOb3AJkUSn5dPtM8xptSNtfZoreNNcsV3nN6E6V+fmb8lBnH/5nbDpgZuP/tX5XeNNAs9DxQBkt+pm2Keq7zcxkKr/D+LQq4c8LPc00zb+nvod/TdyNtKbOrzyY/F7xOMwDrQeb0JgqPbWkvmnlv6zenkDxgWTUXIv0WzeNIv4fSbpsMv/LJofG+u+v+HkrbOaV8pjUI21L746qPX25fLG188/NXdeh4Q8qYeMWS40KUrWmWOenvJX3ioqIHmnzyoG0C7EVpOwu1Fu5Nwv72WBv++fc0TpTYK83kPUBLfy/NOqx5I/Xb5ArtO3N6c0HUOmyy2nesrNOu/0vHmUFi3W1gzoPNz+T51rl8BoD1zpsI7mLj/mlCLLW7VpkHmt4P7R+x6jqhGZR570iKHOnjPfm0QXOflHFHYmOkDD618YV2c50f/9uhCDg/k9bvc0rd/Ayt30M75Z7p2//2TN34V8pD6/e96Ldk8kwKrduG9mqbxJRaVPVp1HniqtukUf7rp5RluE6pT9qL5vo8zb6F1ams91ep2qnTLklZ8uEZfjOty9JuLXNo/R6ay5OfdU9+38mT/n9GmLvGJTiz37gKlP9wEZoZ5mk55B3N+Syh0Pp9Gz9CIW3npYxSL8VNoXlM5H3tirY9wzv880Rz2yQUmfK+JhtfjtXo4MGDy38DAs8FAR0mVcQAAAAASUVORK5CYII=;" parent="1" vertex="1">
                    <mxGeometry x="497.53" y="137" width="44.95" height="50" as="geometry"/>
                </mxCell>
                <mxCell id="7uX397mnJ79mEGuJaPBq-33" value="" style="endArrow=classic;html=1;rounded=0;exitX=1;exitY=0.5;exitDx=0;exitDy=0;entryX=0.25;entryY=1;entryDx=0;entryDy=0;" parent="1" source="7uX397mnJ79mEGuJaPBq-10" target="7uX397mnJ79mEGuJaPBq-12" edge="1">
                    <mxGeometry width="50" height="50" relative="1" as="geometry">
                        <mxPoint x="380" y="250" as="sourcePoint"/>
                        <mxPoint x="430" y="200" as="targetPoint"/>
                        <Array as="points">
                            <mxPoint x="590" y="300"/>
                        </Array>
                    </mxGeometry>
                </mxCell>
                <mxCell id="7uX397mnJ79mEGuJaPBq-34" value="" style="shape=image;verticalLabelPosition=bottom;labelBackgroundColor=default;verticalAlign=top;aspect=fixed;imageAspect=0;image=data:image/png,iVBORw0KGgoAAAANSUhEUgAAAF0AAABbCAYAAAARKIneAAAAAXNSR0IArs4c6QAAAARnQU1BAACxjwv8YQUAAAAJcEhZcwAAHYcAAB2HAY/l8WUAACgoSURBVHhe1dzZmh1HsS/wavUgdWtozbJkyzbY5gD2ZvMCcMMDcAPc8PEuvNxh37C5YeZjMB7kQfM8tVonfhEVa1W3upcaZD44sVasyqzKyoz8R2RkZFZ1L53cPP582IcOLR0aU/vQ0njcg7a3t8fU3rSo7pWVtTG1N21tPR1TuwQYs9vbW5XYgw4dWtynRXI/D6R2tJiZpdm5lbXDw7Nnz7KNpaWlkHMr7nmedf7whz8cfvaznw3f//73h6VzZ07vC/ry8vKY2oei4v3oWTS4iBbVvfVsscJWllfG1N707Fkr5UVaXnnZvfvL/Xy7UZ8DPU0cCrkWgf7Tn/50+N73vjfE1Sy/J29FBYuYgPvxXvVNea/6mnVp0UfH5rwV9wRHB5ujyL68W87dPG3nhU8AWZ+ur/N1DsAvY/QS/zGRN340emjCr0LTeqoz1c5uClFfEDzLz26oLjuX+b0qmdBYOlNJcJjyhOpUtbk9csrgSnyzhpb/0FJatBHsSPksXvmnT59mGemVGGkvBf1fTdXP6e+Udp+pDo/dnlwez8i/hOd3Z+YroLGSfeoqA9lpCf9W0EvO6vwsHTz7VHZ+rvP7ne/8ok+Um/F425QXUVn27KfKx0/fx5KbdgM9zf/bQC/xJhJ3esrx00BVHsk3R26WrrxydX5v3uPEyAegBK6c04h7UdTjs5sa6N3W/u+z9Oz0mJz9FGUXdMS58eL03BRo1+fX+tz+PPPLuG4urp+FVJDvpNldYyLbn9Bui0f/cT49UzO5C5jsx3hhx2cET4FpfhHHT6XjU9+s+GDUqM9wdG/Vtaie/xxLDyoxs+cTkeedgFEc5uc6v9/5zi/67Aa8vtOffakcywvI12173Npg/8eAvnf3xrO7OpHJHTcUcHOw+0wmFrJDHTvzj9EE6qJ/oo4IJKOa54E9jmxEzsHLyUidyWSMn45XMc3v9xGrLuKsNSv1BeB2rvhy1Vdnsr1yCbMzle9WJlZkWyFZvBxF8PPo24yjPM7+5rH6W2nnGoPx+hSLpeWoe3lWV2GGu47muHNi0S3/vM9FVfIrInAUP5+DsA9nwbFsp5usSneuOkfequPWZPU556fD0+RYkY6CZKfHT2SK55gkKVrHSnWxvnde4qujrwT0Em0mbZ6YWuFePL8nqygaAWnFWOV1+TwnH5zldoA3QlaV5qpwxoeKD41c1Dd3+3Vsy+xPnXMY818RvTLoKUoKOwo3Ch5ILea6Ie/HM4pLyysFmI0ty+bOL8tPuM8fanCzTCgHxxJ8zqWs5Im2ut2WPX/Jz82N/fAZL40/i/hg9BVYeooVh4mgwfKLuJNzmYFRnK5ke+5WtnfnJ3PDlOv6du51FD8ZnjzBkc7jk6h/QmRoAXyTX+xHHqvUQj4ovRLo2dD4k59It7DPgLCAs9z42S3yVoPGR2d6a0e+QKYMdc2VMePw/eXn5/6fr9+Kel6glHku97YJfUwXdzGFqvy+fED6Snz6vGGilbDbzxZzEusOzqhiZJ/V1bVhbXU1jnOe5ddWhyNHjgyHgx2PHC4+fPhwnAuO49GjG8FHh40Nx408Nu9PYydGsGd9GT++XxW9Iuh7SDLKx2IWsTLZmQmB3e9GAnV0OIqBN80HHzt+bDh+7Phw7NixHXx8PJ48eXLGm53erOPYyA4aYYVzsU8JOOevkJbOnTkTVY6SxKE7jsJJ5LEbrUP8dj4lk20hHTM3rK6spVvwgGE5JjPWa4Iz9LkIlJNgXOMinobfXYmJcWVlNebZpeH4caAezclTubW1tTyqnyLU8SR8NhfjfI8IaRb94MGD4dGjR+Vaoqw0n54PPCJ///794X6U0Ze1w2vR46Usp3xOvuNk7HwaSrit1ZAhJ+L8xifkxJ3fin5on/tD2be4T70//vGPh5/85CfDD37wg2H56MbGzxvkunlMJI3o7kPZIBoBt2BK4H3CbWgQKPKEIrxONRBAe/z4cQIuEjkW1gswbuPE5onh+IkTmWfppYRjw/rGeoq3GspZP7Ke505EOeUdjYK1cEEKkU/00xGQe1KWCD9NuAwgy4RiEXkbcIaCle2op46o6i6uvC+DcH8bo+vSlPD+++8nf/3rX39F0EOIBDhCrHQZQi33xNcqrhtXHwGcr0nweQAb4MX5FvT4sRPD6dOnEvjXXnttOHvu7HD61Om0akBvBFMGnw6s8t1HUxkJ+sjyTdrM+SAsdC1Gmnv0jALIC2Rl5NEMdDxZF+RnlB9Jy2ZlfS1I3w8C+iv59Ko0GsuKo8k4ju0lEcBwwyVXCcWNGO6EORyT4Nmz54Z33303hPpg+OCDD1Kwt958K8Hnh02UKjBCnjyusK86Xp1VDxeF1A+oamclAQd2TrrrR0IpoRjzwdFjNarinOtGB4XOABzBMlLzmPNQdc4x+zn2tUCedPwl9EqW7qqn/ulGQjC36SyOU2ktAE8gEqQCYnX18HDq1MnhwoXXhnfeeWd47733hrff/tpw7tz5YXNzM1xETJYByurqSgLNBQH78ZPHw+NHj7NtdWqPa7p3714yP/7w4cNwXU/SfWlT+0iI2SPEuQIq3FQAvbG+kdGQ0eA+cuud0DbD0ugMpWabaAcslelTynTd2m/lTS39lSZSwoidCRYtZGdWA1QrxI3142U90ZFu3LHPvfHGGwHy2bRmbsIkxz2tBNDAJrzRcP36teAbOfHJA34ewRwLKZYS7PsP7s98dAIbo4nPd3T+wcOYWB8+yuuArYn0fvbDaAiTyDnm888/r35FGQqldHnyN+jqiG/2OT+ZCVjiAIM0wCDlu67pRPpK7mXmx1OzQA05YmibgADKci9cOD+8duFCHC8kwBcvXhwuXbo0vPXWm8Pbb709vJlu5GL4482YOI+HOzk1nDl7JkbCqfTP3IKlvY4QntXz01zDqfD5586fC/d0dtiM+8XpPbJyog3XwYrVcXjtcN7XbgJQtg6Uc02Z9fX1VFTG/XGOMhhBTsRR75xGRzMa3yRxIFoOKwv3sjctLXsHhYBVqbTfotBXqHZpaSXZS1WOJ0+cCRDfGM5fPJtRx9EI+46GuwDI6tpKRSIB7vlQxoXXLqTFbj+PERXVKrN58kQo4o08b5Sz0Lv37g4PH4WlP+Y6Hg8x4GN0rA+nzmxG/eshZ8h1aDsm3MPDydMnwhUMw+kzZ0Ih5wO01bjPCHmSBpHuIwAEG/exFqNi86R6wp2x+KXtrHt9PRQY5b0LI8Qsv16Rz/LyakY8Xi6y/cuwc0o5VMrc7V5Y+9S9jD59byIAaj029Eja0LNzx9ptx7IOFs11bJ48PrOQPrLA8umracXcgM5wGwRkbSyYhQLkfvjpq1evxpD/LIf95198Pnz55ZfZPh/LJd29eyddhc5pQz2nT58bzgfgZwJ47QFaG+SVVrbdBmsmCysn10qMqlyMxQihhHQp0WU42r+R0Ub8FLj1TWIkeW2kKejf/va3Z0HCC6DnwBlrWQrNqRftOGZ6tJoAnQV4acgk+LWo9L333h0uv/l6AgjYig5qcaMTWJ5Ad+/eHW7evJluA/PPJsW7d+4moLdv385FDL+so0DUGXNHuxx1cUtidi7jyBGup/LaADjustoHuvvVR9nOSz+O0dTuhhLc/zgmcfIwrNHm8nwe87cAHsIjNOiuaydHSDArn4F+bAL6HPDyWTNLH2vOYxaJiuNIgxYZVpFcxqVLr0c08vVwD28Ob1y+lEJrGOhlweLt2hfRQUoABpBFHaz6iy++GK5euzrcuHFjuHXrZijk1nAvLNkQJxXlWkHO4/eNDDlfC1fFOo2AoxvHw9orxtcGOXoUNegle028DZT8vVA0ebk3Ww+MSsREnuy/ouFWE3QM67GOiFOy7lZIp18APSKBEXSV+NYxafTlYx117MvxoyEVnojY99LrryfYF2OyPBEKuPLZp8Nnn32WILLWtjRCuK9BafCRjil7+9btUMKjjC6MBH4dIIhfFt3wwafCus+HO3s92uZO1gNUI2BtbT3je3UjQAMdIzKTxRE1SI5CYKtbQcDp02dyYnU5w9HoQ4EbHwFEfCKb5yykdoOeZSO9L+hVLCgSM+BHS+9s1oXHg30RViH6eOutiEIi7gYkuv+g4masgxhwhAJGu512OYY70Fk8Iuzj6OSdO3diaN/JDgvp1HP79q20fPeydqAqj4WkfDp/rl4dZ+mtWKQt7HqXcVTORG1EWECRD7jcC7nMMWL4ArLBqHvr2ex21tXUoOv3Lp8+j15Kd1FRftOJjL9uzoxv/FTFwGMRaeERCtpGdd+TAMSkAiB+mpWb7ChAZwnSFs4KXAeuSVI5nTdJci1XrnwWI+bz4Vq4nlvh+2/euFnlYwQ8fPQwF03mBPea6I6Ei3n/2x/kZG6C5NfNNYBUb1s/miqcHEDaevosYvuV7Oejh49DrtspG6U/eBAGEV0Hrg0w/YDxoeUAPhIV3RQ2rqlbvbstPaCZUCKKCt3KSswu9Mk41MeExapYuAYB/SSARmUB1URbF2GmVifvnh4VlMTim7kb57VlywCQF85fyKORZnGmzPVr13LhZGcSsEAGNjdDRvsyZBRdnTt3Lt2b6+aZllvbRyJsDQ89PAyAc065dSvc28N0W5TmWM9cK6rZi/RpER3KJzDjIgdlPSFEDo0492wrrsWl5UN26GLVFtakc04S+HhMOCdO2Pdej2sAux5x9Z2cFBuwXk3mvdExliOto9ox/K4BLa5JO58RTFgzRenskcPr0QarPZllLGqAaC/FXrl9c0rxtEh59QK/RxSL5/ddA3rv61AOkMhEXq5kJnPIw53w69V2xfO5CIuVLvC1E8Akhm1kza5NuWmnpe+iqb5Se3miVpyGoM6adOxbqLOHEs4JMIQHICKEzmtcXZTQwDr2EG/QHZF7+NYCuHYU7dPYr3n/2+8P//2d7wzf/e534/jfw7e+9a3h3XfembXhmAoL+RiIOjKyCtcDdCNUnRSjvZaJ8lG3a/SUgR2fbZZRhNVqTaDxMbHCaBdNwW5aCHr5bpVWJ4CCAE6gXq7bKPLw90FEGw8fsuqHKTjw3KPhdinOsyJRjejmypUrw/Xr17Ncg2NvBrPc9fDROt5s61eIyvKAZtPs4sVLGcWIolyj4FactuUBSwFIX1opzutLRzdCRNvSVp5eMKp7VzNMze3j3Oc/ngsok7ZoKswtMCoj2Yu0MwV/saUTLhPSZcH8D5DFxPa7dZRgj2OpzbJNNkB1rjsMcKw+oLOmjsnxrfCbyhm+lAhcVpU+2WiKznIPXAGA2l+fOWN/51zyGeEdVxHiApsM2iKzdp2T7vrJRjFGGAK+KMi1jobc3wYkz6X0vrwyOXLz7gBS5BCk3MvoJe5lXoEQKa02PrkdGh3M4RlaJzBt0LrO8G860+wcK3OPTjm20FV3jSD1sDZWzsIBzg9fuvh6bpL1JMg9XL78Zi7GzpoUQ44EMxYz/Ox0lduKd8Tmjo8//nj405/+NPz2t78d/vCHPwwfffRRGgHlP34cinhqi6DmMk/A9N05nL4764QEfGrEiGAa8D463zRNv8S9aNXXcBwtPQiA6eMCcEvmtOZxK7V3+vhHsa0jKwOmiAF4ly9fzrjeEZCsWJm2PAIqT6mXwwe/+967wze+8Y304x52tE9m7anwkFM31aE9gAMR+PJGoIkSqAD+61//mqD/5S9/GT799NM8r23t3ghXd+/+vewnGRiJIyDb6PpxnvLaBeciS58CjpY31td37L1M6dmz0qJbaNiOmx06w91q8GIsikwmOpXRSPj1R4+kY1hH4z2kAQNY1gh4UUOHcjoEaO5AW8oeXjuSW7Xnz59La349FAXkszGH9L2Y4vVa2NjvypDj/v0HCTiSF8N/+OGHyX/729+GP/7xj8Ovf/3rTHdYqn33b6wHyDGXmDvIvBZGBciHsSpOsI3OyBtF9oT01XXn/SkmA2zqNAzE6fjFOH0RsfhgCqBl4BD0zu07aUUFvE0rIdfDmf9Nv0dxDWic60ggJ6ZgZV3jclw7dbr21LkW27+OlKUsy1OHDgFJ2xZMFlK3bt1Oq6XsnjdY9u9///vhl7/85fCLX/xi+NWvfjX85je/ScBN4BRO8TVHhJsKZZLtiDbCegFms81Ru/2ODRfb7hHtZeH7EfcUgEDTTfwYttp6FkCotMI78a+HyYeWVkPr4u3wexHD2wmsMOthxOe3Y+V2NyY00YfdPnsefHes9J6xxLCKmOVX16xEt/L88eNHo7On4h4RxFoAfjKs+ny4nvDjr1/Ma6eDPRQBOKBZGcCA+bvf/S4s+eo4gZvIQ9btCPmWt4d7D+4M12/ZPLs6fPLpR8Nvf/fr8OO/Hj7/4rPs1+GYOwBwLOaCMxEUbET/jp/cHE6cOjkc2TgyPN2OUfPw3vDwaUzKW1H/wzvD/UexOn0SoXD057ldRXvqMY8MnisE8Jh1FpzccvGUlo9u7O9e6v7Rl4XWU7MhpN23M2F5ntoYvoayZbGO2IzK4R+daGu0XPeozGLDjt39e/fTqj1gOBxHo8BkdTI6fDYiEruGaW1hgdMhWtHRg+GTTz5JX8wnCzvJ0B0z36ys1bNVZbmAuzEab4YbsT1rRJAhI5JokxxGkJGkT1/7+rs52mqle2t0PQF8uk0u9EkaoT7ot5VrT7q8AXnNMOn7x/Ru97IY9ODy6LC2yoq4NY6EFBd/5zv/FcDUgwgPHiwiWKO97ePhk4HqPvQ8yhj26QvDLRFYnltpF+Q1CwrlboBmBOk0l8GyRR4myZ4sPdhwXVmANPgnT2+m3K7di3YARalAsHsJoI7GvHzEMHKEx4fCKcNKHQJkW1mJkBjQITeZtZcTdAQK2kQZ3+ex+pseBOij0drwOhDo9XCiK7FYKO2dCP8n6vCcc+3wagoCcNEMKwH8iROxLA+F8I1iW/dxUWkl4QbaMgj0KCyP8O4zeTkHcGDz2dKslsIKoI6ha6uV4pyT1v7mqc3cdOO3P/ro4+Ha1WvDjVDSrbByZoTcYyQZGYCVFnJuRPvqEgIatem/w1UaMSZTQFJoK5rSygtUFCWUTGuNMvoMQ/05+ESaHSnt6RB5s5MhpGFpRSZMzEkl9yJq4gEIoZTVGcqwZ9IuQ0drovsygfnTn/6Y7oIb0mEEZBMhV8KN8N/4z3/+c0YcriOAaaujj3Qvcc55yjVCKC/dSdTdAHMnGe+/cXmcqCuyAiiL770o5a3Ac/IL0qd++F5co78wyhL5Td6HFoJe/Y9GNDQ2qmaC6BxXAHya1fH8hwrhC61O7969F36PdTzOCdfws6x3j3CMH7QQMdxNfrYRYoRrIC2I++FOuBDAi0Ic5YHueg7xAF9eWMidpMsK2fodFteNJFsalvPOISPKbuVrFyMUjXlk84SdyM2Qx/wTPBoO0vf2zZjyYONY58rlFFb5G5/9abGlQ1MlCXqdyUppOIBHLYxmvM5cq07vo5TrIEy7gh4BgFHO3FD7JxUWynMPAG230hbKHdR8cXJWF1aGNQOdRQPNwxQrVXUZ+gVSuR+va+S2QbRrH8VupcjHqPv0ypVwQxG3R9vaID8Lrncdx3czE+TifNc+DW189Je9brj7+CJ59JzYjj9ZNjUF6GjQMAOUinM5HEcdq1n9fk5oFg1eTyNI/olKuBpD1WhoQXukdB4BjVUb7sAEjDrV7bwOU67zrSxEYeoDjHKsl6LQ22+/ndsCfDGbMroquijgKamUGRPgc6N2NTq8FK7tcT4mNOkaHfw3OVsGI4NReMFJ++pnZBkIcK2McIo3HGE44aaFlh5Fx9SokCSW7RW1rQzXHuSkGKFX7pfUW7R8NzAaXIKXz5s3jOT7fLO6WHSNmJpY1SevrHqd7zLYdUpmwUaMrQn39V4M5VKkEUFRyeHWAM8dllH5a42nOeHezgm8tpwpVEDw5uXL4f/fCHd0MTf67DLmE6aQt6x9j7/y2IeWI0zbN3oplZWbkM6ZOciqTASjg86xDNu6X375Rb6bQhn37z2K4X47wyqWxq97tEa4kDP1mJNsAMaCTLQeVACe1WhTZ6RZE5IHIB9ukuXfe6IEkFWl/ZxLr78Rci0Pf//734drcd0zVu1SmLmDHACzU6oc+awXTm6Ob5WF8Xj/xZsFpRDPYw+lIlk48Y12bVIe4I3wXGOGYcgjE660vuyI0w8CusZZPf/IxZg8Wdrlyzq3lI1bmQL9xk0g3B4+/uRKdPhaKiQFj9CqX+IHLNfDpVDc+XPncx8GwHby7Oe4h5X1aJHv+B4Dv/2u+hB/bSPNe+3AoZCH0T5lddSE9EFblJzuIYDn380trJoPB7RoCrjPYvVsDQEOf7vkXG9/kKOChMMpOzxGzGega39HnL4I9J6EGijDWycJ7Ck84J/E0v5qLMNrIvo0fXxOhHdrL4ayahgWcAlS1MOigG1Di1uQF1t7xwWGrLJdQVnok1SujgJTR1oWTE6WqK5T4WqsbimNzFyf+uuBSEzyIUu+vBSUc1XUtR5Kscl26kyspEMAgHsozWi8Bcxvu5E85DC6euLWtnbU6d7C3MQtTq9J98Bxej0VidshllSa0xmhHushKPdQE1e5AFz+th5zmXBSmLhXTRS4EQpjkYAS76cVBbBec9ARClIPS9JxR8Ij1qn+fMgRo8UokTYC+z5WbRf0G9/4P/kU/pvf/GZ0+J0cWYxFOX4+jSTazJA15DNHARVr0zntCQ66b5iy4KAMBZER0PrntxHbixaDzuQmJEcIAnvib//BNkB3/ERa03oqwCR2NIBhXV7SLMFrJ5GyrFTl1WXSsifitQppHdExIGenQgk6mC5hMg9QWNYVnMqNuslsomd5diq9//7B+/8Vw/v93JM/F8t88xGZUAIYbqH/bDJHTZzXtr52fbfDndjKQOrOiGWMWmY4NdKFfHz3hv7l0Ut8ZzdLR1J8ykdzMd6M9WDCfrdhzYqATlBL4Lw3vgQjoMgCQD3zA5S1mRxZl7e5KMI1JA2MdiUApmSgs3ZtAdvRNWlv6ALTdXvyl9+cPzTxNlg+lA5ZKU2crj9CRG6RHN6vIYs61KcexmXxB3h9cV+3aVWuTyNKL6UJ6KO2JsQfIRONrVnPCw9FZB99D4u8FWBdS4tnsapaX/eU/Hi4k4309f4/4tZWxNFb4dujpY2NEHDDHvtSKIdlsn4ibEdd12OI3ssy2zF0uZn7saoNIYaVaN/Rrsd6RE6bAbgyz2OucffTkGE5GnBtK9zE41gJ37x6bXgW6UPRhQ3KCBmPhBs7cmR1OHNqM0LMzXBxXpM+Opy/cDom0JXh2o0vhnt3b4UcNskeMfd0i8tLq8PSdvTx2aHhwb2YW+6E+3uyPazE+bD5kCUirRgpzwIvbOusts/2ppB5N9g785mLn4pe4thDKShn8bAOj7dEJsrwpayjI4WeEFmrYclqWKkyOfkY3mHNjlwJ32gCY3XS6iW++liT991NjDlKRl9qyd7tsFCrSqtLE66Ip30zyzRURRgsVZ2ehDlXLrNen0tZQ4meHxgNWFTjKVIZ2OiWQvFGvDQ+KFX0kqAGTY51EL2ETGFlPkAFVD+A9uCYL3eNX+yGlcnyUab9og4T3oQHdG5IB7iNjk501tG+twktQY88ebglCsP0biIHsvqFbFbFNrq0ZUvAqx3q4S7s2XhUZ1Ptk08+juuirat5nUL80YA/PBAZuV/sTS4ymgNsGVB4GkY+D4hRGMokHyVlv2EX92bfgdY4RFpdO6KXwndEeXrsZBCQ5ztpafPppzWsUXmvFouTT0fIJeZtYIHd1i/deXURBtCsTJ4SHCtMrMkUcW+udT02rlBdD6sNtyG2tsK8eav22z/+6ON8LPfL//WY7v8O//M/vxj+N9J/+9uHsXi7MttqMPekUY1AmVNy9EQd6u95xEKKrM7bq+kRgZTRPmxQYjSm96Ll8K0/z8vxs+MYvwkudPuMa2OFmNVZUIiJhY7yfCAwFSYMENvKKQFwOsjCdFoHKU8H3Kej0q1kEYL3B/Nvf0ZLVs7ke8vbu6PCZhQyesX6SgBrH/2zzz8bPgygrU5zQyss/9q1WKWG+9L+iPWsbeErYIGK2g2SU1zOdXkmqw0LqBpp9caviVa6FUhWafVO39qd+PSdR79chJSbVZYb+MbGWBRw92JY2jp13RAUInIFhAB6A98CNND8LeBYHDa0dRSIXl0zUrgiyrSgUZ+VpPsxf26YcwtcUQEYAISyLOa0m0BFKEpG17lAZNSQ1ejsdrhJboQfd90qPBdIsdL2F35cVMoZTGFckO0D/cKo09P8XlQmMsexaFfZrkiHIpUfKhHNXL12LVejt2Py644r264DkD1c27qdb8tGjq6xCAqymQSQBD1GkbTRol6vgZi4AeilJCNI3G6UscpaOdZ+OeCVty/S8wHRqz81V5moe0Ima7qxsHZhoHcWGQBDyj0mrifK6Av5KYbsDMVLteptmqZ30/LR9fWfjyOsBJolRnhNmj4qydNjiTgCqVdmlsDyhHDNkp4wrrUikDIABkgDBlCAybNAHW//z5/n9vI4URt9FmXuZ6XWCF4K9TDC4swDjI5wRDJkAGLW5Z7jJ/JY80M931UfmSicDPyzurlOzC0C+tNPPk3FMJyUJeRq4PF0RCPpvmYSnfxRQPn04gK3OX4qPTufNY1p7wJu1cwfQ5Cr4CIIJL43qeqAhQyLTX8fQlGCMoA1pHXKtmxHNco9jw6xNBNYLb9j1IT/pFgdApp7LgbQFjrNHogDXMco58b1G9lWJLODQCo3tZ2jhILVx9qlc/MtuLeJye4+9XhMeP3G9VC+F1MBychipEbd+iV6alymoEvvBn0yA/3jlMBHpwD+8cef5OtqHZqxMNalA4AFcFux+wjSwiHKYEUszuhhQToMJCvf6d/yU6jnm++8+26+ZteWjl+/9HqWZemUTw4uJiOU+GjXpEyh/ZfZ9oZYs6irDaXlNcJMoOagenWj3CPAvUHQFHCPqZcTJ52d25NfQgTmLy33+UV/uUC46xEdAJ4yDEPAUYBjWkUwy9apdiMU0f7e/GACrNFjdVj72coDxf1JoTPujx833xgJFPdlzDHk4F5y0RblgexeSuNijCrv1avL9ZQr6uBGyEH5JmDRDjmcM6odU5FhFBOb+YdojF7248UEIMJa3RHYXrOOEtJTfm/HWoS0bwVs+dLytxkFRCdZv3Pq60mXqxLy2aMHoAfdJivAUpJRAuBcyBjmoQFAue/vH/49X8EW3bBUsqXiRVUhK+CNHnkhoiMZ1Enh2vMgxusbHoiToQ2iAd+B+Muh2kH5d6S7oW5+mSKBA/T2W4awY/6XuByCtbhBdb78eQ352kwyjPljlt9KvBthmfkCqO1y2vrSEqP+e6EEIZxIxrC/F5Ohp1affiq0u5PzjFESek6QLePTQAJ8I8Y518hh3xv45gqLK290sXD1ffH5F2lE2tYH5D4G5L4aIdJ1wfl2m512366JdP8/Uz/I6NFYxvMEiY9GdITVN8gNGCtm3diCqBdFOus+FsZSH8R5inGNX64IasjFB1ejM6wty0SeEihDFGLR4hUQMrRi7d1zLyY7roX/llepOo0USnYfkFn7jXwp9WauA+zJAK6Axu2SxjQQYJH5fzHoLCYbiC8BdIrW9YYraNAdMasFqonJve1K1AFA1sXteD9QtGKiEr7l8A8LLehro40yuBpAtZuR7n8XMhZNVwTkfCkqXIttivTth4/EyLQ+GBUWimYMVrC9t+K8p0rAs7+DElh9TbDLO7dcBwV96dyZs/tiq85E1Dduzo/SY6U63vm+Xt+w9q2KzSmCJQPPsRXjQbQ0INIaIzLhAnKfZbX+os0iiTuoVz/C6tN3l1ujRO24H1Fyrjijbg/Bc5TEaACW+oEvavGCEaWY+Lmo/lN4O5v5t6Kxus0ejP2ovjnU7mRCHG2UIhznlm5bt90t0l+Ak8X/evnRj340/cdpe1O+Ql3fPcn50aDGROdKwymcz3j0rX7Ucp7LAVYeR4tlYe1u3OPITfQfy47Vh0HUS0DKuq4+DyPyVbcxLE0GVHzdW28W19sLrNp7Lh6i59xghBlBUYey2dak47P69CF+yo8X4LjbyPRI0/lu1wukC0Afj9PW89zYyBz1KtnJzuVnFKI7QgBsF9Fkyx30BAmMWm3WXzHna3pRxoMST4P6nHbVC3CyUJglupFgf1yMnkKM7aW/jslWG4DtjSuLnptx5PJqLqilfMrafdafONesve5Xu5PKG/m1+eV+NAUd4AcCXYPZw7H98UT+aohgjjOKZOZJIJXHouzIGN3gjNnTUupaTowBTvrjqDf/D1cA3daPASuff+rC3UR9yohgRC8sPhURbatHHTbjvJNzNyyZO0kLD8u2Q5lghzsx2tp1TftD/plFjwBXfidnl+MDpsyPR5x9C7mmoC/06aG78VhUBcficUggfZySHvN1rYWv631+TOVklqfCDwIvXUiknTt8uJ7q1Pvt41ZxVAJQCyGToH+A47UJ1kQRWPljMWlafpBFVMPCXat5oKIQq8l84jNuKwBNPbnWCIVmPtJ5LhmAZSB5Mb87AUd8OhlT3iD36pc6p//DayHoYZdjam/KZXACV2CT309WOIKeubGF7OBIJjYX8uH1LtBXVm0JFwj5EFwkE2UadA8x7K3X5LhaLigs3nVRUekIsNVhIZ/rrH8ug6PJcCe4RkZb6SxKmbiRpAZ6xzHCz2j4IKC/ZO+FYHOgVLyT4zcTs1zm+5jpuJbhZHCCNjIAMGsjWCsQlTWGsKOL4Pe5E9bJDbBa8bN/luBPVLgX7qdXkxY4Jkiv0/VeewIxk6eeUuVoiqM84zAC+pyNNnKmMtLKo3/NWZFvH1Fd24vSKCcGtxj0Wbn5DS9SN9k0z5d4JUz7xbIozY4jIgrW+blCQkLfPGahKKPj9UZwRCZxirJygg3OBRL/H/E9ny1mr790DoXx/aFQbXS0U6BOAI92sr5QcMuQz11T1lH+bLVkgW3np78HpZgXxkr34PiJIs3V/ynX8AsLJhxhDf2xUwB6oQMTi5Gf/zUDQOfM2uq+ssh+ElWLGX+jGsM4gVtJQcjS/2JKvK8sny8+F8lkfizfdWf/9CGO2Ua4Ks9BW74575S5+9A4p12EPOkag/LaS2ihpbt9Ee9J+17YTbtrm/IelJfiJy8HCH3u/0MK0Ntu9+KXUYPQh0nmZbyI4noWybKjxfn0cVamCmY+6CASH5i6/qZJ8lXp0G6Yp5wNLWCHSWKeD67fBdxg7sFZIr/yWXh+fepjXaufGaXciyjrezln/U27869Ipu0X0W7Ohhbx5LcSu64s4v2pSsTvCG4Dbv7gU52fXatbRpoJvi9V3Yt4V62R3N3Kq9JC9zIXZG+uzndeYpZ5Kc8sdw+On+Q8jJN1RRIjy49liqNO1KIvJIUX8UiRTHn63OTSq9Ji93IgIt2YTDqgdIrtxzMaT0yv4ZHmycnJr4J2V/cVV89D7vuJReAYEtlDsLegdSzoCc9kPZNc13MVmlyh1SJeRGHHu9ifgM85zD9ZOJf/8in/7VOHqeNzWNeNkhwpVTZH0Q6yVqiFyw6Ojuc+UXROONj5OY0IGQnJY3uR3ooFnSMZatFXf1Tg2LS49//BVPDtBnF3vung4zarGLlq26/Of57+haDr6CL+5+kFMBKgnfnOzlusz8soLXj8zCqZ0by2vflg9C8DfS+RpvxqtBPgAmhOU9iS/oGG0wM176BS2SI+GA3D/wNHQuGU5xJDKQAAAABJRU5ErkJggg==;" parent="1" vertex="1">
                    <mxGeometry x="497.53000000000003" y="230" width="51.1" height="50" as="geometry"/>
                </mxCell>
                <mxCell id="7uX397mnJ79mEGuJaPBq-35" value="" style="shape=image;verticalLabelPosition=bottom;labelBackgroundColor=default;verticalAlign=top;aspect=fixed;imageAspect=0;image=data:image/png,iVBORw0KGgoAAAANSUhEUgAAAF4AAABcCAYAAADnGgJlAAAAAXNSR0IArs4c6QAAAARnQU1BAACxjwv8YQUAAAAJcEhZcwAAHYcAAB2HAY/l8WUAAC0eSURBVHhevZxpd2S5caaRzIWZ3Nfae6lWy2od2TNf9AP7x9k6nnPGX8ay3K22Wt21V3Hfk0sy/T4vbmSCt5JJVkvjYIHAxRp4IxAI4F5WY2VlZdhoNNJddH19XaUm08zMTJX6mIbDYZW6mQ6a2la8Mfb1YJCuh/DQSM3mTGo1W2lG8eXlpSpVdeN38dxQndGYxE4OU0Nxq9XKeSKeTVU5dN1SW8WgMy7PbYOGLsz4kR7VV97gapAazE1trgZXqdNqm5f9/f00cx/Q/570y8YbmuHhtaZVAcVkGw0mlSer0vzbz7k+D4BkIKpnB/UzEkaANgr8jJ/rpFFHbYLGgr0RTSWr2n3AoM608P+PNA3/G/9AjMiw5STz/CfU55/Lcv7tlMv4PQJzAk2arRWDlm6c86aRTU2z2bxhStxJFYK8LEV1hurPk4i+EQ4mJcyKzYcC7UNwk+LLq6tqpgjYv/0ccf4Fr0QV337OfA0GjJ1SU6uD/sq+Iw2N5kEcU2o19Ss/sHLMK4/UKdtGUnmRbsusDMQ7pmYoE3mlNKaGOR8cHGSNv41KxqARc/9D5PFusjDCJOafBQjQEuKoNPM+4r/Kpr+YQzmX2+dV9vhpRMvcenIPHwF/GxOT8m9n+CaVINAm2kV+WQ7d7Jd8lecHEe2J9Evh+lqbroPyCfqhdvTJBGlb9hnpkpdIu2s1iI2yJPPIv4LX22jUn0OVWdAI+KhUp5hAnSbVvY3K9vVx7poExa5CoJlD7uOaIFNik4XmO58q4/7LsWLsSWFS+SSyCtzBM2QliH4cqgIRc55qam6jOlO3MRkUwgtGIkR+hJJGdYz4uEy5/skgV0+Rdsj7RqyAIPLqcbnPRP6dBO5Vchrh+mYTqFD9QDHPW4G/DZQ6g/dhuN6+bFOWlekRKStnf9wHII/4c7HyNFmvAvn9VwpRP+JJoQQ/wiTyWPxM4rNGWeMLoRZd0v4jUzOqWKNJ+ZPqTaJgNPoo+6pPol6XiSrXvyGauWlVjpeEP+8aymclDATkQKAPdGi52Xum6DtC5AVh3wVZ9VQjszOp15t0o/8JXf0iUwOVjP6tNFWDiqICGv9AtHV7/XOOJ5tNCCFoBMIEivxReVQrqpc8TuF2ROav6K7oytRYW1vzlQFH7+ic32iQn6q8IadEJ/KUb0xEcfj5UH2Qq4u+fuPHA1L25RszTYU8ChpKI3oGquydQMPUrmKPhx4CahXIm9EZJAOt8grnRkP+t8cS78qPeV0PMT15lcDL1eWV4qZCy3noIX3QF0Jrd3K7EnSIZ1bUCC/FZQjCd49zC+l2O18Z3PDjywY3qQ7jmMYttHHqdwSTH/RLwabA/ecWDJ43H5mESjNzALwKZIBVut/vp/PzcysGdx90yWTaEnSn00mzChxWmgiyGoNyFKHT7rhf+qPMdzzKb0lYHBrZAwAkmyW5pOwNjMsgBWV+xnmRrteD7ps30ngYCMrsj2GFRhoPqSN3FbFoRn2Mu1cq/zPNWI+rZ/9qZBtaVcAuB3EpVvbbs5YIEOUQ0whWqAbfAEZdd+HV1BSwEoROnQhDyKssA9/QsRNBXF1der4XF1rlaL9WCOXEcAt/0PXwwnEQdYICzMjL/Y/TELyFxpMuNX4EPAVB49u3UaIGPP/GZUFmpiobSVlRS4PzRJ6Dy3O9/I9SSDFMwzcTURQ3egDmcrHBrSTaS7yyvJI6s7Npbn4+zc3Np9nZrgBvuU/azQyGAvii0uxLr6DDo8N0enKiVXRV9Z2BuVZd0lpoGgoBF5hUYJZU5tXTAM6YrCzo3sDDeI4rKoGfQKMlyj/FMXGIexIonnOpE5EywftQAX5886h0/+R0NJF2u5Vme7OpN9dLPcUtmZJer5dmu7NpYWExzc8vpG63p7oCXmPBU0eSwlTl/jFdZ76WPTo6shCuZL4uLq4qk3bpVTC4yqYvbHxQHdyS6s8ADqalxmMa4evw8HAMfNhCKIAvMDEgJdUHouMRsIojQI2icbTLWcUAIpcpEGMCeOSSi40Q2wzA8wtzaXFxQTHaPet6TLItIXQ6WRgtrRImTD9dmQ/mNjc3J6Fg8wfW+KOj43QkAAD69LRvQRwfn6Yzpc/PLzyfy6uzirNM5ZwjXeaVFMCXGl8C35TGfEtjMkad+XdJAqg2QH3AADkAj+A81m6BsdvyT/FozCrtIKAzcDNp88GmtHkhLSwupiXC8nJaXlmWiVlW3kK2SqqPgC60AWM+ODzlsYfp7OjES56VMaeV0pXw2Aea6n9ldVWrJJsnBNtsErRHSHCAdHJ6NOKvpOBzGsE/PITGkw4hsAKbGvBbCkNDCGyUM5p0PAMAb1CgEZhVHAzwXM9D0wgt21wR5fTNeNjoaly0QYU2DYTZ2Xba3FwX6BtpY30zPXz4MG1sbFjTlwX4+vq6bHrPHpGvXT0W9jmPLxXyuAA+L1DxiLDzKxLY2tq6Jo57mwl3dFn7xOPHj9PS0rLNDFfRCOLy8txziXmUcy/TUIlhxJSVWAA8eZi1ppbrt2REBYiUus4PFZWeR9Qt45IxKNKUsdkhTHsQlX9N/9QJhiA2zLn5ufT4yeP0+RdfpAcPHqQvvnyeNjek9QK92+1K++etpXB4jo0WqGiwXUuB3Ja5wY3kmdCQMBiHtmtrq94fDvYPtLmeOp+VAOCYImZuftQfZuysf2IQqYdyUJb5zADWcYBIRyjrQDFPlGAEfEnjqmMSROqEjvNz0Z8IxsYrwnX1G6btO8/IvdMybmlzRJPIZxCYIt3ptJXftCl4+OhB+sd/+l365pt/SE+ePEobq5upKxCGMiW8WGCDxVwwHp4JoM8LtKXFZQsE/169CjztC5qXdM8CWFpa8grqSQB7e3uy58cGE9BXV9fMF348jJGmjWZlTwRi9bBymF8AD5VAR4h86niuomgH2dQE8NHRbQScNzsnkJsJxvJJlEHywADdFqjtZscah1ahYZ3ZrI3k2SuRaen2ujYnv/r6V+n3v/99ev78uU1DtzNn5vPJOsnGL6X1jXW3ZTy0cHFpUXZ/xRrP88h9VHqhx2a8aPP0YFNClNdzcLjvDZQ6KyvY+QWDcXwsF5N58KMx5+e7eRwNjJDoN5vFPL+I6wGCZ3ghJg98ESh0A/iSxn58htdgKpM+q35FFeiVwDgFumMqKA/byakSxrudnjdI7DMgoKGYFPKw2+1OS2VL6dnTp+mb3/4m/a///U/a+FbM9FALCXdUm5HrPn70yAC2tUIwM+dnZxKozI8AxkRcyUu5wCvhDb8UeFFjyHMz8AiSFXMkbYfgl3MAHtHp6am8jSO1RauZRkM8LFkxwv+OvcJKpvLbAlQCD91L49W8SmXQ/avSZvU8LlWbDH7ePNBul+ofyxztwnwsLMgTEehr8iJY8pgKtJ5JzUsAmJJVgfPs2dP01a++Sl9J2wGIu5R03ZCg5u3JYPOfSjiraysabyDX78xAIFzAYR+61KnUno34gVoSBsAjZMwZ+ZgoViOmiVWIIwEY/f55upTgwALA5ua6XpnYezBC2wGfulCAXCfyrTTqp6wTwN+w8TBUVgp4R1mKJw40EtjQGs7yJw9tAnQmtrq8Zs9hZXXZYGP36Y9x2+2mNXlFGo/r+EgaTWwXUeAuz62kVZmRDXkjD2SKHuHhSHsZC/AQOhoPwOwBFwKvf9bPByIDiTezYn4uLs4FWl9u4okB7bS1d4hXXFHiq0sJUwcsVgyz4sBFPeZgwQojQDvTKkPrITCpByiAv03jc25FFE6mcYeVPG5QZrJyE4vAfQkMwzimZU7mAO0EBMoZDy1F83qqwySzT55PfDwTQ0yayaLp9Lmq1YML+OWXX0pYD+310C8uJVp5Iq3maM5hBTPC8/7BvvIOLRCIDRoQERIEv2ywAIPHRBm8oPGsVASIqWQOn0KB3QhDUVOgfEuCCVLgQgX7JhUwhHIXCPFIT3KgDi0U65cBWJAWcuDBnrc70iadAo+O9jXJU42lTVE2GJ95ti1BzMwqlkmaW0pzswtOtxrSaIUTAYDpuBLg4jKdK71/cKRjP0d+He8HQwkCUzMr0JPA6qdDleO1oLnzPZ0h1PZCYF6ea8PVmIPLYTrYU53DU6XxwOCHfGn6NQewS2m/tLIl/rptCXVeppEv1xryijppZ3dHwjzxfMGN+YIbQgIC3NlQULS8BB4FQqBNSc8n1yiEJmm+S5UfgghtjR+0BVsM0PjK2HebA7mRF5d9M8QYsx15Mqrj06PK5nrz3jhtS6mvNH0zMbT1hE1PR3zuV5jwzs5O2traSh/ef0gftj74VBxmMibGIQxiZfTPtJGqvzMJEK+FjdV97eymN2/eeCVwX5Pnn99eeWUJxEYzA8t+A5ho+qwCbbe2tz0W8wrKfOTPCwEsBANFmpgV5Q+aIiMo0mVeQ1rDUz5dZuCHdJ6LbbvX5A/PKWZg+9ECF+9mRhOAae5S5ucXDXZfg/fPzm1n1yqbjUB6civZBDED2Pi2BIXr58NSZVchytCwpcWlNF95R8zj+Og4bQuUbQkIUPf23gq4jtoCUhYOWs8dDdrImEtyRzF3YAQo3Ntgnjqz2WRiZjbWN+yyohj/+q//J/3b//03aW5+T5CFloHP+5acjEoJqA/BK2XEvp2sAz8JdKcBXh0NlA6N4u7cvrtibJ+BF8AMwEkV9447kU6XQ4+0RX42oHcUHx+h0UfW+ufPv/IECYiyf36Wr23lobQkGDwNNjUEHidfJsUk6HdR4LMBY4svZC5YKUfqG9t9eLwtrwlfnCWfQUEAALYuMPNLcUyQNmaZF4SFmQL4ldUFzxOhcMja1OaOk/Bf//WX9M///C9eQdSDFwic/m7Aj2Ixx7JmKerwbLuIi2mNVns2Huw6J0eeidFimGi1Z3RAkvkB+DnZcGkx5uPw4Fh1m3YTGYeNE0COjw89edKDoXjTuJqH+2LVcM9jwAQWGsrmjbtIOQegPhum8gGzO9ewD7+6su7VljVbrqrMC/zFJoyWcynGuAgOO3wpE8lYPTkFPZlOlGtTZwhW4Hfffe8TMGYLPgMn5g7YxNOAH91OQreBDuXttjIxCrQBdOwzHTJ5tJtVEeVtaTMuH24l2ggTmZGGJpw9DVw57sixvUwegRwcHgiAI7t2J6dyDeUCenLWLAlIzPPMKgBIXoRwo8i4CINAmsk3Zq7l9TxOX3/96/T8y+f2gp48fqJD2AObR9ohcLSeN1MIEi32BtjiumHW5o++QIN5IgD4ZxxWFWAGhsTGhvoVD1CkiRkj54rImEZeqtx8+NYyh9gg8/03mp+Dy1VX8AssHWKkWTMALoa4DkEr8VQuiDXhPWmAXT+BfXomYQiIlvz7WXkQ2HD8dN6rwiKaSsg3kbxHZT/Jq45xqUMZArVWS+gbOhd8/Q+/Tr/9x9+l3/7ud+nX3/wmffXrr9NjHdhWN9ZTR8Cyg50L+Avxc4kgJGTtUlrUml9TBz6dvmcJs4SuD4QIAacAxQvAobuwhAx8NLiNLK3omH9VmsCpL6QafjuBJQqx3NAOa5Fdw7wsWQlo3II0Fo0JO8kksNtsaJxWuRJe18kTzW6p39G4qsfqYSVRHxCoQ8CsAQj1FxcW04bA5cT77Nmz9OSptL26ZuaOBj7g6aSy12gx/HOipq98raH9SzzACwHQ856VT7RZ6GMM7wO8T64kYkJBNI4AocMsbZjkAinbMQHdafvGD0bIUy+5vup0EILtPPY+ezQAAuF3o82LApirXq4QMFV4NJxm3UZ5Uj6tAoR2NjI18ICwIFjObLOZDVyGyeDZN54LszYzn3/+hTdI7mbgETO3u7ub/vznP6dXL1/mVVYTJiYNIUCMx/zjsMU8MBn0w5goTokXWNImlDLS1KPdyI+HolGdyJdeqzETz9pmsyIm2TBxyea1acIs/i7uG0B3vSxnUxuhWAB5NXS72U7yBojw5fMv/Yap1cn36p2OfP+ri3R8wiFIm63s/onS5xdaMRb+hWyywDfQFwIEt055CuThyna48ZTg5nqd9OzJ0/TZ08/SogSP8LY/bKXXL1+lP/zhD+nPbJJyPbkv4tqC+yQu1rri/0qHK9zOfJM5sPvLyRc8cEHDAwJIgCUAbCgx9VgRQaQ/Aj5AJ66HXJDNBoQZsasojerKhrIkl6uXCT0JAu1lIrESZlSPQdEmAuAiEAtFgsjLXsKT5tMH/QMmy/76uiHA5cfH5AQs+fl+RZPgPsYrIHtdKAX9My79r6zK1MgTwetiv0HL//rTz+nHv/yY/vjv/57ev3/n9pgUwPT40ky0+4qNX+OSRuFwb/GYqIO5CeBZBWENwAs86YM0ceAbeVM1nnQ8OxbTbFpsYIDol8wyB9hJtBd73ZWbiBuJUFi2pNl4W7zoUF1AxodnNYQXApi8COFOfXMTP3lJ/bOq8nKmT3x3zdsxrMb3NTyfS0A8kx8eVLbP+TDGK8SNjU2/KOE64aXMyp/+9Kf03fffpx9++CHta1MHEMbnEMY8eEa4V5dDv8fl/oYVnjFJ3nsWNG9WIcDjAQEm4FMntDzSU4EnIypHGhrlD3KMNtIBmy2bV9aUJYOMmcFO018Oua701HbV9lOgIwAOYTAM49hmtI1bSfpC85eWuL/XSbGZrxGCWHVZ4/OyjlWEhqMAXJ4RQhnWN/IzbuHW1nb6XoD/xx//I/1FGv/69WuBcOGXMMyDPYVVQn/MG1Pj+SN3CzxfjbC6EXIAz6YcWk+d4Nf1a8BD1L0BPGESuczu2xh4b7AAL8AACzuPtqGl5HNt4M1VAd+JTzMWpXW88QEU3EPcSkzKmRjn2M+LCjbaR48e6FC1Kc3Sxiszxr047iUvP7L2SwMVsQnPz/c0Nn0v6KC06td76+trFhztltVvU67w3u5e+uH7H2xeMDM7Wzs2U/C4Iv656gAWe2+aKi9ZBJuAyxdguL+YN0BlLgAapib8fpskNWa1I6068KSJPwIeMshFCELjqWc/XeCTxvPgQyKWKUd2lh+aZ5PCpZK0h+d5gQDgnFC5ysXmAjQMwgz3KtltWzDwvBDBBaSPh5sPffmG94RQ/SpRQnO/aoMisMFb29dWfQ2AALHDHKy6agMwP8mu/+d/fpd+kBezvb1roaPd7E/Y/3iP60tArSTA4Z4o3xvl1cl1hHlWHvm8iOFuvwRe+uD5B3ZW0knAazl+y4Ri46RSGSLv6lo2T4wNFKN12UXEe2lLo5I8ggWBj3+LHcdH16GjxzeMKS3NPxOg8sXntHkBmDRxUW5er9tIs+1GWuhJqwYXqaNxVuZW0lJHKyhpVQx76bKR33My+baO+vO9+bQoD6rDC3RtvAuzAk4raXVJ7dS/9xmVtTj4SEkGrbl0eHqe/t8f/5hevH6Vjk6P01AKOScBt8QnK7anVYOH1mx1NNemNtQrubDnqbvQSv2LE4XTNBheSkhdKc5Dr1DMzN7uTtrd2U19PQ+0IlTJeyFKyv4HIYTQelYLMZuwNZ4CJjeNQhDUpTM6IcaOsok9fvLYGs2HRqvS7jUtd2wru3+nLX9dGrkkjV5akv3WBrq8vChh5EPKnjwNBN/WxLlEw93kjp27lssGb41kjqQlnpzmJk7ME2ZAKuRDHHdI2Rzk6wK/CRO/QiBtb23Jtn+X9va4V5FWqn7wnlcZ9zw6XSvfn6AIfDS11ck22WcV1V2WSVrXWQBeuRrmIo6v0WI1ZAwFsDDCFsJH2PVIE1P/1ld/dYoOiKkfMUue+/cH8kh8eyetB3hvcNImgG2340SZD1P46ayUlswErwEtUGknV8Qcx/H/EQD4HpxpcrKjh/t8dnfka19CXN0CJum9/T2HI51AcT95QWKXU328fftG9v171TvwXtXR3sDKW5KZxCxxkMN04OODADxy8Buyl2iOXOzlV5drmt+qAX754qX5OtDYXA9fIHS1xxSzx/n63M83gaftDeApqFPkEZflABWmCeDnpPFczaLJPBMwX2pkD2S2s6xB8xLrn2np9vECTgVEfsHB0t3Z3pYWCbzdfS3fA79Feicf++c3P+tk+cpuIIeet2/fyvd+r0PQBy9z3ypqk8PWYmOx0WzsaDTae6S+uW18p3a4nmh1V2aQFch1AsDDe4DCamBvwP7Lf3I+9r+nVejbVikM73Tfv3snAPsa+9Rvt5inUMqutKwBfwQRYAdepIlZwQ15JENAYtAAOAKViKEopxMCaZjjmvSBPInffPOb9Plnn0vTZWu1JAGfPQHpLi08MShnsq+8jWprCc9K67l25d79w4f36e3rNxKCToVara0ZLsdWbCpOhrz9p54miLnRBDWrzJs0mss1/Hj4QTt5Q4Tp8EetSvfkz6PNf/3rj67Lp9o97TH2ruQMsInj4/OiBAWADLLmdia7zhzYvJkPwLGx7+8f2DPiLRiKcKhneLzU6RYzwwFyqLbwiAKEUEmThyI0BfpI4wEUIk0IIp21IZ/IIo92TBI7/tVXzwX4ohlGK6iLJmAOBpfSPA12eHgg5uQ3219uuxwmXrx4YS3e39sTwGfSdq0EafyWtHrrYNf33ocCjQ3NXwCIefhgkgia8X39IO8ETcbds3aJR5Y8Ggu/TNxfrSkmTfBJWz6+7ZrIe5fAhf+BXMM4jWKieAvGl8W4kCgSYKNYfIYSSko7zjIVTCOzHHgR+wCFqaEgQIc8kEKdaAhjAT4rBVvON4mPHj9ymVq6LUsPE5ABP5ELt6Xj+rY0NmscJ1dAB/AXspe7ApfvWuCDozr+/bHMx5XYwlZzjMAfZ0yuibHLXLDlw1JOE/BWZmX6fFoWP/DMRsshbV75PYTAtcPFpQCuzhqekzZFeU0848v7RUsFfL68a2tOA4N2KjcSheINlE2N5op99ytRtcXdbuHqiQJ4CH4gu5Oh8SWVwEdMY2uDGPNkNADabeDlwbDrsyp4TcfhA83E/vrtzsGZX1Lva/PD9oUGfpANf/HyhTXIG47sI5tqeBhM5kj5xE2Nh2b6yzCNyfXCpnx2PusgD9DZYxxbEPlgh2bmi7T80oTTKS9eUIp4Q+YTt/YFX28AjqbMl3EyFp4TwsBswbP3KSkIq/JYffBSnjxrvLRDbJr3gJT+wIq24EYM8A0tU/9hAhmTAkRMHUIsGxgC7M8//1zhWbaBkjRLGa2kLloPU5cX+YoULUazWCGAgmDeyePABAG6tU4AYDIwB+d9Ce8yv/QQh9ZMPtXjpMmdDqdNmwJpMJYCE8ddPGCCAGC8ffMuv389l/0W3xfn/BFCvu3k5hHweUP1+NETCwb7jjt5dqbN//I0K5LmgZLxbT78/eXHH7Vn/JRf3mjVcu0AH6wGVgUrrCPgAZp50zZMEbx9kAm9cUkGlemSAngohEIn9g6kdWgsmxP+dnwMhKeBZnFi8a7vNmhW04zCNKYI4izgl9Zra+nRw0c+D/CJyMIyZwFpcWgyfjeuqQTtSzhNzivRoOcr6ji1kpe/AM7eBSdprouzSzuLbAxkPmHjtRDnaw+of8UFnJSvEmr+Rii/p/Xepb7jc0FCPkfgy+PdZCtBe/ijHCKPtjeAnwZ6naJDNlf8eF8YiSGDjxAU/AJDMUsPbYchJg1zgE7g9g+bjZfx6MkjvyX64svP0/rmusyFQF5d9wbK53/xGQavBNuYO02O4zvfvxD7Dn5O4Or03JbKNVvYWgGpgxntMIu8DFlGmBqvqRPujIAnADav9ebk6RBjbs7O5GWhqVpRnIJxCpjzmRSK62H2q8sL3rnm97WYNNICR+PmO63AyQIUfQR8HfyoWIJez2MpYW5YSoCJ7QRIBufenA2KfDkWXoa0py02DtBZBbT3J9Q69X4m0D/77JnB932LwGp1er6TQcu5s2Fz5C8BMUuEzFPulwlya+gTrVjEzey0OIz10kP1//Tpk3xXpIMeYwI2bQCDUzPPmCrMHnvC0XH+goA0bixjYfsxMYAXwXf21AN4zdu8VAdD2oRtj/Qna3w0jmcYBnQ+syYHQGGQ3R2irpehAGDDxbPAXiMEJsSJEAB4n8l5gA9WNzbWrN0ccjoCcSiQMR1cLywU9+yYlTlpNx+WMr5Pm7M5NNtaCjp1anSNx59iLkiYn6WnOmc8EvCYs5UVOQQyK2zkTa6e2dCbrIB2uhS4eCzHB1vpgpWr1dzX6mV/uJBy7e/teoWzV/jKQIfBS+y75qRJS3B5LyQw/1LjPwL+LvAha28FfAQ6wv2CMCcM5DsP/aBxtKE4NBHg6YOlzwdQtt2y55gs7DZ10WT8fMzH4mp+OeL7H23KfCnMoeeBTBEvnvlbKB/7ZYa42eTAhMnh1EpffW0xaPK6vCDaYmpcl7ujJf6KJL/I6Uq4mBe0m4+tuEY+2v8gc3NavQjP3gurGcXBhB7LOTg6rv5sU9oewAN4vItgrgB/q42PMInID+0lDmkG8P7bJRjXM5sQq4DJ+psb1SPfG6KWMZcnlGFnAZ/VQVvflSh9fn6mKsoToNRblGZyIPKxXe0JXFHEq0KEg/lBsIQwP7yTzXaX0yKrIntb8IbHBG+8B2ZzxqazyXI/j1+Oth8K1P7JjsEGVOaOW4nZYmNGQAgA8wrgvrlV8Nsw4zM+OIXGE0Yar4ncelcDjYXBJRoxHeQ0LydgHKbQWAI7/Un1BwP5NSHfpXMxpUONljEroSnzwSRYDf5UTy4bw3NibLf4Y2GdQOdX5Ltjd3sCQMv44sobHFqJhmEOABBHk/FOMQmKcVG5Q+E+hSsIji79E/7ThkE6k2k4OzlKQjMNtCl+kCs7MLA6jR7JNTzSCflwN+3KxBwp3Vd/18MZCZhT8bpWCZvypszZgsrP09bOoQ5+XNbhSkrbdQBri1+UG0VifoBu1DRBvEDyEBh83Z9AeyQIkUDwsbxYCQyEvQ1hMhBpryiVMzi+M/W8ktQN7VgZXj3kKw/B4RUBpLWKvUPjEPNlGb45hzKWfOwZtAmPCtcOacIDZWzmWzo9c7fCK79XCv4LEK0KeKQO7RiPwBcOmqx5NDF1/wBBfgHPioKnXJ7retPHl3RWgVWNbmyudYr8HAsiTcLPVV42NwzSyP6zlqE//VAewFIO8a2iTQHAKrDs8YejnHsWvsRlk+XehYB5wUTwpohv6WGBnePqSgLRKsGXxnVlebPBcYnGSkAIsIogfb9yfpUOfGDiy+G9dKC6pPlMEMDxUvoyJbvaMF+/eZPe6DS9vbvj6+XGNd5Z/FGdNkr9wDMCfqu6e/u7EhYfrcpp0ImcMXkdGR9/IfRQukgTI+DRXQ0ZU6mQTQBvNJyf/2QFm501fmzneeZunGqMwSjZBOUXKtTDvQvPBi9nXc8cZBjDq0k/HIRsVzEz2NzqYMR3NoCGh4EQvC/okMVGTbudnf10dCDzIyGh9Uyatpw241YTreezjzfv3vpijq+Y/dGrv9nUyhFJhjJJ2PFrjXXsK2u+ULCgRfSFtjMn+DY+IrANfAN4FOQjUxMCiIbRiX/YqRVCy9EoL1NpJfYV24o7yZ0HhyLf0fNGXvYOQrtsQiqN5XDCKoEhC0JCQhB8jxNtOCi1NP6V2p3YRh9LE7X5qs6SPBJsdP9YnsfhcRpeXvu14IYOXUt8taYD0tn5aboayv7qkMWftWjxpWYnfzrOB1Qzbc1zhi+gdQi61masQH1e9Q2U1gw1VbVtqMa1TJlcx/19rQjtCX25TAPlUYZb6/d+XhVm3RQ4BgW+rhIPEU+ikQCqACFltIc/bcQex92FtUrLD0mjAfjL+WszPvLMXxfkr4H7dGxhoAXs9gT+CoS+0EKesb8IWShYQHg2rC5rtfK9KgjiH57oj4s3TAubLpqfP+HIyuDXk3IrWV1csKEoMS/sc8yP/mMsAkrBGJzQURy0nbFHePADD/qJ/m6jqabmZuNIY69yDrEnrQT2mGXIEibtrxG0Mijn+3LcSXx27kMMsmwy44aLiIAIdj/VH8vYm6eAR5u4JuBqAs8JEGjLGyX86FjujIcw9/f2vYny1uoDV9Faab4RFS94YpyEOaDxQpoNkj62drbTDgcj+eveOGW2uqrLmQC3lbsflImx6BvF4NzC7S+r81p7AXzPtMBJGt3I3gyKAm5gBM/gMdHUTKKbAsjPkKVr0LO3gXai8TCFZ4BWkAew/otsH2BWvXGi9YBKuTdimFM/4V1wOKGv9x/eux+YBnCEh9/PuHxegcZj11lREKvk559/Tj/99JO9lw9bW76OxkuJTzEi8LdU796/t73OHtKp+wUseAJonjPlfQbgmRuCybljCjzGbW6nprRsdB8fAJcgB5WdRR3AIIRUAR/tsregdATuWLh3YanTCxsi7Vj++O6cIgH7ROYB0wDgP794kV69eqXavEHiVd2KgYcQBB4F18mMS/3Xr15Lw18YTF56o/WsqmutFlYhpg3g8KzEvQ89mCK7jtosEQp7FIAiSAtYq4x7fRSHTRYlQKCYVTZ4e2maB2hxIecXKuACk42MKQIEH/ALjBDeyNTcl2hcUjzTMYAThzBCoLyLZNNlc/WVsQLa7WtYTYqTr++9VU53AANzTA5GYZ5xQtsIgM6q4G6bv957+eplev/+g8q4H9eBSwDCy7X684FPP/mskE/TlFGPizyUgf45BWPH8zXCQlpbWfKFHKtw/+BQY22l7e2ddHp85vrm1bHArmL8DiNSmBoogAcjxm0sLi4OmRgFJX38HAn++dcohpgoDGJ26M/eiUBFe0Kr+S4FW2km1AZfnnICA3B4CnMSDOIxsBniHdlVs0/N4TN//sdf+JX7AUL3t/ZMWLydD/MqRC+5d2f1sd/AH+98ebPklyfa9EHSr+/Uv5KpK0+I/t+8eavwLr17Kx9/Z1dKMrBA4IR6BFzJsTA09Ez+35jMszLMg3gDI1aogacQwEqqA88dS2ZpXFbWQTPplA0WJgAfQLkDwf6GMHxqZRMVMGZUbcNm+xsWgcCBirrwNDdfuZdqg/fEZshYbFCYJyaBgPBkoBAkfdPnyWX+mpjrBsam/7nqZQdtEPTy6opvMBvaKTFL3mDp8/QwvZNv//Ll67Szves7HN6K2Z3WUoL3AJqsrPVwobHlysJ/CTxzhnf2wE8C3pF/VSKIWOQ/CFOnsXRt6zQQUmZymBYYQMvRvFhl3F/j89MXVwqUYc/xXmi/uJLfJiFA6jIBmMd+j//cMV83MzEusAA1ljh7BrzMtsffcvJlAXOmjlcYd/8SPqZuV/sDGy7f+3x4/yLtaM/Y4gNXDlyCSMP4pTv7RQY+a7p0zaAToGEz38swT4g0YxLTt7+rofBO4L1lCOiM+Ciu/jmNtgO87+MJFRfuX/nU43LMJkggwDDjEkMAhGYDuv1ruXvtbv5Wxt/U65kX0/ja+SZR/rSAZyUwIYj79fC/mSj3Onw9AOhovFed6uACYnYYryMvCwU50abJPsF+gYkBeK4jTk7ONB8BrDr8F4kIAFMDBfDYA/jP/+eMnlAU8RQKEMAzX2v8pwEvUr5LihiCKdqg2fRlW6nYbIgfhEI5jDB5a6XaUOh77GoC5OFu8h9OAPRgJv/hAppMOzwjVghuJJs0HlLmI/PAfkL72F+w7W2ZGdL+80/N1X9xXplDVilm5YyLN3lVeEVvq298jk/55IS7dl79SXNlT/ircMbic0PUxUFgZ/CZQ8bjWvMEbAQKkYYHMPiFwPOPXwF8/sXGmLMBHt+e5Z8FYElrYAanOszgisUpkfojzVGgDC2Hr2EL5rPJoh9eWrD58swnJHgiBtvCzCbE4CrYlEgAAE3a5s/g5BXmz6zl3+9p6e/LS+IOHlAwN5x8h6l6uaFWjEFr7p0we/yXjhn0DD6/yJkEPFiCxQ3gFxfnXTOWxG2ENgE2RGOH/JDzjLqTpvKZT+2qlKs7mz2j6gMGPQFplL/UlUB470kmJ8FQggAfU0IgzYEs8rDTBGu38qhPmrkBNuOwoRLYJzhsAQJmBZ+ezZp8K0wVoBBUKEaEaUQ54wWu9AVPzKXyagS8+vBEp5A/ew4gAawCYxTH76gTv0loUD9HmdsH42gDGk+aTYpVoCDQyGoIeJj2alE7wESbA1CukHlG40uBBNhsnsT0gdeFWbH5EMAE9gnAJ+aZMahLzJjmSu0jlM/TCD7p71bgl5YWDAcVp1EMlAHMmjqOR78+eoaw9TkRRTeBV+dVWskwaRVJ78x0gAEfTCZMSWg2z6QjP8BBQME7QKDtCCBARhCEvOo0uvoqwYeirzIdz7cR5aHx0V8N+EVrvHfkqRTlmZkAMCg/j36VSbWs8qr6jgR8JTavNqdUQBn1clUxrB8oJgswATBptLdO1IuxAJq6UR/K/ed78RBqCJM6AFZqa4xNiOe7KPqJMUkH8LbxKytL4pCOMqO/lCqcRmRQq2esFFRhkUEx8H6yeYm08/2QxcJtIvUDIILbVxSTIZ/JlWVQCTYU7QnsB/EcwEOxIuL5lwBPnQCe/uvAiysYoyPi2wOmoQz1ckyET3TuS0xWz86DURiPUwaxQjxr6tUPuOf8hoDgABUglQGwAIYQz2UgD2LyAMrkQwDkxTMhQIy+obKsDFA9b1oIKtNB/v9qKIhBb6N6+aTOgup1NQeDqgI/E5VVAAvKfeYJ58MIL0n6o7GI6+PyXAe9BA5NI468CFC+4shuL3loJDF9kA/FeMQR7kPUKzUeJQmN98lVu76vDO6iOph1BsrnqBtxq5Un6qfq13hzHdczFfkQL5unUdm2Pi5EOgCrhxvjTiDqTCLaYYbq49RjBFruG+BMDPAZkf8pMlMCPT+NCCZHgecifAoFUAFspCOO9N9K9BMA30W3jSngVYCW3RFss4vwUR36IUS6yMOG246TrZyPQlU9l8dPLvtUKica6Ul5f08qhUD/k8Yo86h/f42nXQTRGKD8M43gK4dbapIZoUYxkWmhTpPqEP5WmtTXbZpf1ivrB2WNvxdRLwJUpUeA1cvG8UThRHWF6OJmmNDmFopJTgtRr4w/heptrEQTQI/xyjCJ7q3xtP+oi0qD74QHBitGM7P1FpFXz588kTJMokl1bqv7qVT2Wacy/7ZxQ1j3NzXAzqBO3uxsOvJsRDdhnVqd0nqDe1IJSqQn5d2XJmk0RB9jJco0qd9y3Dp9AvAf03jYuxBSeTmJG9VrTN3V1T2onCjpCH8r3beP+9TzfTwXSRwmnFE1KhuTxiedRpRTLwIUMR+dmvRYlfj3OMoJGy7LCPRvmrF6nxHXtbL+HPWgaWXQpL7KOuXY9bqTKA5QkQZn2lVXBnfTfQaBmfpE7k+ArDFuDBPi+DSaxsNd/NXLb6t/Fx73wWEEPJXLBvcB++9FHqoaLut50N0TqPMNlc93lU0rn0bgMwmjaB99l6GkqRr/KeBHx/UB7kNZ36uJ3H/IG1Qft3yeVgbd9QxNyoOmCSDCJLpV44Nu67hO0wa5kwz4L0S8oPr45fO0MmjScxmCAo+7cIk2k/tJ6b8B6Pc/TKPNfZAAAAAASUVORK5CYII=;" parent="1" vertex="1">
                    <mxGeometry x="497.54" y="307" width="51.09" height="50" as="geometry"/>
                </mxCell>
                <mxCell id="7uX397mnJ79mEGuJaPBq-36" value="" style="shape=image;verticalLabelPosition=bottom;labelBackgroundColor=default;verticalAlign=top;aspect=fixed;imageAspect=0;image=data:image/png,iVBORw0KGgoAAAANSUhEUgAAAFYAAABWCAYAAABVVmH3AAAAAXNSR0IArs4c6QAAAARnQU1BAACxjwv8YQUAAAAJcEhZcwAAHYcAAB2HAY/l8WUAABbjSURBVHhe1dtXr2XF0cbxDUPGZEwwweRogQBxxw3f7P1ytrgALhAgGUQQOeccPb/l+R/19Ky9zz7MgRc/Uql7dVdVVz1d3WvtM3DONddc8+vmJM455xzNgrH/yy+/nOqdiXPPPXdpf/11cXGA+XkbxnVmm11zMM7P2Hf9sMvXUYGTb7/9dnMup7NjgR01uN+C1vkta422sxyGWW8fm6PivyW3Bb/HgiPmBMNxVtAu/J757ST2j8KY4L6ktinbZBdGnTXd5tdkXyxXwS50VazJtsXWdEes2a09/14Sxv5vxew7n0vF7iJhnhtlxNq8i5yMY+nWznPbAl0bg3ncy3ac3xejzRjPb8UZV8EcVAGvyYj5Gdb0wr6Bb1trHt/2vCYzGhvbNb01bMvjNGJHZ0dxHvbR30Voa44S1sZg29hRkc0226o4GbGW0+ode9giwfyss/Y8j60FN+rM/bXnXePz8yzbsI9OWCN3HFu9CvZ1HmbdfX2skZvNbD8/h216u2TEtvlaKM41Mrfh4OU1Y15sTUbMz2eDw3y3/jg+P++CfHeREkZ/2/S3jZ9RsX8U5oBKYibnsOc10Nklh2EfncNwzl//+tfFy+ys510729xoO/Z/+umnU73/6qZf+/PPP2/OP//8pe/3tfHzzjvvoDX2448/Lv0TJ04c+PYJp0/40LIxnl5jZH62Jj19/n/44Ydl3vgFF1xwWtxHhRi+++67s6vYAg5zX/BJ37PbvmuJb1BEEf1R+BvnW4s/AsaRpG0demNcxr766qvN119/fbBxzZs7LhzLVVDwSUSUtIALetQbSaoqSVXMJh+jjP7qG2fLDwGV9/333y+CcC0ywZowrgHFvk32xaFXwb4YF64t+XG8PqgWCSFCi2T9Cy+88IAIuPjiizcXXXTRgT8EXnXVVUsfIreTwa+qdCT5GSue5Ec7EtnYGOOMNmAbzFv3rIlNT5v0LOjQONQXhKrSEiSo1ksvvXTRQbQ7D4lXXnnlQq55gvzuRJtBn72kkPr5559vvvnmmwNiiX6b2WkhRwHbXTB/1sSmo50FegmMFTK2iBKEpJEjcdWJxCuuuGLxQ+eaa65ZyNVHZIRecsklm8svv/ygwj/55JPNBx98sPniiy8Wv4QPyVqjMXra7lhQ7cU1FsQMertwbMRuExCgYIkFSX1AoqoyhkxkIfHGG29cBFlQpaquNssaI7EI+uyzzzYffvjhUq1VKp/WsUZk8oF8BGvZ0h1j34bu722I2BMnj93/nRo7FhSYtjtPSwQ1Cz3E3XTTTZu///3vm/vuu2/zj3/8Y/Pggw9urr322oVwVwNibAIivvzyy+UZ0UjpBaXPnxax/P/lL39Zqv+yyy5bSCY333zzsibdrgPEtnG7qrKi2AZx8XHwb15gcGxhJGpuqziOVJSAJFS1mDeur0WSMckhKzIk/fjjj29uvfXWRY+ouo8//njz6aefLgmLKRI9q1LkaPlXiT6hzKsYaFOAbn02H3300VLdNso677333lLxcilesKa1xSxn/ZGnteflKlgjFupzFpkwPlucE4vbSRIJVanjKihH9vrrr1+SokPXuGfjd9111+LTRpl3VyIXYSoPMWwkDZ6NV0FskCIeFa1vTXr6YrEee1XMTgEgE7nWevfddzfvv//+8vIrz/KQk2dt3NSfn3cSGyIR6reoxJBashIgEaFCrr766tPuTZsReQI2b5zNyy+/vFQPH3SQSo8fZLBFiDhVvnXpgvXaaJvC1qY2BtZoA1w7XojdueTVV1/dPP/88wdky40PceprYSZyfubzxEnDM+7YFEeMpIb02tXmVIaA3JcSuOWWWxYCJdbR65cPQug68m+99dZSRciIMH3ziLSGNSOXLj9aa9JBHF+qDhnWoNNGsuOTPp133nln0XEPKwBkG+/eFjOIp355a5Oege4qsSNGIkdy6wtY5XAqYJV1ww03LC+IO+64Y7k3T355LEkJGKmq0bMj252LDJXianCE+dN3/7or+aUXKda3tmqUCD8qG5nuT2TqI53YQH74YyNmhBIbZa2uFXNs6FmHH2u17khk0jMs1X0ymDOIjTRY62vrC0Agqspdeeedd27uv//+pVodccmY71PIHaZq2amA3tYS5BM5kqxSVZBqp2ecIMnGsCsxdnT4dRV0/APiu3OJmGxwG+MZeeXGp9Ycn0iP+JHIpOdsloptAkyEtf44ZiEJSsjn0m233bZUq2OFGGT6VnzzzTeXt25JOGJaxPJhnJ442FmjLwiEEetUgR3rKogvdkh3Kt5+++1lo8qriqPnlHTUPSOULbL5QrZqj0i2SwWeXM88n/mtPz4DvydOBn9axY7KhENBcc6xZ+MFJhkV5S4lqkywSGOHNEkihA/gQ9A2xLeqY14yVWF3HF/Alh/++OoKsQ4Riw0kNpQeG+M2xjr0jSGWL2KNNksuiqKYrCHWfqnJTWyACzbi04f4MrZcBQYyWMNsDJxKCKnuUEdWAvQiXXWoACJ4c6NIRGU6omCMncSzi0y+3MM+i2yCcXrdzeZdMdYWF1IQgcw2QB7N6y8EnNpkIh42Vao1+HV9WTN9cRZv3MULWzkc+vJiUBAjPAvEG9+LquOKcAEhRcJaxBiH0R8bpCJBMJIuGXaIkxBBGhLNRXbr1NIx7ljzSyJXbMGztcTkGogMfaeoZ+QqiHHDZlKBfuRme9rvsxSBYQLNRQoHgq1iJSPQAopQARljA/n0zCfS+oWFSDb0ib4xVVpVIrGjC92t4rGWdfm3WU7Dddddt3xG2URjWjbFwA7aVL6th0yxWQehEVb+My8ztv7XhkF/1MmxhQSoIgiSIySd0W5tDUR5g7sXtRFnY9hLSqJtUOPZt4bEiXhUqReoDUesO7MfFyBuNuI1Fml8tVb+VLaN4MfmgZjojsQmI06r2BmMc2Dxnjn2LOCqxVhHx+IlAGyMkdGfyvDNqWIlxB6Ba8KvTSsxn3b9KRHYmlOVvp+9SB3rNlwld20gTTGY18qBHzFZy1h3tI1qHfNzHjCTCidOkrPcsfNkhtrmJMQp2G13qwQtKmAiMImwqfoiGwSXpMtv96C+NdlUoXwlVVpHlT1bJDjyDz/88OaJJ55Y9JwAV0gvPf6MVxBsxG5MPAjX9xVA2LOxjheYZxDHmIfn4FlMS8WOE2soKZB0ZNtxSUo+0kdCqjZSxUVUVdMRhZJDVKAr2ZKu5U8cCOoTyV3vR4kNF5t4kEHo80Xfmr04q84+r+i4mnwL+0ETmWzKNQ524eCrIOVRGgeBccq5xQXmuAkIkUijIxnEeOkYt9PG3FOIQ4ofE36hIanNYS8xwt6x1VrLNaH6rV8sBEmOKd/86COL7r/+9a/N008/vVSrqhQvfWuClkQUiEERVN3WLe9OI10xkRGN0WWz9Q/dGUoaIQVgHFGC8oIQtDlBRYB+xCISWXyYFxzCjNkYLxrEONqOn6Tcufp0rQVskKc6kWddRHpGWNUsPlX20ksvLX9gkSQUvzjY86dPX45VMj90bYT8XHXWHb9y2CT5GEX+y1XQjq3BQiQHdCOyO9S4QCVL2gzjAvPJU3Ww60Wi7wjfc889m7/97W+LjeARQx/5SO+TybE1Tg85BCHFqc/na6+9tnnjjTeW+9UGE+vZJDHxA8ashSz21nMCq36xta7Y26TDYI3TroJgYmxBwO24RZCHRBVTJRFE9JPQ2/mBBx5YntnkT4BE0KrWH7n5o9Pm8NmdSfg2jjyJIgPJYrIZWuIr49///vfytwlr0GHDVhWKS4zsnRLElk/VimA2bMVMp19feDCGh4pnFjpbf3lRgAjtSHLm2cJeEmT8CC+JSDLGh+TNCZoviSGBDtLoafu3L3ewP+qoZNVjXUSJiw1yjCPKM7LNeeG8/vrri671qkC+u4MJiBGZbIk1xOr0iU/F+752pWhVOETgmuTjjD/CjKDYURcEMNS3eJ9bkpSAHU5HYhKhZyM6alo776UiUL7pIPDee+9d/uT40EMPLc8qVsLWk6R716bww6aNsin0JNSfJlWgcSS2Cfo2gbBn0zzdcrOGKuVL5fsnG+u7+tiVY2QmjbM/9G8FgAzIgQRyIDiBIlZfdbj0BSo5ZAu+P9ToC46fXnD8OO6ujAgzbnNUjoQk5sXGn+pDKLGWFyDf/DjeNq1KrGIJv2CjrS8HGPvAFsHWF4fTpp3J9NwYaNku/CwjA1IKEiE5EFSLgmfIKTIlUDWxRXLVK3nCng2yHLM2q4oxrzXGJ11jEcdXa/Hv2bzNypd4SDkAguioSJvVv9bqm6NvXevxKQdreBbbvjjjbwURpR1JpCORYG4kQsKqi55nFSIZwUlU1dG1+66AyHIMVaDgVZhxfiOVjoRBkhGIEDF4RkZvfqenDbAuv/wYcwX1Bx8/AvStg2T/3uYudd2Ik22nwsYF+oQOiS9xlrt4zqjYGZQhknNUJZiPOMkRCUgSifqqQRIqQytp8zYCMa4AwateOhJnmyDF2takjzz6EY08Ih56QUyI4lOLQGPinXPJh41tzobwr0hsuvl9cc7JpBbvLTK30A5FomeJ+ZTyFneP0ZdwVUdUmkQIcpCJPOTzQd9/qPHII48sVatqJC8Zuuy0HVt9fq1tTV8j1r/99tsXclQxH//85z+XFxjwhXDksLMuH/IQq83RlxtdqDjGHF588cVlc8RBF+nEuqTTBYu/w4iNzCohkr2EHn300SU5jgVj3AJsjXmOWD6QS8zZ/ccee2zz5JNPLp9VTz311OaZZ55ZglfJVbTE+OGT715GSHFv+yq5++67l5cjn+Lj67nnnjuofDmYp0tHPPzZWKR31VgHoTZfvNZiS/+FF15YThtiZ1LJSKwY9voqAEaRRuxmv0rMIYxDAXWEEdNRNkfYqgx2fhj4rGLz7LPPLv/BBDJcFZKRJHt2ARESQTy/9BACfCKPTrbm6SGxzy0x8CEHyB7B1mZLRzVrPbt/ywUiN4kfLX97EVsgRJ8hJ4Js1xsDRHiOEON0LEokxE7lCdS34iuvvLJ8HXhO11oQmcbAeBvnmtBHCmJtlGslPXEQa/LDfwTM+USsjaarYs2pUjGaZ8+WfsJPPlt374rNmBHCOLG4e8vx6rlgA5uSAoHqVy2CRmh3L0gI8lPQ1k2QaL4rAxnGXE2+bfkfEwU61qBnjl8wL27zNkqMTpUK13eKvAD1Z2JHUmvpHfwrLdTCPEbZwloYExSARMxxrq8VsF0mAlClvSDYSrJ7lG8bxLaqYkPEQPRtijn67PjhQ9u8k9Cvwca09Lsa2Osjki3/xgh9OWWDWAUQ6XTFQIqNgHmy87+PTTm087UcCN5LhKjegpFs5Gq7NhCLQPdXBBBzxgkdyY6B61fpWjAesUhyJbgPEUAca61xekjT9pyd8YoA6WITj1zoeKH64nA6iqeYksaAr4XYiAopwDw3PlsYCe40b10EsRVMuy9YNhYHmwFs9SNzXLN+lUb0R2ksotNjy59N6+SIA+F9LkWyOIlnqNoUi7zE7VS5qnwR2ITWiMytxI537EhaSrtgV+lp3WuSAUFbrMrIr6B7LhhVXiIjgeYjLeKMhSX4U2Na9irN1eQ5RKrjTPShmMRAX0uMW1eLSJuBWNWvmsVCz7rlMMYFS2wjsTNaqCDAWLAIoqraiFWlSHR02LIRPGGDAGQiVaX75aXK2LQWPX67Gkq+qrLWSLiWHuFDJSLC5qo6xOiDlg6bsapJMbBn4wogSDZnzZHQ+gksvk8mufOrgLOQYU4EzongkKRaChK5jl3BZiuZiO2jXctONUmIbVdEVajPNiAQrB9JkibWsm7EIki16o9xZ6M4zDWejvvZFcCWP+NstGQmlRTT1opNcSQWRicWa9dAkFWXYM3rF0AkpNcfYIh1ENtG0EGmyiTIzbc5SVuDLv/GShpJPt+cGH1+VS19RcBPNsQ4Itm61owVj+KwMRE+EjsLaLcSmxLMxI4QXCQKTEA+U1SZ8foI6t4CepJTCaHqQAAy2EhSZZN8gnUJss0hPh2+S9SaresUsOe3Tym6kUjaSHNsbEzf1/kshp7FUb/xrcSOyGhNmi9wO4yU7k6BCrjjLYkSpQvIQ4gk/KXeXcYnG+TzYeM8q2Ywz5/5SDXXb3zJ22hJt5446NP1bJ7wTa+NpOOP7ja6//SpTSnX4JnUr+X3UGIPQ84tqBWYAAWL4KpTYJKzqED1/UpyDag8G+LYmZNsgXpuwwABCb/W4ZOtim/Diot0osQoDvGB2PhBPj2+zDv6CPVrq2qlY7481wS0y+aeDbGjQ8ETCxMVJkjSPSkJzyUk6BIl2RKbYg6hKlEFVflatkg0bh4Z5vi1FiKItYDPiDOmXxHIwTpOjROjUpHaRo82CqK8E+Na0B4bsYJGKodEdQgycrSOoKTpCzYSuoPpISzy+NR6lrRnRFT97mckIJfQkzxSOwX8IjditEgQnxap/LFV7f7QglBiw1qXrbiROuZNIpU0txexGW0TsLhFq1qESFoVCViQxgQhEYESNmwlSkcVdmT9mU7F9GspMqwpcH3Suvx5KfnSQGpEAhu6/BYfwnshWtd6/nst36zmCd+t2Tr0y31N4FgqVrARC/WJeYT1WxtBnhGupStQCarqjm6titLaDKT5IdEvPDrNS1510jEHxRBBIGEbDuyIefGpVq0q5XsmK4ybtSZgndP+z8SjgqOqQPD6UNtRAuR0TLWI8OXgjzfavmX5YqPSI8Yz4unaBM82BjoZxlQqUqpgrUoHsfb5ZLyKFyNSVSuf9MTKXzmRNlA/f6M0BnyeNbGR0XPOQdICMkYHSYJDDgEkR65/v+q/xo4Qu08CnwhABgKAb/78i4bWndma9VUaYrtazHUF+QIwDuzpIpAOge7rhbRTOWqTnuGsiW3RkOMwz7fbQQIFDI42klWvCvWsVYk2xMYgFiF8myd8kMhzZ/ZMz8Z4wXkpOQnEGH/5ElskzXGOeYkDGsumvnkxHgux48LQ82HEqnakIkAwko0kRKjIvihUEt0SU+kI72uDj+5L97kYukoi0JWhWlWUk8SfFsRKTwzWDHNurQ/Nje2xECvwEXMQ4/xMqmeVhTwJ0iUljFhBIswY0SfWUdXIjnDjSHGHdj8jqyvFeghV0WzyScxVwVqnIMw5eR7H5nlxHAuxs2NoLGLXSAWJCgSBSJCUOfYqMnJI4wnCItRzfXdq37T51G/zrIk4NtYlo19AcGgMxj7Mz3AsxM6EzQtF7IjRRsIhArNBRMSMxLYRxj3TJyq/SkMeNMdXc22I8dbjO5LJiDGnNSJnROzpXn4jLDgHMEsYx5DT/SdJQSHInTmSTNdcR5dUaUiJpMQ48uixazOM5y8J7IpnnB/lKDiril3DGEDEjBgrtqokEAFgjH0VBXxXVRFVRbcp9JGD1MhqUzxXzfmIeBKB3ctjLmM/jLkEfva6CtYc7ou1hbdhm67xWaBNi4xR1pAdIN4mEPoIJ9CGhdFuH7C1ecdyFfxRmIkb+4dh1I08pI2nwpi548D/BLESjpj68/M+SLdjj8yq9biILZY/PbEFCvW1ozR2GNL/PSv2YI1Tz39qFOyaND+2M0bdPwLW+tMSOxPRcySN0nhQfWtIf67QuYLPBsXxp67Yggyet8mMyG1ubMc7dfzUOi5iyf/UHXu2yNfvWbHh4D+V34Zdl/lhQcxVE8YEZ2Sza13Ytjb7tXXH/uh7jg2yn0H3sJz53us7lqNt8meE5JOwrX9UbCN8Df+vxM4EHAXZ7iOj/oyjkHUUHEpsR2tNjgtrCZ8NInGUXZhzOUx/HxxK7O+JfZLeF/k6TGCtMNbITR/WbLZjs/kPSqqdnBgjRB0AAAAASUVORK5CYII=;" parent="1" vertex="1">
                    <mxGeometry x="627" y="282" width="53" height="53" as="geometry"/>
                </mxCell>
                <mxCell id="7uX397mnJ79mEGuJaPBq-37" value="" style="shape=image;verticalLabelPosition=bottom;labelBackgroundColor=default;verticalAlign=top;aspect=fixed;imageAspect=0;image=data:image/png,iVBORw0KGgoAAAANSUhEUgAAAF8AAABeCAYAAABFEMhQAAAAAXNSR0IArs4c6QAAAARnQU1BAACxjwv8YQUAAAAJcEhZcwAAHYcAAB2HAY/l8WUAACigSURBVHhexZ1ZkyVHkYWztq596ep9l1oLhoEx2IzZPABm8KOAN0B/bYY3jAcYzEYmBkRLQlJLvdbatdec73h43rhZeW9Vt6QZ744bS8bicdzDwyMyW5p46/6D0+Pj42ZycrKZmJxoTk5Omua0GUunWUGR0/w9jbJJ9eFU/azE0EkzEQnRRKYHRW29wSMlSvr09NjxxEQUjIr76Lw2yX+3j8wblxE0qk0SbSkD5+fPnze/+c1vml/96lfNpJ+qLvWZaAvIGKrrnF+7S7SoxxnkB2VQlJtOFRNEObFu/G1Qt686T/qi4aIkdVfHTkair7NuiNrZsMRRfCEaVI22F23ajt2JoeTtvJB16xiq01A3/zrEKqrDKJKRgGDMv/xcmLIq8UXbul4G/63zVbqlOk2VyNfxNwEK6rbv6y/H6QtvSjI7auz2pbOMxwTXL23a2L8RX4jctKp/gaYee0Sc6fNoVB9JffluWZdG1TlX8/lxM34UzhsIqkE7v3YPwWzd0mN2yszz2d67/F2E34vSuL5JjwpJdfoiFBtumXjblMS4MIhEg9SFaASDF+nlvIkmGH0hn9dU57vPvimN0/gkbbhUOrE7SH1iXKNTB+VOxJS9DfbmCPJJFabUekqPIk9MONHzU0Ipr+sSpuTSEnBrW2DK8iS4XAHXd5LnVR5O0/HJNA5glh2dHCucNMenBM2DuZTndqXLeO2451DyFEBqHqiIOjt1UBKvvBOoN6H5Tk1OR5ia7h2LPjUjde6cyxxH1WyQD2jAT5S41AUl3UdnHpytWUYfS4IqE/3UdtHWbGlUk2+Txs5gzEPE2ZKl7NrDLAfG0Usk9eu6Jd1SlS7lbYnb8Fd/SnoU1WCfhROqy4IPuqxL+1p9l9ROpzvvMRTgq0EsLYXeVjynWtQbCn5cN3LFTAVVz6PN4E+XxgFPPv44UxH9KFCWD7vx/wF151u4GkmTgwqCQgnA6Sc/dEjg23T7PKKSC6IeUQltog4Q+FQYDQGfz+qQ1O1HD/NxN/7OqGDhpH9FJT+OWrPj9uVPl7JvnriGMrUA2od+3iajnMi/UNW2Kh2iLrhKD/S981Bd0Ev0RqoAnz9D8XjqbsbdMI7amXTna1za3BlqzU7EJZwZKx4EcINqdThDpc/BM6X8t5TU6Q5pupkYpEVgELlBmTsqVJdmui77Lqnl4sy8R5O9nSDiDKLC9dDjJEugqqt0q9HytyJEXj8lZNVB3aE+RQBt95Zn5IvW2e3E1VT5ifo+PjpqjhS4JcQtdjiOMeG71lj15np1WfZHmJqSW6hwHgXPwfJQWn+y366keRZ1h0NS5e2Y6whQqRPZKK8nEA9KXVEwoqAfh6psiPwsSokz3ZK6hEEAOzw4bPb395tXe6+aV69eNQcHB83h4WG53hWIU5PNtPzo6WmFmWkJZjA5zgZTOldMT880ly5dcnkG2iM8Av0R6rn1hZq6uajj1HDdMrXkqSbqecNtKTNtYU6mCkyAR0k9HXepah2khHsphTUw5AHnWAcmAulcDZM6sBGYPavr6Eh1JCQIoPcQ0u6rZnd31wGhHRzst5qfVI/nVcMYVVlfoHUF61A6JtGmgtTmPLLmR7VBaw0Xf6r2pB1K3lQq+DcrdKltGJNoiSKPMQiYFIOhGAJotBrNnZ2bbaaUnpqesrmgHhp7cHhgcOlrZXmlWVpeahYXFpv5+flmdnbWbQnWtMrUeLUozMzMOFyUDHoRZCuAMq12dmWe/LZlPdTa/Pp30GoAjAsynSFKWyI9pBHUJ3LQr/ODP/5LGcFXGWE/KceGA6oDK0D5ne3t5ujwyGAtLi42Swpzc/POY34AnPyl2UvOQ6yOvVd77qfWcoixUijnEnwV0E0lzS+9RY+i0nebr1Jdmnhw7255jThtO+k7HZ60bWKQ0qcpNbMtArySTPaij1JePfdFyxjCdgMw9phWqanESysLzeW1y83Vq1cNPs9zD8DeHqoNY8WmfKxVoZUhs7O/t2/BJeitwEseOl8A1XPaliTU9lPi9lmbH36N+Nvf/tavEadWV1c+oPGEljgTcLdta9qnbAspGdAXyoEL1coRVBht6xVhdvpMSh4wCfPS4qWlpWZldaVZXVlt1tbXmitX1psr61cMvs2QbD1mBY2fk2lakMlZXJTp0fP5+Tk/A9i52TmvDPKslBrsWgijyHtNRcPTVPvSRdvTUJ+xohkHx+HnP/9589Of/jTAx0ug86yQNCzfQX/DpXU+hJjk8qpyt123gPFiFU4avNXV1ebK1SvN9evXm2tXrzXvvvewuXnzprV/5tKM+ZnUqlhYWJBwVmxubI6Wli20hfkF231MEHUIzktojMF8IWJWzzgK5RxBFWZBg3yk+sGfuH3rzikTgJg4S5y4JTUY7lodWTsrcp2ySQ4tX2rpWfZBfKqJM2n9Tfs7rU0Urc0N8vLly82dO3eatbVVgwmoXEPv7x+4jV3Eo0PzCS+05+rWfBeE6Jd94ui4uJMHRwYA/uhjb2+v2dnZccCdJWxsbLiclQEOtIPgCzc3BZaBPIG2SbXyQuSzPvzVZmd4LY2gYYlHbqisysBI+uNM3ACrnCowkK4fxAQBG4DX19et1d///veb999/v7l3715z7fq1Znl5uTUdJ3Y9Fcqeg0DYIwBrRnGCQeBZnacPQJybm2tXFWNeu3bNK4txWC2YJlYGZKVBiJoDvEMZU848UkBJ+TyJfLcsaWp5eeWDCTEH0SGMKjHAMwf1bxDalr9J2T/MAypkLZUAcgMlLC+vNisry9buy2trzdrlNU3+msEm/OhHP2pu374trV8xCAhye2ur2VKAjjThEwWxqHEmC/DydlSX8RJ0T5iJ04jKSlEn6yMMAsLAHOXcaZcCoyyaR5wgZgz4BGNWURds8gT6YWW1Nr8P/HYw/4pyUP+Wzktm8CSWl5c4Wi+gJyZOZTJmDfb6lSuy21eb+/ffau7dv9+8/fbbzX2BDdCEu3fvOqaPtMmASV8IgP4gXy1owoyXYCJs5oBxS+CCx+CO+eByUpYByrpZP4XCCsl+aevVW2ILWOX5jJDts18o83U5dYc23F7wyZQGbXd1vqSH64TAckMjXliYl2Zfbq5fu97cunXTZuXhw3ek4XclhPsqu2XvZU0rgGXPqollzESPbcJ2dnd0Wt2xxsyrvwQAtzi1mMnhIsNOOg4xYfHEX82LDbMGOgEhpgwKnhfMB4E8zxkP4dfgM262y76guu+kLEvwf/GLXzQ/+clPxmu+WkTkXxF5OiIZJaWMRLQBJJjDpt66fat5+PbD5v3vvd+8/957zdsPH4rpWdtW7G5oWNhXli8a/vjxY0300HwgRNto1V9TfzPSSlxLiGdsxJdm4vTKPhCciZI5sUQ5gM2oXmosgfa5cgjUYSxCCmHA44x5AxfqMR5lHqJglQAnZb4OtE2zMxJ8JZw3qZEj/wapqxIPqFSzNhMeCuh33323uf/gfnNVJofrAepw+DnWPgATaHbuBaS5m9H0NDFA4eWzQJrRpgxAci3Fq9xGHbimJlwGUJdUztBofgigEEApuHzILod5pG/GmEWAs7itp+ovVu2U+gd0zOXS0qIFwV0RxMpMARDD+6BvcAiga8rnjJFmB/AHrTo03LxDfni2BoPiOWC733rrLQng7eauXEZWAQJ7pWM+zOLevXjxwm4XGylaheZ7Mtqc7UYyQZkWbPDC4kKzIrOE9q/In1/SISrMQ2gpWsidT5qY/IMA8g/CtSd2GPsH40FeYXJT6YexEAomij4xhVd1vsBcMi4rIVcJ7XN/6wO8m+8jDGDbmODPNRQG5aWjNh/21diXNIyghTdu3PDGCbMwziQB+KuvvjLYr6Q9+NLbOuqjSQgB8Le3t5q9/VeqL3uvTRp7fwhIaJlBihUJcPj0i0s6LElLGZc+9w/2DDp3QLRjUzafWgk839rcbLa2N7VRy5xRrtXldw6KKXv1ald97zs/c6msBq0o4oXFeSnPSvHA1jxPBMB4ECvF+Igy5hkCygDls5qK5ldm5gLEctYIoVlmYsJM4T4mgwCT4LLUyMMAIMaSZ3KDgxV5JsI1APaZevSdh6R9rQ7Gow80Nf16C0ArCncU4KmHSWNMrpTTtLWACHQ2ZcbL/YIxfH2gqdSgJXC8N2CfyrNAgk/bWhAZX5SKMSJcvKEnUgKtsMOYFk6lXHphEpjw5uZW8+LlSwtgDxAEFBMygNJga9YCdy5sdCGIOe5jBCx6Aij7AhIhsjr2dUCjjIcICu1kL5gWOJgoBHGEAPb3vH8E8KymxsJioqwm+hALUgJ5P0rAE1pv4WGaNA6rzAdCVpFaYnY4lF1h/xKfjAWhSODRJwDmSRhFqJcBDKrTo8mD5QsOaR+AATrgoxloMhMCgF0BFy83FCudG22uBC7H8GLQQsBkMiCD3Ud7t2SiNmWqXkqIH//9783HH3/cfPLJJ80///nP5utizrbVL0Iy+AppiwGOvrw5a0XRt5VGdVJxaAPoB/sHcmt3W5OIuULo8EBfuJ5ofr2yc0XV4XWofZPl+IJtAc2sazAmtrKyavDRCgjgYe74OJYuzPOGaVMrANu7s7NlYdgsCDQ0DABsXlTGxNH0TdnqDYH+/MVz7R3P3H5j42Xz7NkzhacBvMA6lKnBnFjQBNlwhIwA2T/w5tKk4b0sy4vhDILWwwP7EPxsbW3KfG0KcIEv0Ld3tsXrtvuCMDFsuqzsNHnw3CeA1Ppxmj9x69adU47kEB4GJsSduAQC5LNyYfmy1Lne5bT6Lz/+kTfc3EgBDsZZ9gggAwyjdbDECrGZUUw+NkHcuTAdA6+ESSkqVE8yY03FfaD5mBM0FbDQdtI3b9y21wRwzJcT76aA/vLLL72CWH1oP53MS7M5mXtVK82bsbm5RXtlCIVV9+GHH1r48OfVCgcV2HWcgfmgOPyzoF/+8pf4+csf5F01E0mffxyhRXQ0qQMP1wYP3npgLwcmcrNDIzE71rwyuAkmJDjq2ZZbmzdCu8UYmhQeUCz/NFPcaG5vIczwqxFYbtSMy78Fgy8u2gCYPYiAGST+wQ9+2NyQG4ztZo4AeVDMn/kuaZSP9rMohHglb+XgY1+Rx1BgjvBGP1A9x0x38ygf7Vo/38/5UlmBuxjCUBpddMzOj4smcyKt4eUFE4srgquqG3cxTIRJIMh4pTcbWu/8nABl893RhibNPmYDZWVwbyMvRACy1AHFt5dqB9j7e6Fx+PKcA0gjjFgVeFrzzfrlKzInq9bw27fvNdev3dIZ40Hzwx/+uPm3f/13HfSuNQ8evC2PTKbxVF7KNHc489q7eNV4IvM5K41fFNBzyp+KT5QIoUtRFHalSHtakWrazMlkMXdWFIKBcjUGZIq1J2rSDp6/QtYhQK2ap5TOI+rZ4xChdTCAppCGAIQAaGgF9ji/MsAkzEhreMmxvn7ZZorAzSaTQEDUi9d/5TMR7RuYArSdPvOLBjZTBMCqoB4mk7dYa2vR781bN31dvH553S4wSsIY8EAbPDGESBl7FvPAXAXfxT1lHAVWKqvcZ4TCIzzAE6ugJkFb4vPJ4HeBP08QMAYgLM1F2dFF7KgYB7A0FYTYVLHdYfdhGtvKhnfr5q3mnXfead57773m3r37Bgh3k9WBWwgPBLQdgChvgVY/bKZhjjAX4b6uq4/1K+ve/Dlpp3BJszKxt9h3Dn5ff/21PSgAXNQmzPi4kBaO5sEYamQtDrCL0DUWPCQfvdQiP14EZwx8Aj8qhry8lMdN5MDDxhvatOkJpYtGQPOp6zsZxQA7j+YLJPaJd955GNcQSgdIIVyEiN3fkp3f2Q53NUDQ8i1uLpML+x8rEJ8fsGgv0bkM7+RE9b/66nHz6NEjb7C4lCgEJvG6hPPg/n3Hy9oPMJv0Tb+sUj66ylVHeewvYVopy/LEZQjv8diDxwDUOt1H+ZwDEkCiDRxGcM3YJAkA76O6jCnVWZZhmuab2bk4uVJOX7nk0U5epLz14C0f48mvy4vCp/ZdzvKSbSxmxStDINMWIeJ7U8f1FpfkPWksm7V1mxrMG0L8wx/+0Pzxj39s/vzn/2r+9j9/a548eWIAuTNiPN41sDHj6STojBFXDWzsg/FwVylDEIlJCmBA5xugKTH9AR0QUuJJ2XHGEGkGReupa4blLqKRmB36wP6jjTAIcNSxi6d2uJCpuf7yQNrHBJks9zWsINKYMdqzmSI4BMg73biOiK8UEvTV1TULB0EjHMZDeJTtavX9+U9/av7jP/6z+fTTT5vPPvtU2v/YpoWLuuvXb7g+ZonNnnsghGLwC/CEheLfY2YPDg6brx4/trJRd8jjwR4brsDURLkCc8YatC9TAD8BT/BrsPsIcKkC4MtFKwEHwBcX5wVI+XpAzJJmcoCGFvByBAZgnP2AMvpDs5hknCJXvXFyo3jjBrabFzEBEv2gmewzfLGwpPpoJIe9jc0Nu5EIGZ+dC70P//vD5ve//71dWVYrLiXeFJ+i3L17R+BfE89LXsWYTQLghpLxjjju+y9JCcAGE8be8egf/7CLnKYHStyI/acIgUQf+CNtflI3D6WwGDS9EhhEy1nubHgE7PqatBJA+QYnhBb7w7Nnz6WBX/jlCfsEByv65bMQXNdbN282d+7E60VAunMnXjPSL7aZTdLaKODReBY3Ws84rChA/MejfzQfffSR7TyA8xyhsdp4K8bq3dnZ1WHpuTVY6MR89RdhsPnGrSrvIY4kuD31u2GThQBQIByLJMCNRETn0ZR2+Q8YmEFDsuGP1tTNU58yNBsNj2Ue3gr2mJclHPe9EWrC3AqyB9B/HoZevnzhkyKnRDZTBEifFoA8D77XCUGE7edbHF+SieiDuyC7eeIbDUWweX3AHD777LPmL3/5i8FHQ29LkNh3BM3KWNBKRZgoAgr05OlTOwcIhs8QmRuBFc1qm5IZei6FwWx9/s/PfThkHPiFb/AzhjJfOCDOp/b7JywFcz33Zco4omMGRAi57Cjz8pTpwAwgFDbA+TIJ3kIBKi9ZHjx44Pje3Xt6tmgtRRCffPKp+wdUNBrtzrsU9pU0ZQEGL81DYQJ43jyteJVhl+GDZ/FiZLp5ItcSjWXy8M4Y8M+l3Fd6hrbGuHGAYhxMDnVRDMwFt6p8kphbKcRzQpKflayjwaOWsv43Av/wKO5gMBkA4S+JNWE20EUtazbKOaUBhr0hVkccyjBP12XPqYM38vXXT7z8Y9NuwjQIiNQ89oT4Ao3bST4TAZS4+0HDAM5mR/UZoxWQeEUA6Z9jahAMwGLb+YiWW1Nf7KFI6o8YPjBVNqvKe48qKxS7hGChBLIVQIKd5U5m4TC9EfgQHbaaz/24yvDlWVqsMntDMgdk2ATRTuwsmowJAXy7lDqBAhhCoAwzQJ+YqRyHPrG9uZyZmPcb1XV9jc/0AARQ6Y+X7lyIYfo4kLEfIRQ8HGJ45xYT244ZYvX5BlW2/IkU4WutEr99k01nbPaGvT250OIFQRNSCRPcOm5BL88z1PSG4NOJQCbJjzrl2A8g5GPgwU1mABkDY5/9H0RSG7SITQwAQ2jxPhV8ucOhPAIvNuLdq88PNjfqw+PoV38BAnOB6eFzlNiw4+UOXo4v8eRKQuwdgI25oX/aAjRlcUCMK2ULtuxFsd9grhBu3MQitAS0Pw4hQOQzJL0R+HQAw0gfjYYJgIRxNIMlzP09k+C+Ho0hj3nB/Xv65KmP93gheA0Ai+mAWbQWAig2x5cvXtrD2NqOQxyAMD5jIkjIL0Y0LvsL7dlfOGDx9cT3vvc9e0ovBS5ju08FtPyZNln2AICGRxSA6w+bLsyWxoB81V7MFSYTIVOn1n7obBw/me/SlDyV8ol4LOlRFYcJ7Yu7bjydy7LleAh4ObT2S2uBZS0qL0zw7w3i1rY3Li62CICON4OW3rl9x5ssPKCFLwT8hmJAJzx//sKmAsDCJuPmarXBs3jHzpO2+REwIYhlb7gbG5sCmCtubix3PVc+EMYJoI0dBQGLxwShTFwIUodzhSYsYcTLdfrme3+f5sUHQoPoEwCMZRS4PPWfedV+/huBb7dRTDE5wOdQxEsRb1bSeoDKJYxGMWneTAFAmiKeIQjMhwUo289XApgeNkIuvzAFgM3dDquGgxIxmyQrgBfnmC2uuNF+hMHJlTmwQaOh9I1QMFXYb7+eFPiUwT/3SQiLPQJtBwPq4UoCLEDH5h0nep++FTM/eIEP9o8kwx7IF+zDPNIv8+Zc0IK/uLj8ARKlEte3YcdopaBWEstwrICWEON5cBKdn1/0nTs2GQEYFAW0MgTCR1LcAans4Mga/VTmZmd7V1p1qbnmzwnlh+vUSZ/Pn4WJwDS8kLY/sZl6Yn99cyOE+PLlhtsDEFqKNm+ojLsmAJiZmfLmzqrkepmDF1rOKmTFoSQIBgFhpjhEYUIRGlNF67HzAEv/8I1wQQYh+AVQ+e4IUFNp41dERZQ5cgY/NZ/PBXtPuOdRDo5GICjSdAqTaCwAbAoc3rfymg7m0BCbIAHkb3h0wMqNjkMZk+ZwQj88f8b7WmmW39kqxkaj9aQpp0/6w5SxKgCTcbleABRiVlWePgGYi7vbEvBtmTe+FUXjZ2U2GZOVjHnCUwJwBEQMf95bMDsi0mnnUTRAJ/2m5M8FARCCEadbcY2IVQFGWLYEwIMpPuNDCDBFnCE/Ecdlw97P2GOIwwyTxn+nDZss4PO6kHqYE+L48gEfG7Oig4603abG48RLFV6aYyryi7e0xdhrXFtMB3VwTwGdcniCP3jHS0Ih0px4k2UlFK+GybPi2eeo98UXX1jQrAr6qIVAOvN13NX8fvA1ULQZjlnOJLDh1IMpOoV5rgG4yzGY2riYLHW4wQQEdU5HNkM8A3AmYnsqkwCoaDSTwT5zLcFzb3Yev3xf4xvR2PB5X8vew1UGQEJ4QADHVwysiG2tDDb9r2W6PtcpGsCYJ4CxMuAKHgAWUDE3nA3itjRuYxGAN1/mo7b08fnnn5tf+vH8RPCYYEOZzvILgg8Z6qE4f9EsAIdSc3Dt+EwwbgK1NHkmhvPbSCaJv+3VIlBpA5C055AUb7527W2wMriXn70Up1Q648BGXTHpzRU+qUc/cIhHsVz+LRZCI8/42X+YpU2vGuZJH0LEvLA3oPHwYO9J5aHtMT98fZhAMaiDGcyrihQ6lCDXoS7vgp9ID1E0EbWJQiWPlsAcA7NE0QDA4AoBr8cA47ZpYgDo5Srtopz788s6yXIjyUsZCKZgLk1Z+tJoH24oJ18+UeGijRtNnnN76Xoak9eS/ANovK7Ll9fchvb+Z6UCnv2Bu/wX2iABjDx2HWXgrRSr0asKgVhooQwAxRU01wvwhynznqJAGsEQot3rUy/4A5LEIioUCZapNVeDslRhkjSeAmADNMAjCIIvybhWkEnidOhlrrq8FAFsljf/2pBTKfXw9bmUA9hc/gAKsNzDp4b7uUDn+aqAR+DczWP6qMO4jMNmjkbbZy+KwyaaPHItgoAJqxqHPtIUsTI4wwB+elXMF9ARWJqcPjpPKAhfHRNyqUgemaZGW16C7DFaQWBghECMNsEwE0CrWQn5xRodYaNp70sxl8u26sACSNyxBxDcycQ/VuMDJ+w9ANAnHso1eSh37t7xN/83bt6wgBifDR+gaZeK4c/KJTiEzfgctPDPcx75PQ4fAXCJhyZTkTxX4zwj4P/jopKGR/oGePehdMwpvD5C9h/QRZxCQhgZIO0g+h0lIEArCeJM50AQnaIRmB/8XoSAVwMI/ocFAgXbbEY0KJtjMODmLmfps1cwiZwk7XxdUG4oKQdMApqN5ucXaFygITTaAzK3q9ku/4kongtpa5soAfCbL4LaAgRz4ZCVGr5HUD5tO/OmLXnmngCPoxyrJsoqs5MV6orqOP6CkgODIfGUMgygNQCPXQ2P5cjL3S+8pXnpy6Nhgy8P6C4EaeDVJ/3qoVcGk0sX1bZV4yAU7wkKpBFI9MueEnnGiH1GYJc9xf0IVK6/UQ5sNl9Pc4LmIEeeMZhHAp97A0rFeePp06euZ4GoDnWZB+NfhKjbFUL7z4IA2F6EzI7BbmkAegauBGoNgPHQnHiVxzMApy6HFS69YBKzAuEqwkdqOsEClRC4HrC/rQMaHgggoI14LlD8w2ZOnwEot6kQ5pDVYvdTc8A1pJ9wH/nYiolPuP8tAcqZABBzz6IO5wX6ZOUmWD6hq80XX3xpYcAPQiD2PDUvFNA8aL59Mf2QJmbMka5mCmIo6CdCgK+abWcMDPjBKEsxwLB2SguzbzY7f7tT8nQcZoJVwUrSmUF/+A8ccah6ppXESw58dK8WViR/8fHV3G4qk9a4NhsSHiaIh94YdShDa5ksbea1CtlDUAQ8nfwwCqABHmB9bax5+XClwDgIw7eyr+K0TF36RWhgwHxeF/zBC3QVOEStiJNo6w6ABeCjQzrJDhmcQKeYnr9+9Nfm0SePfFXM5DATbKopCOwxXg6T43BFH6w4vw+Q8NBcuEgTwB1R3vkTqEt7e0Sy+3hHmDc2bfqHLwSINueXElx7ADh94jbCFysJc0RZ9B13RGCAkNh4rdXK8/kgew3CzVWK4qTJfR2Cv4zPtfkD/IsAlLTGaGCAg4lkhIliGx9/+djHb9JMjEngNeCjY5u5lmUTbu/j1RaNYvIASP2cJPwAJhsfSx3AaJebsg9jEigXcgiQFQGT8BaCpe9DH4yw3fTDWPTLvKgD5R7CCsXjwwK4gkCCP2/ECNQrJL6Upi1YnEc14DUNwFf50KPgqVCA7h8mJGayI5gAfMgnSj2DQb4G4E0Rl2wA4BtGuWyYGF/L+gV4DI8pSG0kxiMBCAQEoV18/IQms2kyBhwxtvcoQNJff1SrWbCicpMnjcsLYAgGXvGC4oCm84BD/EtD7nxiLlrZzLHMk5mykvOTEYTAmCmAi1AXeGhqKW2+OwnG62q2tmKa5ceLCIBPjTVjlRCw27bPKjo+krYc4K1wJUDfMgnCZvfVTgCt4CUvcwCYAAIAAM+E0o6jiYAAeAvSbsBh77BLaQGFh8SKoJ558/hyAiQYDkn0dSIe4BVBICnczgwICc2nDzw1NJ85YOu5HWX/eCmTygo076pjJVE/01N8H4oq6A//sW8Fa4LTxKy+OBcwfm64P/vZz6oNtzx0uqZaEiYKzhS2RB8IyNpa3DXcTzwXlj7/wBhCs315VjZmQGRs9gjAtUbRVxEUAlqW6cKN5NMU3wHJnfXBSX/wwHj/y36Q35KyulgB9HtgcxX9ks8402la4D9XMvznLSd7D3sSSoCQgCD7UBPzYFJZSWRJo3XtujX4w95Oeeh0Er0S+VdU8m2vheg4Y/oALGw9zAM8oGP/eWf76NHHzeefx35gP1sezZZvH3H/tq2FAJHeESbK1xbaJwCAFWgBawy+42cybMysoNxM/fJG4wNm8nJ4OLDNtE8+CYwHqBBKgUkCB3hKPgE8gWdvsaZrvr4RMCzCwDAULEoMvSb46q3gfAZ4aNBvL9FHahl9sgqYCILgHywjFPJoFWW4k/jTTIpNFpNhcBR7wtowMV95Ek0FCaAH/5ACgjXATFAh3EVtr24HT9meMaiTPFKeF3uUoRjYeWL3KR7ol2cBfAEfUrokCjz6JaHQZ3ZGgz8C+My344joNOMM9EFIoDLEs/iXLWxaXPPyUpwvC+LV4Ivm2dNnzcsNvt1Ei+M7e+xy3FCyfwS4PEejsctswqRhk809hYLgMFexCrkujn/U4L1GZfDglaM42xB4BuBoPauWvO+j1DcYwQOHupg74CcgBXjKI+E/o8D3v0ZkedOAAxJ2k6XdUgd4Uh5zBDFIV/MQQvrGr/Z2bI8h6gBoejcEXFK0j6+bse1sxHkIW9AeMY5wN7lWQBtZLQAP/xyQDmR2AqwQHoIBVARBGmAyz3PS7FfkId6ADbRPkGsM+gvNj34NfRmj5EyHJ/tWPvrFhP3ud79rfv3rX/drfgt0D/D8bfvvoZRwUmo9gWfbu9vuD6bNOH2pPP1qzBD/csRBXgbx7i5upmJpaLwbjjdU5ONwhGmS5mKerMFh8znFcsDCRcXTSoVILQdYNJEYUNByNL41h+qfuXgfkuYH2PAasXk/1WqmjIxx8U/kC72B5gfQUESDPP/kzoN3KAeowSbv5a8JE6Yv6VAmLeaZQRBg1GFlEBIcT1aTrFeNGPPc0DryeaEWqyO8GlYPz9yH+oJ8OJPrCzEu5YAPEATSlOcKoB/qkM8+cS8ZO6GFtG3rJ/eQxCNhL3lFh8f9mj9x5869+EfQqoQPjCC8XKNdkBhLIoUkRxGTGEeynG1/RKExJa+QpgJKWTulv/jtSYwDyICOcLiU89iDRqI4c0CcUQCWkILJkOXQqPSEYzNsnq39ZPg1/wQoYyhqHBzv9YI/mE0PFb7hoiSijMFGhXOptZEETFymtUr0zKdf/HfFpOM0HHnChAA/1TjcUu7LpGzLNG3IVX3BJyubXP9G2JDZ2ChpAlqcAfBrASTAUHc+gEawmRTgtvXF7GQI/vtIwhugeIb6wYeZwlDbtGJwHNVM9YWkTLdlPFeENqdL2YaSp65NjswWmm5tFxAmsTfUphP6tD1jwijeMlgIAJ9lcMtf50nSJtqZgCvDCOoFv63fJ4BS9o1I3LoX8ZpxUk7UV9uEKo8WOS8w4+A1/K44BUKwgFJItC0gE6CMawogRwS0vYRWCC3jiuPvEDHC62u+qG2SzPr3WyAx7aj8DseioeeikmjrafJoMu4nAkgXlTdn7FkR4sAWVxPKK90lwLM2l9ClIeCpK8AzdJ91eYVa1MYANxJ8qG1XCYBwZvAqXJiyah2rvbVTSX5DU3NcvBCNYbByPJXrIeZjGODSafYtqnmsQc9QPz8vBK8lQJSXjH9hmJ/C+ygaAf6gybjGfdTHbB3O0nBZmgZAZfQ6z6bnA1rpx6DrFIxfjz/v62qC3dbwgiJfXuCLuvwk8KMo65nNUk0l5U/kBlFJD9FoBCc9MVJVnTgAxaAxcKdT+bZvGuTPNPLcFct7KenpCcUTAksx17D8lzsiUH8QkIA3TN/5xAYKf37zNIufL5MkdZqcYpXwjHt/rYgJbiF10NFJi+ATF4Fzg/qg33ocibj80Z5xGimupB30fBC0l+TU+COmTxRONS7hpMSGzAo0HMaanZGkwUYFZDguXIz6WhKCItXNX4DgsdAgWRX2kPu+8ACvR9KVMrx+6nhc6C/N8A1JGjGKeoFoCzNEVFJBQ5mKCrtpQEbRqObflCrNTwYUkxwXxhKsjgvjybX00xf0W3qIX6KSKs8HNSho04oDYIX4q59hyMPEkoj8gOgj+3lzqs04AZKJU6Jk2tgcjA79pRFaXkeF88gojgqQ4pKNkjYR5HQp8KMiAjFn/oaoW8jc6gK1pY/S3ZtSgl0TZa3m5+Oz1XqISiMCfI4L55Hr6acvZAeDZP2ruHreUp0RfwZXE4fdKHJh6F0WlkT21+nxW6Mhm29SnGWjQn9phm9ILcpnA7/xA5VEW5ghopIKGsqcpRAFv8H/sKKG9n8XNGTzy9D+/X8lJtsXWhrKmM6WDJf1zq1vqt2yvo6/AdUmaDIvnfikjjsT0kmM6yDRE/z5CGn5xu03LQr6iVDVHRnkW/t6t7Tn1Vzm02938Gl2OPBZSNzVyP8uZ5EAKyak7twnRIkf64eDVJSOJnEw4LEOfeWF1wxxnRHpaAOJZ88FfoNXnrmu8a79/A535zFrUgeO/AtdqFVLrl1+iPiNuPw40Udlgu1zJYYKep4PxYVK1rVHVIFCtKOop8EFqfo/QUORGuruDMCRzhDPu5MdR1Wlum/S/FUc2lP+8LCEOs3P0PNCg7IobB+XBM955jIXudAx47qsxEEsn5KEqrYeo676WtQ0/wuzg/LhlzzV7gAAAABJRU5ErkJggg==;" parent="1" vertex="1">
                    <mxGeometry x="338" y="343.25" width="54.07" height="53.5" as="geometry"/>
                </mxCell>
            </root>
        </mxGraphModel>
    </diagram>
</mxfile>